<svg width="1270" height="1215" viewBox="0 0 1270 1215" fill="#181a24" xmlns="http://www.w3.org/2000/svg">
<path fill-rule="evenodd" clip-rule="evenodd" d="M143.388 913.046C95.8484 830.859 -1.997 773.432 0.0996546 672.493C2.23401 569.74 74.5696 461.637 154.705 368.189C231.214 278.972 338.503 217.498 443.75 155.144C550.379 91.9708 665.106 -12.1162 774.095 1.22857C889.807 15.3966 913.275 140.239 972.941 219.939C1010.76 270.458 1016.44 337.525 1060.37 383.627C1117.88 443.988 1249.28 446.744 1267.29 528.843C1284.69 608.171 1195.41 696.899 1147.5 780.81C1092.63 876.9 1058.42 983.046 965.072 1058.1C865.255 1138.36 738.441 1189.97 616.748 1207.55C493.155 1225.41 368.741 1212 280.362 1157.02C195.648 1104.31 190.893 995.174 143.388 913.046Z" fill="#181a24"/>
</svg>
