<svg width="132" height="130" viewBox="0 0 132 130" fill="none" xmlns="http://www.w3.org/2000/svg">
<path d="M42 41C42 35.4 42 32.6 43.09 30.46C44.0487 28.5785 45.5785 27.0487 47.46 26.09C49.6 25 52.4 25 58 25H86C91.6 25 94.4 25 96.54 26.09C98.4215 27.0487 99.9513 28.5785 100.91 30.46C102 32.6 102 35.4 102 41V107.525C102 109.955 102 111.17 101.495 111.835C101.277 112.124 100.998 112.363 100.679 112.533C100.359 112.704 100.007 112.804 99.645 112.825C98.81 112.875 97.8 112.2 95.78 110.855L72 95L48.22 110.85C46.2 112.2 45.19 112.875 44.35 112.825C43.9892 112.803 43.6374 112.703 43.3189 112.532C43.0003 112.362 42.7227 112.124 42.505 111.835C42 111.17 42 109.955 42 107.525V41Z" fill="#46773A" stroke="#46773A" stroke-width="1.5" stroke-linecap="round" stroke-linejoin="round"/>
<path d="M36 36C36 30.4 36 27.6 37.09 25.46C38.0487 23.5785 39.5785 22.0487 41.46 21.09C43.6 20 46.4 20 52 20H80C85.6 20 88.4 20 90.54 21.09C92.4215 22.0487 93.9513 23.5785 94.91 25.46C96 27.6 96 30.4 96 36V102.525C96 104.955 96 106.17 95.495 106.835C95.2768 107.124 94.9983 107.363 94.6789 107.533C94.3594 107.704 94.0067 107.804 93.645 107.825C92.81 107.875 91.8 107.2 89.78 105.855L66 90L42.22 105.85C40.2 107.2 39.19 107.875 38.35 107.825C37.9892 107.803 37.6374 107.703 37.3189 107.532C37.0003 107.362 36.7227 107.124 36.505 106.835C36 106.17 36 104.955 36 102.525V36Z" stroke="#0C3D1F" stroke-width="4" stroke-linecap="round" stroke-linejoin="round"/>
</svg>
