<svg width="93" height="107" viewBox="0 0 93 107" fill="none" xmlns="http://www.w3.org/2000/svg">
<path d="M65.1958 104.27L19.7982 101.014C12.4985 100.488 7.30662 93.6962 8.73632 86.5294L21.8786 20.6339C23.0517 14.7386 28.3718 10.5904 34.3839 10.8739L78.4068 12.9366C85.7249 13.2796 91.0862 19.957 89.8215 27.1603L78.0585 94.2496C76.9817 100.387 71.4278 104.714 65.2004 104.27H65.1958Z" fill="#46773A"/>
<path d="M59.697 97.41L14.2994 94.1536C6.99967 93.6276 1.80784 86.8359 3.23754 79.6692L16.3798 13.7736C17.5529 7.87834 22.873 3.73014 28.8851 4.0137L72.908 6.07636C80.2261 6.41938 85.5875 13.0967 84.3227 20.3001L72.5598 87.3893C71.4829 93.527 65.9291 97.8536 59.7016 97.41H59.697Z" fill="#46773A" stroke="#0C3D1F" stroke-width="4" stroke-miterlimit="10"/>
<path d="M70.497 82L6.5 78L18.5 18.5L81 22L70.497 82Z" fill="#FCF8ED"/>
<path d="M28.5049 32.3375L61.2689 33.9383" stroke="#0C3D1F" stroke-width="6" stroke-miterlimit="10" stroke-linecap="round"/>
<path d="M24.8389 47.8521L57.6029 49.4528" stroke="#0C3D1F" stroke-width="6" stroke-miterlimit="10" stroke-linecap="round"/>
<path d="M22.0894 63.895L40.1898 64.5811" stroke="#0C3D1F" stroke-width="6" stroke-miterlimit="10" stroke-linecap="round"/>
<path d="M43.1685 12.214L54.6244 12.6713" stroke="#0C3D1F" stroke-width="3" stroke-miterlimit="10" stroke-linecap="round"/>
</svg>
