<svg width="91" height="123" viewBox="0 0 91 123" fill="none" xmlns="http://www.w3.org/2000/svg">
<path d="M80.4181 60.6585C75.1543 53.3467 67.1173 48.5831 58.2745 47.1795C48.7337 45.6649 32.0957 45.0677 17.1038 54.7672C-5.55249 69.4247 7.49819 98.2122 7.49819 98.2122C7.49819 98.2122 17.4167 122.044 47.5439 117.994C55.8885 116.872 64.2552 115.655 71.2216 110.883C78.1305 106.151 85.009 98.3105 86.4291 85.5576C87.6587 74.5053 84.5464 66.3945 80.417 60.6585H80.4181Z" fill="#EB5D31"/>
<path d="M47.3881 46.315C51.5405 46.315 55.2618 46.7018 58.2746 47.1795C67.1174 48.5831 75.1533 53.3467 80.4182 60.6585C84.5476 66.3945 87.6598 74.5054 86.4302 85.5577C85.0112 98.3106 78.1316 106.151 71.2227 110.883C64.2563 115.655 55.8886 116.872 47.545 117.994C45.1842 118.311 42.952 118.457 40.8339 118.457C15.9287 118.457 7.49827 98.2112 7.49827 98.2112C7.49827 98.2112 -5.55241 69.4237 17.1039 54.7662C27.3626 48.1297 38.3904 46.3139 47.3891 46.3139M47.3891 42.5174C35.2321 42.5174 24.3613 45.5624 15.0769 51.569C4.61521 58.3375 -0.58057 68.9184 0.051505 82.167C0.498353 91.5431 3.74454 99.0346 4.06162 99.7459C4.35254 100.422 6.76573 105.779 12.2242 111.072C17.4848 116.173 26.719 122.252 40.8339 122.252C43.1655 122.252 45.5902 122.085 48.0411 121.755C56.2068 120.658 65.4629 119.413 73.3324 114.024C77.6764 111.049 81.2669 107.456 84.0034 103.346C87.372 98.2863 89.4451 92.4446 90.1651 85.9804C91.3319 75.4978 89.0757 66.2264 83.4582 58.4242C80.5594 54.3973 76.9124 51.0394 72.6187 48.4447C68.4014 45.8954 63.7718 44.2074 58.8585 43.4274C55.0504 42.8229 51.191 42.5164 47.3891 42.5164V42.5174Z" fill="#113D21"/>
<path opacity="0.46" d="M20.5418 65.0326C21.788 62.0874 21.5088 59.1433 19.9182 58.4567C18.3275 57.7701 16.0278 59.6011 14.7815 62.5464C13.5353 65.4916 13.8145 68.4357 15.4052 69.1223C16.9958 69.8089 19.2956 67.9779 20.5418 65.0326Z" fill="#F9EFCD"/>
<path opacity="0.46" d="M21.8005 66.0038C23.971 62.2068 24.5161 58.4206 23.0181 57.5471C21.52 56.6736 18.546 59.0435 16.3755 62.8404C14.205 66.6374 13.6599 70.4236 15.1579 71.2971C16.656 72.1707 19.63 69.8008 21.8005 66.0038Z" fill="#F9EFCD"/>
<path d="M32.9547 48.5233C32.9547 48.5233 -4.94466 56.6426 5.97642 92.8467C5.97642 92.8467 12.8047 116.02 37.4441 117.19" stroke="#D14D28" stroke-width="2" stroke-miterlimit="10" stroke-linecap="round"/>
<path d="M31.2554 86.8223C34.1579 86.8223 36.5109 83.6751 36.5109 79.7927C36.5109 75.9103 34.1579 72.7631 31.2554 72.7631C28.3529 72.7631 26 75.9103 26 79.7927C26 83.6751 28.3529 86.8223 31.2554 86.8223Z" fill="#0C3D1F"/>
<path d="M59.2554 86.8223C62.1579 86.8223 64.5109 83.6751 64.5109 79.7927C64.5109 75.9103 62.1579 72.7631 59.2554 72.7631C56.3529 72.7631 54 75.9103 54 79.7927C54 83.6751 56.3529 86.8223 59.2554 86.8223Z" fill="#0C3D1F"/>
<path d="M37.8896 93.0793C37.4135 92.9863 36.7061 92.9905 36.255 93.6415C36.0091 93.9967 35.9474 94.4512 36.0426 94.8739C36.3628 96.3103 37.8457 100.067 44.6237 100.26C44.6708 100.261 44.7179 100.26 44.765 100.259C45.5017 100.22 51.5661 99.7654 53.6507 95.2946C53.7166 95.153 53.7595 95.0018 53.7815 94.8475C53.8255 94.5452 53.8788 94.0051 53.8192 93.4608C53.6999 92.3827 52.6178 91.6609 51.6216 92.0678C51.3526 92.1777 51.0753 92.3553 50.8158 92.6353C50.8158 92.6353 47.0924 96.7119 44.4124 96.3261C44.4124 96.3261 42.1227 96.4604 38.6441 93.4555C38.4275 93.2685 38.1691 93.1353 37.8896 93.0814V93.0793Z" fill="#0C3D1F"/>
<path d="M36.8519 47.3046C36.8519 47.3046 31.4784 40.3703 20.5978 43.5732C20.5978 43.5732 19.6404 43.7119 20.8008 44.6525C20.8579 44.6994 25.4632 49.4595 33.3871 50.5135C33.4171 50.5184 33.4496 50.5076 33.4775 50.5186C33.9881 50.719 34.7555 50.773 34.3852 52.1214C34.3757 52.1541 34.3724 52.1879 34.3598 52.2201C34.2688 52.4696 33.9901 53.8352 32.6616 54.9517C32.6616 54.9517 30.7678 56.2743 30.382 60.1022C30.3528 60.3962 30.593 60.6433 30.884 60.6203C32.1087 60.52 35.3128 59.7921 39.5863 55.3034C39.5863 55.3034 40.5675 54.2371 41.7612 55.2475C41.8116 55.29 41.8514 55.3458 41.8811 55.4053C42.2345 56.1292 45.0515 61.0921 56.341 62.0432C56.3849 62.0472 57.3848 62.1125 57.0713 61.4636C56.8627 60.9401 56.4639 60.0835 55.8464 59.3206C55.8464 59.3206 54.2989 56.7704 51.4811 55.0538C51.4811 55.0538 49.0504 53.5603 49.9378 52.4775C49.9378 52.4775 50.1032 52.0881 51.5536 51.9552C51.5902 51.9516 51.6263 51.9446 51.6612 51.9322C52.3921 51.6782 60.6552 48.7264 62.2266 44.2887C62.2266 44.2887 62.5913 43.7873 61.4173 43.8092C61.4173 43.8092 53.8953 43.2954 49.7526 46.8183C49.739 46.83 49.7279 46.8399 49.7164 46.852C49.4579 47.1148 46.2182 50.3948 44.9226 50.7126C44.8542 50.7292 44.7831 50.7229 44.7149 50.7053C44.3556 50.6122 43.232 50.2675 43.3339 49.6332C43.3339 49.6332 45.467 38.0085 43.6272 33.9777C43.6272 33.9777 42.6362 31.6653 41.3438 30.4118C41.3438 30.4118 41.1966 30.0943 40.3897 30.0948C40.3897 30.0948 37.6831 30.326 36.1401 31.3121C35.9511 31.4332 35.878 31.6771 35.9664 31.8854C36.0187 32.0085 36.1126 32.1567 36.2754 32.3311C36.2754 32.3311 41.9108 36.7235 41.0396 48.2744C41.0342 48.3078 41.0259 48.3396 41.0135 48.3708C40.91 48.6386 40.3453 49.8246 38.7645 48.9606C38.7461 48.9501 38.7297 48.9399 38.7124 48.9285C38.5286 48.7989 37.3356 47.9428 36.8486 47.3051L36.8519 47.3046Z" fill="#46773A"/>
<path d="M40.7757 30.1207C41.2478 30.198 41.3464 30.4091 41.3464 30.4091C42.6389 31.6626 43.6298 33.975 43.6298 33.975C45.4696 38.0058 43.3365 49.6305 43.3365 49.6305C43.2347 50.2648 44.3582 50.6095 44.7175 50.7026C44.7347 50.7076 44.7523 50.7105 44.7698 50.7133C44.8215 50.7218 44.8745 50.7219 44.9262 50.71C46.2219 50.3923 49.4616 47.1122 49.7201 46.8494C49.7327 46.8365 49.7429 46.8264 49.7562 46.8157C53.899 43.2928 61.421 43.8066 61.421 43.8066C61.6092 43.8032 61.757 43.8135 61.8737 43.8326C62.4873 43.9332 62.2291 44.287 62.2291 44.287C60.6576 48.7248 52.3946 51.6766 51.6636 51.9305C51.6289 51.9419 51.5927 51.9499 51.556 51.9536C50.1056 52.0864 49.9402 52.4758 49.9402 52.4758C49.0528 53.5586 51.4835 55.0522 51.4835 55.0522C54.3014 56.7687 55.8489 59.319 55.8489 59.319C56.4653 60.0817 56.8642 60.9383 57.0737 61.462C57.3884 62.1099 56.3874 62.0455 56.3435 62.0415C55.3246 61.956 54.3758 61.837 53.4916 61.6921C44.5656 60.2298 42.205 56.0623 41.8835 55.4036C41.8549 55.3443 41.814 55.2884 41.7636 55.2458C41.4659 54.9936 41.1824 54.8712 40.9231 54.8287C40.1422 54.7007 39.5887 55.3018 39.5887 55.3018C35.3153 59.7905 32.1112 60.5184 30.8865 60.6186C30.8478 60.6219 30.8099 60.62 30.7728 60.6139C30.5362 60.5751 30.3584 60.3554 30.3845 60.1006C30.7703 56.2727 32.6641 54.9501 32.6641 54.9501C33.9936 53.8337 34.2723 52.4681 34.3623 52.2184C34.3738 52.186 34.3781 52.1525 34.3876 52.1198C34.7578 50.7724 33.9916 50.7175 33.4799 50.517C33.4749 50.5151 33.4698 50.5143 33.4646 50.5134C33.4398 50.5094 33.4133 50.5157 33.3884 50.5127C33.1538 50.4818 32.9219 50.447 32.6936 50.4096C25.1962 49.1813 20.8583 44.6974 20.802 44.6518C19.6427 43.7112 20.599 43.5724 20.599 43.5724C23.7726 42.6382 26.477 42.5662 28.7175 42.9333C34.1572 43.8244 36.8531 47.3038 36.8531 47.3038C37.3401 47.9414 38.5332 48.7975 38.7169 48.9272C38.734 48.9397 38.7504 48.9498 38.769 48.9593C39.0653 49.1214 39.3255 49.2111 39.5548 49.2487C40.5454 49.4109 40.9333 48.5868 41.018 48.3694C41.0304 48.3383 41.0387 48.3064 41.0441 48.2731C41.9153 36.7222 36.28 32.3298 36.28 32.3298C36.1172 32.1554 36.0222 32.007 35.971 31.8841C35.8835 31.6759 35.9556 31.4318 36.1447 31.3108C37.6867 30.3235 40.3942 30.0935 40.3942 30.0935C40.5437 30.0934 40.6704 30.1034 40.7778 30.121M41.1799 27.6171C40.931 27.5763 40.6649 27.5563 40.3903 27.5563L40.2864 27.5564L40.1832 27.5652C39.6286 27.6125 36.7637 27.9119 34.8011 29.1676C33.5663 29.9579 33.0866 31.5186 33.6611 32.8794C33.8354 33.2924 34.1011 33.6914 34.45 34.0666L34.6118 34.2408L34.7324 34.328C34.8692 34.4468 35.9302 35.4119 36.8968 37.4141C37.9829 39.6618 38.5668 42.4161 38.619 45.4837C38.2655 45.0778 37.4872 44.2597 36.2907 43.3923C34.2053 41.8814 31.7267 40.8576 29.1216 40.4308C26.2478 39.96 23.1825 40.187 20.0081 41.106C18.9413 41.3456 18.0944 42.1299 17.8172 43.1563C17.6065 43.9334 17.7374 44.7622 18.1859 45.4877C18.4131 45.8558 18.7249 46.2046 19.1368 46.5515C19.6443 47.0415 20.9236 48.1923 22.8871 49.3995C25.5107 51.0124 28.3468 52.1334 31.3305 52.7379C31.2619 52.8155 31.1848 52.8928 31.0986 52.9676C30.7944 53.2047 30.1819 53.7511 29.5663 54.706C28.654 56.1219 28.0891 57.8507 27.8877 59.8436C27.7282 61.4246 28.8203 62.8627 30.3729 63.1171C30.6094 63.1558 30.8517 63.1655 31.0913 63.1459C32.8069 63.0051 36.2304 62.1258 40.5356 57.9346C41.0681 58.6193 41.8502 59.4466 42.9679 60.2829C45.5251 62.1966 48.931 63.5126 53.0919 64.1943C54.0629 64.3533 55.0881 64.4785 56.1383 64.567C57.4124 64.674 58.544 64.1891 59.1668 63.2686C59.7229 62.4463 59.8007 61.4012 59.3816 60.4524C59.0991 59.7562 58.6215 58.7689 57.8972 57.8396C57.5231 57.258 56.2213 55.3829 54.0373 53.7327C55.0545 53.3137 56.4361 52.692 57.8568 51.8926C61.3697 49.9154 63.6134 47.7078 64.5281 45.3264C64.8559 44.6253 64.8878 43.806 64.5953 43.0857C64.4154 42.6418 63.8307 41.5824 62.2781 41.328C62.0323 41.2877 61.7714 41.2686 61.4828 41.2695C61.0139 41.2451 59.1308 41.1743 56.8234 41.4741C53.155 41.9514 50.2338 43.0961 48.1405 44.8753C48.0692 44.9365 48.0032 44.9974 47.9385 45.0639C47.4213 45.5906 46.8665 46.1207 46.3406 46.5967C46.4593 45.6792 46.5789 44.6377 46.6765 43.5412C47.1236 38.5198 46.8769 35.052 45.9249 32.9398C45.7601 32.5594 44.7201 30.2422 43.2254 28.7167C42.854 28.2768 42.2212 27.7877 41.1799 27.6171Z" fill="#113D21"/>
<path opacity="0.16" d="M31.8313 58.7624C33.6561 58.193 36.0122 57.1281 38.0785 55.0478C38.4225 54.7016 38.7341 54.3522 39.017 54.0034" stroke="#FDF8ED" stroke-width="2" stroke-miterlimit="10" stroke-linecap="round"/>
<path opacity="0.16" d="M46.2588 57.688C47.4849 58.6084 49.3125 59.6455 51.7673 60.0316C52.1757 60.0964 52.573 60.1379 52.956 60.1621" stroke="#FDF8ED" stroke-width="2" stroke-miterlimit="10" stroke-linecap="round"/>
<path opacity="0.16" d="M21.9573 44.1194C23.9879 45.8729 26.941 47.8825 30.6843 48.7677C31.3074 48.9148 31.9085 49.0207 32.4841 49.0936" stroke="#FDF8ED" stroke-width="2" stroke-miterlimit="10" stroke-linecap="round"/>
<path opacity="0.16" d="M50.8971 50.8947C52.6681 50.6141 57.8496 48.3867 59.6569 46.2297" stroke="#FDF8ED" stroke-width="2" stroke-miterlimit="10" stroke-linecap="round"/>
<g clip-path="url(#clip0_71_32)">
<path d="M20.2117 16.6767C20.2117 16.6767 3.29933 13.9998 2.35103 28.3856C1.30619 44.2759 15.0984 47.1372 15.0984 47.1372C15.0984 47.1372 15.7669 47.395 17.392 47.5608L17.5957 53.0193C17.5957 53.0193 20.5348 60.1478 38.7413 58.7173C38.7413 58.7173 61.7001 56.507 64.6967 47.5181L64.1981 42.3393C64.1981 42.3393 79.7067 39.6282 78.7961 26.8263C78.7961 26.8263 77.7932 13.0666 64.4351 11.7393C63.1646 11.6135 61.8785 11.5923 60.617 11.7943C59.6694 11.9467 58.6593 12.218 58.1268 12.7043C58.1268 12.7043 53.9852 3.11359 38.906 3.59858C38.906 3.59858 24.4952 4.34146 20.2117 16.6767Z" fill="#113D21"/>
<path d="M22.9666 21.8894C22.9666 21.8894 10.3884 18.2668 7.39183 27.2557C4.39527 36.2446 12.8589 40.5856 12.8589 40.5856C12.8589 40.5856 19.3171 44.153 27.3541 34.0343C27.3541 34.0343 33.2668 40.4931 40.1227 38.8986C40.1227 38.8986 49.6215 38.0131 52.8025 30.9399C52.8025 30.9399 57.3974 38.5535 66.7484 35.3976C66.7484 35.3976 77.9512 31.4189 71.6812 19.7775C71.6812 19.7775 66.7674 12.1945 55.8105 18.7274C55.8105 18.7274 55.7413 11.3226 43.5434 8.30783C43.5434 8.30783 37.1806 6.70017 30.3191 10.8441C27.1955 12.7303 24.7347 15.5838 23.5681 19.0441C23.2627 19.95 23.0342 20.9194 22.9669 21.8926L22.9666 21.8894Z" fill="#FCF8ED"/>
<path d="M28.4415 41.9856C28.4415 41.9856 24.6342 45.8968 21.8259 46.8116L22.2835 51.5657C22.2835 51.5657 28.2303 56.5067 40.5741 54.3516C40.5741 54.3516 57.7011 51.7361 60.1098 46.6706L59.6506 41.9006C59.6506 41.9006 56.9618 41.8178 53.8971 39.535C53.8971 39.535 50.4629 43.4102 41.5652 44.5891C41.5652 44.5891 32.6368 45.4486 28.4415 41.9856Z" fill="#FCF8ED"/>
<path d="M7.87216 35.5876C7.87216 35.5876 10.1428 42.4583 17.158 41.7829C17.158 41.7829 24.1117 40.469 27.4156 34.6729C27.4156 34.6729 31.791 40.3742 40.7354 39.5131C40.7354 39.5131 51.5348 37.8289 52.8947 31.8977C52.8947 31.8977 58.0352 38.4921 64.9582 36.8589C64.9582 36.8589 73.2181 35.7414 73.6329 26.6788C73.6329 26.6788 72.16 29.4307 65.7969 30.8618C64.8739 31.0699 63.9348 31.1764 62.9872 31.1613C60.6986 31.1239 56.5854 30.5531 53.4178 27.336C53.4178 27.336 51.4455 30.6838 41.9628 33.3078C40.5834 33.6887 39.1594 33.9064 37.7289 33.9571C35.2339 34.0491 31.2145 33.9172 27.4072 32.5791C27.4072 32.5791 24.9537 35.8766 16.7552 37.6326C16.7552 37.6326 10.7581 38.8544 7.86897 35.5879L7.87216 35.5876Z" fill="#F9EFCD"/>
<path d="M28.4415 41.9856C28.4415 41.9856 24.5728 45.2582 21.8259 46.8116L22.2869 51.6008C22.2869 51.6008 28.2033 46.1977 34.0967 47.2415C34.0967 47.2415 38.5605 48.0105 43.0754 47.7724C44.686 47.6882 46.2812 47.409 47.836 46.979C50.6136 46.2121 56.4825 45.7309 60.113 46.6703L59.652 41.8811C59.652 41.8811 56.6899 41.1995 53.9545 39.5294C53.9545 39.5294 41.361 49.1201 28.4447 41.9853L28.4415 41.9856Z" fill="#F9EFCD"/>
</g>
<defs>
<clipPath id="clip0_71_32">
<rect width="76.5694" height="54.8557" fill="white" transform="translate(0 7.33752) rotate(-5.49904)"/>
</clipPath>
</defs>
</svg>
