<svg width="113" height="112" viewBox="0 0 113 112" fill="none" xmlns="http://www.w3.org/2000/svg">
<path d="M38.9932 9.92491C38.9932 9.92491 18.3343 10.9588 12.6531 29.5685C12.6531 29.5685 7.48841 47.6612 11.6202 69.3726C11.6202 69.3726 13.34 79.5872 24.4235 86.2195C29.299 89.135 34.9182 90.5669 40.5942 90.5669H45.8932C45.8932 90.5669 45.7279 94.6869 46.9985 101.205C47.3083 102.787 48.0675 104.276 49.2554 105.367C49.9062 105.961 50.7377 106.52 51.7965 106.892C54.3065 107.776 57.1058 107.145 59.1407 105.424C61.7489 103.216 66.8671 98.6467 74.8156 90.5721C74.8156 90.5721 90.1238 89.5382 97.8709 83.335C97.8709 83.335 108.2 75.581 108.2 60.5898C108.2 60.5898 108.536 46.0949 107.307 35.0687C106.48 27.6868 102.927 20.8116 97.1788 16.1075C93.3311 12.9593 88.0992 10.3178 81.1837 9.93008C81.1837 9.93008 50.872 8.89621 38.9932 9.93008V9.92491Z" fill="#46773A"/>
<path d="M34.8613 6.30638C34.8613 6.30638 14.2025 7.34025 8.52129 25.95C8.52129 25.95 3.35658 44.0427 7.48835 65.754C7.48835 65.754 9.20819 75.9687 20.2917 82.601C25.1672 85.5165 30.7864 86.9484 36.4624 86.9484H41.7614C41.7614 86.9484 41.5961 91.0684 42.8666 97.587C43.1765 99.1688 43.9357 100.658 45.1236 101.748C45.7744 102.343 46.6059 102.901 47.6646 103.273C50.1747 104.157 52.974 103.527 55.0089 101.805C57.617 99.5978 62.7353 95.0281 70.6838 86.9536C70.6838 86.9536 85.992 85.9197 93.739 79.7165C93.739 79.7165 104.068 71.9624 104.068 56.9713C104.068 56.9713 104.404 42.4764 103.175 31.4502C102.349 24.0683 98.7953 17.1931 93.047 12.4889C89.1992 9.3408 83.9674 6.69925 77.0518 6.31155C77.0518 6.31155 46.7402 5.27768 34.8613 6.31155V6.30638Z" stroke="#0C3D1F" stroke-width="4" stroke-linecap="round" stroke-linejoin="round"/>
<path d="M53.6351 66.4829C50.9392 64.6892 35.6103 53.0633 34.283 45.149C34.2778 45.118 34.2726 45.087 34.2623 45.0508C33.7613 42.9003 33.8801 40.7292 34.6135 38.7648C35.4554 36.5006 36.8343 33.7557 40.0468 32.5719C41.3173 32.1015 42.5413 31.8689 43.6827 31.8689C49.3691 31.8689 51.9205 37.6793 52.0289 37.9274C52.2768 38.5064 52.8449 38.8682 53.4544 38.8682C53.5577 38.8682 53.661 38.8579 53.7643 38.8372C54.4253 38.7028 54.916 38.1548 54.9935 37.4983C55.2517 36.7126 57.8444 32.2204 63.1279 32.2204C64.8529 32.2204 66.7225 32.7012 68.6748 33.6523C72.6051 36.1853 73.0854 40.5379 73.0854 40.5793C74.0151 48.4884 66.7277 55.4205 66.6554 55.4877C64.1557 57.9638 55.1949 65.2216 53.63 66.4829H53.6351Z" fill="#FCF8ED"/>
<path d="M43.6826 33.4197C48.3205 33.4197 50.5155 38.3358 50.5982 38.5271C51.0888 39.6953 52.2251 40.4242 53.4543 40.4242C53.6557 40.4242 53.8623 40.4035 54.0689 40.3622C55.3136 40.1089 56.2587 39.1319 56.4963 37.9171C56.894 37.0383 59.0838 33.7661 63.1278 33.7661C64.5946 33.7661 66.2008 34.1796 67.9155 35.0016C71.004 37.0383 71.5101 40.4397 71.5514 40.7395C71.5514 40.7602 71.5514 40.7499 71.5514 40.7809C72.3829 47.8629 65.6636 54.2884 65.6017 54.3453C65.581 54.366 65.5552 54.3867 65.5345 54.4125C63.4222 56.5061 56.3465 62.2854 53.5627 64.5393C48.7544 61.0758 36.8549 51.1558 35.8065 44.8905C35.7961 44.8285 35.7806 44.7613 35.7703 44.6993C35.3365 42.8486 35.4398 40.9825 36.0647 39.3076C36.7929 37.3588 37.9601 34.9912 40.5838 34.0245C41.6787 33.6213 42.722 33.4146 43.6826 33.4146M43.6826 30.3181C42.4276 30.3181 41.0383 30.5559 39.5096 31.1194C35.6825 32.5306 34.0556 35.8235 33.157 38.2272C32.2996 40.5224 32.1912 43.0244 32.7489 45.4075C34.3397 54.8778 52.8603 67.8787 52.9326 67.8787C52.9481 67.8787 53.0927 68.1268 53.5162 68.1268C53.7228 68.1268 54.0017 68.0648 54.3684 67.8839C54.3684 67.8839 64.9251 59.3854 67.7089 56.625C67.7089 56.625 75.6574 49.2173 74.6244 40.4294C74.6244 40.4294 74.1079 35.26 69.4287 32.3032C67.0581 31.14 64.9561 30.6748 63.1226 30.6748C56.5996 30.6748 53.4491 36.5213 53.4491 37.3278C53.4491 37.3278 50.5001 30.3233 43.6775 30.3233L43.6826 30.3181Z" fill="#0C3D1F"/>
</svg>
