<svg width="578" height="613" viewBox="0 0 578 613" fill="none" xmlns="http://www.w3.org/2000/svg">
<path d="M373.816 531.93L377.916 592.173C377.916 592.218 377.927 592.264 377.938 592.309C378.215 593.268 381.435 605.426 369.184 609.003C369.184 609.003 345.877 617.319 327.179 609.437C327.141 609.42 327.102 609.403 327.069 609.381C326.261 608.879 317.33 603 324.573 593.482C326.72 590.661 329.664 588.585 332.929 587.282C337.007 585.657 344.095 583.496 355.417 581.961C355.766 581.916 356.031 581.606 356.014 581.245L353.928 535.349C353.923 535.196 353.962 535.055 354.045 534.931C354.897 533.634 360.192 526.688 373.345 531.315C373.606 531.405 373.794 531.653 373.816 531.935V531.93Z" fill="#0C3D1F"/>
<path d="M261.967 527.563L258.121 587.823C258.121 587.869 258.121 587.914 258.121 587.959C258.265 588.946 259.865 601.437 247.254 603.31C247.254 603.31 223.061 608.371 205.57 598.013C205.531 597.99 205.498 597.967 205.465 597.939C204.679 597.29 195.521 589.302 207.036 580.105C208.685 578.785 210.6 577.843 212.614 577.256C216.526 576.122 224.19 574.605 237.161 574.633C237.509 574.633 237.814 574.362 237.847 574.007L241.809 528.234C241.82 528.082 241.881 527.947 241.98 527.834C242.993 526.666 249.157 520.505 261.58 526.88C261.823 527.004 261.984 527.275 261.962 527.557L261.967 527.563Z" fill="#0C3D1F"/>
<path d="M96.9693 355.69C96.9693 355.69 90.4675 361.366 80.3467 354.827C80.3467 354.827 46.2714 336.999 33.7048 314.031C33.7048 314.031 21.3485 312.524 4.18911 293.579C2.13065 291.305 0.614433 288.513 0.144089 285.455C-0.525467 281.122 0.819168 275.988 11.1392 276.321C11.1392 276.321 14.094 277.483 14.5257 274.357C14.5257 274.357 10.6855 262.741 18.6592 260.45C18.6592 260.45 25.2773 257.364 33.2012 268.202C33.2012 268.202 36.2502 270.978 36.7427 267.909C36.7427 267.909 35.9458 259.869 45.5742 259.158C45.5742 259.158 51.6278 258.966 55.0088 267.92C56.525 271.937 56.4309 276.394 54.9756 280.434C52.6847 286.803 49.4421 297.698 52.7899 300.806C52.7899 300.806 72.9152 325.681 93.5331 335.159C93.5331 335.159 108.175 343.662 96.9693 355.69Z" fill="#0C3D1F"/>
<path d="M133.612 216.715C161.446 177.685 203.943 152.257 250.701 144.765C301.15 136.68 389.127 133.492 468.4 185.267C588.2 263.508 519.192 417.175 519.192 417.175C519.192 417.175 466.746 544.387 307.442 522.768C263.317 516.782 219.077 510.282 182.24 484.809C145.708 459.551 109.337 417.7 101.828 349.625C95.3257 290.629 111.782 247.333 133.618 216.715H133.612Z" fill="#EB5D31"/>
<path d="M308.266 140.149C286.309 140.149 266.632 142.214 250.701 144.764C203.943 152.257 161.451 177.684 133.612 216.715C111.777 247.333 95.3201 290.628 101.822 349.625C109.325 417.699 145.703 459.551 182.235 484.809C219.071 510.282 263.317 516.781 307.436 522.767C319.919 524.46 331.722 525.238 342.922 525.238C474.614 525.238 519.192 417.169 519.192 417.169C519.192 417.169 588.2 263.502 468.4 185.261C414.155 149.836 355.843 140.144 308.26 140.144M308.26 119.878C372.543 119.878 430.025 136.132 479.118 168.195C534.437 204.325 561.911 260.806 558.568 331.526C556.206 381.575 539.041 421.564 537.364 425.361C535.826 428.972 523.066 457.565 494.203 485.819C466.386 513.046 417.558 545.498 342.922 545.498C330.594 545.498 317.773 544.607 304.813 542.847C261.635 536.99 212.691 530.344 171.079 501.577C148.11 485.695 129.124 466.518 114.654 444.577C96.8418 417.57 85.8799 386.387 82.0729 351.882C75.903 295.926 87.8333 246.436 117.537 204.788C132.865 183.292 152.149 165.368 174.853 151.518C197.153 137.91 221.633 128.899 247.613 124.736C267.75 121.509 288.157 119.873 308.26 119.873V119.878Z" fill="#113D21"/>
<path opacity="0.46" d="M450.221 240.064C443.632 224.342 445.108 208.627 453.519 204.962C461.93 201.297 474.09 211.071 480.68 226.792C487.27 242.514 485.793 258.229 477.382 261.894C468.972 265.559 456.811 255.785 450.221 240.064Z" fill="#F9EFCD"/>
<path opacity="0.46" d="M443.566 245.247C432.089 224.979 429.206 204.769 437.128 200.106C445.049 195.443 460.775 208.093 472.252 228.361C483.729 248.629 486.611 268.84 478.69 273.503C470.769 278.166 455.043 265.515 443.566 245.247Z" fill="#F9EFCD"/>
<path d="M382.1 151.461C382.1 151.461 582.501 194.802 524.753 388.057C524.753 388.057 488.647 511.755 358.361 518" stroke="#D14D28" stroke-width="13" stroke-miterlimit="10" stroke-linecap="round"/>
<path d="M507.804 394.641C507.804 394.641 515.75 391.397 523.27 400.915C523.27 400.915 549.909 428.977 554.551 454.845C554.551 454.845 565.773 460.329 576.038 483.895C577.272 486.722 577.825 489.864 577.305 492.911C576.569 497.232 573.675 501.65 564.013 497.949C564.013 497.949 561.584 495.878 560.184 498.694C560.184 498.694 560.151 510.948 551.884 510.502C551.884 510.502 544.646 511.252 540.568 498.389C540.568 498.389 538.559 494.761 537.121 497.503C537.121 497.503 535.333 505.379 525.993 502.885C525.993 502.885 520.205 501.08 519.828 491.495C519.662 487.195 521.157 483.004 523.807 479.658C527.99 474.377 534.492 465.13 532.307 461.085C532.307 461.085 521.107 430.929 504.578 415.189C504.578 415.189 493.4 402.331 507.804 394.624V394.641Z" fill="#0C3D1F"/>
<path d="M325.503 327.543C310.155 327.543 297.713 310.743 297.713 290.019C297.713 269.295 310.155 252.495 325.503 252.495C340.85 252.495 353.292 269.295 353.292 290.019C353.292 310.743 340.85 327.543 325.503 327.543Z" fill="#0C3D1F"/>
<path d="M165.267 317.57C152.71 316.207 144.213 298.998 146.288 279.135C148.363 259.271 160.225 244.274 172.782 245.638C185.338 247.001 193.835 264.209 191.76 284.073C189.685 303.937 177.823 318.934 165.267 317.57Z" fill="#0C3D1F"/>
<path d="M272.503 338.956C275.02 338.46 278.761 338.482 281.146 341.958C282.446 343.853 282.773 346.279 282.269 348.536C280.576 356.203 272.735 376.254 236.895 377.287C236.646 377.293 236.397 377.287 236.148 377.281C232.252 377.073 200.185 374.647 189.163 350.782C188.814 350.026 188.587 349.219 188.471 348.395C188.239 346.782 187.956 343.899 188.272 340.993C188.903 335.238 194.624 331.385 199.892 333.557C201.314 334.144 202.781 335.092 204.153 336.587C204.153 336.587 223.841 358.347 238.012 356.288C238.012 356.288 250.12 357.005 268.513 340.965C269.659 339.966 271.025 339.255 272.503 338.968V338.956Z" fill="#0C3D1F"/>
<path d="M370.203 108.454C370.203 108.454 404.062 76.5546 458.169 102.823C458.169 102.823 463.049 104.38 456.204 108.335C455.867 108.533 427.84 129.639 385.597 128.352C385.436 128.352 385.276 128.268 385.121 128.302C382.288 128.916 378.237 128.538 379.04 135.963C379.062 136.144 379.051 136.324 379.089 136.505C379.355 137.898 379.665 145.334 385.663 152.364C385.663 152.364 394.439 160.968 393.244 181.47C393.15 183.044 391.689 184.139 390.19 183.766C383.881 182.181 367.768 175.58 349.225 148.24C349.225 148.24 344.997 141.774 337.92 146.068C337.621 146.248 337.367 146.508 337.162 146.795C334.711 150.305 315.847 174.023 256.124 169.289C255.891 169.273 250.618 168.753 252.798 165.605C254.325 163.027 257.125 158.858 260.988 155.371C260.988 155.371 271.203 143.269 287.349 136.657C287.349 136.657 301.288 130.885 297.564 124.414C297.564 124.414 297.028 122.22 289.568 120.268C289.38 120.217 289.198 120.149 289.026 120.053C285.424 118.084 244.769 95.3984 240.287 70.6589C240.287 70.6589 238.804 67.7026 244.913 68.831C244.913 68.831 284.605 72.6166 303.275 94.7552C303.336 94.8285 303.386 94.8906 303.435 94.9639C304.564 96.5718 318.724 116.651 325.221 119.444C325.564 119.591 325.94 119.619 326.311 119.585C328.264 119.404 334.417 118.558 334.417 115.128C334.417 115.128 333.028 52.0352 346.01 32.3847C346.01 32.3847 353.121 21.0559 360.917 15.5664C360.917 15.5664 361.952 14.0205 366.163 14.7201C366.163 14.7201 380.096 18.2745 387.323 24.8021C388.209 25.6032 388.386 26.9516 387.749 27.9728C387.373 28.5765 386.759 29.2761 385.763 30.0546C385.763 30.0546 352.667 48.3342 347.532 109.949C347.532 110.129 347.548 110.304 347.587 110.479C347.903 111.98 349.856 118.716 358.831 115.528C358.936 115.489 359.03 115.449 359.13 115.404C360.198 114.88 367.143 111.399 370.219 108.459L370.203 108.454Z" fill="#46773A"/>
<path d="M364.127 14.5227C361.598 14.5227 360.906 15.5495 360.906 15.5495C353.11 21.039 345.999 32.3678 345.999 32.3678C333.017 52.0183 334.406 115.111 334.406 115.111C334.406 118.541 328.253 119.387 326.3 119.568C326.206 119.579 326.112 119.579 326.018 119.579C325.741 119.579 325.464 119.534 325.204 119.427C318.708 116.634 304.548 96.555 303.419 94.9471C303.363 94.8681 303.319 94.806 303.258 94.7383C284.588 72.5998 244.896 68.8141 244.896 68.8141C243.917 68.6335 243.137 68.5602 242.511 68.5602C239.225 68.5602 240.276 70.6477 240.276 70.6477C244.758 95.3871 285.413 118.073 289.015 120.042C289.187 120.132 289.369 120.206 289.557 120.256C297.017 122.208 297.553 124.403 297.553 124.403C301.277 130.874 287.338 136.646 287.338 136.646C271.192 143.258 260.977 155.36 260.977 155.36C257.12 158.846 254.32 163.016 252.787 165.594C250.601 168.737 255.88 169.261 256.113 169.278C261.502 169.707 266.555 169.899 271.291 169.899C319.106 169.899 334.921 149.978 337.151 146.784C337.35 146.497 337.61 146.237 337.909 146.056C339.674 144.984 341.257 144.584 342.646 144.584C346.829 144.584 349.214 148.229 349.214 148.229C367.757 175.569 383.87 182.17 390.179 183.755C390.378 183.806 390.577 183.829 390.776 183.829C392.043 183.829 393.156 182.824 393.233 181.459C394.428 160.957 385.652 152.353 385.652 152.353C379.648 145.323 379.338 137.887 379.078 136.494C379.045 136.313 379.051 136.132 379.029 135.952C378.226 128.533 382.271 128.905 385.11 128.29C385.138 128.285 385.165 128.285 385.193 128.285C385.326 128.285 385.459 128.341 385.591 128.347C386.842 128.386 388.081 128.403 389.304 128.403C429.466 128.403 455.867 108.521 456.199 108.329C463.038 104.375 458.163 102.817 458.163 102.817C442.382 95.1558 428.327 92.4421 416.324 92.4421C387.185 92.4421 370.197 108.448 370.197 108.448C367.12 111.387 360.176 114.868 359.108 115.393C359.008 115.444 358.914 115.483 358.809 115.517C357.127 116.115 355.694 116.363 354.465 116.363C349.159 116.363 347.825 111.686 347.565 110.468C347.526 110.293 347.51 110.118 347.51 109.937C352.645 48.3229 385.741 30.0434 385.741 30.0434C386.737 29.2648 387.357 28.5652 387.727 27.9616C388.358 26.9404 388.187 25.592 387.301 24.7908C380.08 18.2576 366.141 14.7089 366.141 14.7089C365.361 14.5791 364.691 14.5227 364.116 14.5227M364.116 0.9823C365.449 0.9823 366.855 1.10642 368.288 1.34338L368.83 1.43364L369.362 1.56905C372.217 2.29685 386.919 6.34768 396.111 14.6581C401.893 19.8881 403.088 28.5257 398.949 35.2C397.693 37.2254 395.972 39.0985 393.836 40.7742L392.846 41.5527L392.143 41.9082C391.33 42.4159 384.983 46.5853 378.259 56.3005C370.706 67.2062 365.35 81.2148 362.506 97.3336C364.691 95.5 369.439 91.861 376.411 88.3236C388.563 82.1627 402.358 78.9073 416.313 78.9073C431.708 78.9073 447.517 82.7494 463.315 90.332C468.682 92.5154 472.445 97.3787 473.032 103.026C473.48 107.303 472.102 111.557 469.153 114.993C467.659 116.736 465.739 118.304 463.298 119.777C460.238 121.921 452.597 126.88 441.336 131.546C426.29 137.78 410.547 141.238 394.467 141.848C394.76 142.316 395.098 142.79 395.485 143.258C396.874 144.77 399.613 148.178 402.026 153.741C405.6 161.989 407.1 171.586 406.48 182.26C405.988 190.729 399.082 197.363 390.765 197.363C389.498 197.363 388.225 197.205 386.991 196.895C378.154 194.672 361.023 187.084 342.065 161.284C338.711 164.432 333.936 168.116 327.401 171.558C312.449 179.434 293.569 183.428 271.28 183.428C266.079 183.428 260.623 183.202 255.067 182.762C248.327 182.226 242.827 178.694 240.348 173.307C238.134 168.494 238.605 162.92 241.587 158.282C243.646 154.858 246.966 150.068 251.526 145.797C253.966 143.055 262.333 134.299 275.115 127.489C270.157 124.403 263.467 119.935 256.722 114.496C240.044 101.046 230.183 87.4773 227.405 74.14C226.282 70.1625 226.802 65.8183 228.932 62.2752C230.244 60.0918 234.184 55.0142 242.5 55.0142C243.817 55.0142 245.195 55.1383 246.7 55.3922C249.168 55.6686 259.057 56.9211 270.849 60.4924C289.596 66.1737 303.884 74.7267 313.318 85.9088C313.639 86.2925 313.932 86.6705 314.215 87.0767C316.472 90.2982 318.924 93.5704 321.27 96.5324C321.419 91.5958 321.668 86.0048 322.078 80.1429C323.954 53.299 328.148 35.2395 334.888 24.9319C336.066 23.0701 343.437 11.7582 352.518 5.01057C354.825 3.01336 358.538 0.9823 364.116 0.9823Z" fill="#113D21"/>
<path opacity="0.16" d="M386.803 173.16C377.756 168.585 366.351 160.94 357.309 148.195C355.804 146.074 354.471 143.964 353.287 141.882" stroke="#FDF8ED" stroke-width="8" stroke-miterlimit="10" stroke-linecap="round"/>
<path opacity="0.16" d="M312.4 155.044C305.228 158.835 294.82 162.722 281.683 162.638C279.498 162.626 277.389 162.502 275.37 162.299" stroke="#FDF8ED" stroke-width="8" stroke-miterlimit="10" stroke-linecap="round"/>
<path opacity="0.16" d="M450.615 104.527C438.547 112.014 421.448 120.053 401.168 121.486C397.793 121.723 394.567 121.763 391.501 121.65" stroke="#FDF8ED" stroke-width="8" stroke-miterlimit="10" stroke-linecap="round"/>
<path opacity="0.16" d="M293.884 115.246C284.876 112.239 259.698 96.0303 252.073 83.1049" stroke="#FDF8ED" stroke-width="8" stroke-miterlimit="10" stroke-linecap="round"/>
</svg>
