<?xml version="1.0" encoding="UTF-8"?><svg id="d" xmlns="http://www.w3.org/2000/svg" viewBox="0 0 1470.33 1170.54"><defs><style>.j{fill:#132125;}.j,.k,.l,.m,.n,.o,.p,.q,.r,.s,.t,.u,.v,.w{stroke-width:0px;}.k{fill:#c3dae3;}.l{fill:#bc2026;}.m{fill:#081c22;}.n{fill:#f7f8f4;}.o{fill:#ebcc64;}.p{fill:#dc535a;}.q{fill:#fffdf4;}.r{fill:#3e9c60;}.s{fill:#99ca41;}.t{fill:#b62125;}.u{fill:#e83725;}.v{fill:#dc9b3a;}.w{fill:#ee3529;}</style></defs><path class="m" d="m829.36,868.36s29.54,16.26,70.02,8.3c0,0,39.16-10.62,65.05-35.18,0,0,85.95,25.22,193.81,20.91,0,0,10.62,51.11-38.5,77.99,0,0-35.18,26.55-88.28,14.6,0,0-7.63-1.45-11.28,3.09,0,0-48.45,53-144.03,54.99,0,0-108.85-5.64-129.43-59.74,0,0,42.81-34.85,82.63-84.96Z"/><path class="l" d="m968.74,874.01s-63.05,55.75-123.45,33.19c0,0-37.17,47.13-48.12,50.44,0,0,38.83,30.53,118.81,18.58,0,0,64.71-11.95,99.89-56.09,0,0,2.32-1,4.98,1.33,0,0,90.6,17.92,98.23-28.54,0,0-88.28,1.33-150.34-18.92Z"/><ellipse class="j" cx="474.7" cy="755.71" rx="423.99" ry="391.16"/><ellipse class="w" cx="474.7" cy="755.71" rx="388.01" ry="357.97"/><path class="p" d="m158.88,893.48s4.28,11.64,25.54,36.74c6.85,8.08,10.31,18.65,9.03,29.16-1.17,9.58-6.07,19.26-20.52,21.35,0,0-136.1-136.06-66.76-337.3,0,0,24.4-81.2,97.43-143.61,0,0,39.87,3.73,1.56,35.74,0,0-149.41,141.85-46.28,357.92Z"/><path class="t" d="m846.28,652.31s76.45,188.6-89.7,354.74c0,0-169.16,180.34-437.91,76.5-23.76-8.18-59.44-30.1-59.44-30.1,0,0,2.74-64.54,52.34-48.43,0,0,238.63,83.01,369.06-28.17,0,0,124.18-101.9,125.16-278.6,0,0-5.04-47.54,40.49-45.93Z"/><circle class="j" cx="355.56" cy="679.03" r="54.88"/><circle class="n" cx="343.79" cy="655.66" r="20.79"/><circle class="j" cx="638.83" cy="658.23" r="54.88"/><circle class="n" cx="628.52" cy="632.9" r="20.79"/><path class="j" d="m591.32,787.82s-67.89,66.86-180.53,20.94c0,0-36.76-9.25-18.63,33.3,0,0,37.95,52.77,106.96,49.06,0,0,88.1-2.43,116.19-72.94,0,0,13.82-46.11-23.98-30.36Z"/><path class="j" d="m477.22,287.52c.61,10.86,1.15,35.25-4.36,54.54-2.21,7.73-9.86,12.54-17.83,11.47-15.28-2.06-46.88-2.25-103.37,13.14-10.58,2.89-20.81,6.96-30.55,12.01-16.75,8.67-53.12,23.02-105.58,19.43-.51-.03-1.02-.03-1.53,0-1.68.11-6.09.31-11.45-.16-7.88-.69-14.44,5.92-13.52,13.78.55,4.72,1.87,10.56,4.52,17.64.87,2.31,2.26,4.41,4.06,6.1,12.49,11.76,67.24,58.7,139.15,52.12,14.21-1.3,19.22,18.29,6.04,23.76-.01,0-.02,0-.03.01-2.68,1.11-5.07,2.85-6.85,5.14-4.87,6.25-11.66,19.27,3.36,31.27.34.27.68.56.98.86,4.19,4.21,44.07,40.73,137.34,10,0,0,53.66-17.6,75.51-66.3,3.56-7.94,12.88-11.5,20.94-8.22,25.01,10.16,77.04,25.38,131.31,5.53.46-.17.91-.31,1.39-.44,6.27-1.63,57.49-16.33,81.64-67.08.34-.72.74-1.42,1.19-2.09,3.5-5.2,7.55-31.37-24.83-21.84-.64.19-1.3.32-1.93.54-7.6,2.6-61.91,19.6-104.48-9.74-.63-.43-1.22-.92-1.78-1.43-4.17-3.76-29.35-22.43-110.56-13.57-.42.05-.83.07-1.25.07-.26,0-.62,0-1.05.03-7.12.4-13.07-4.91-13.23-12.05-.36-15.89-1.35-41.06-3.99-70.94-.14-1.53-.47-3.04-1.05-4.46-2.31-5.76-9.84-18.75-30.32-16.99,0,0-3.49.37-7.43,1.79-6.66,2.4-10.83,9.02-10.44,16.08Z"/><path class="s" d="m476.6,423.22s-29.03-13.76-51.12,21.66c0,0-12.48,52.64-57.08,79.18,0,0,3.02,6.3,22.52,10.66,0,0,84.78,18.56,122.6-41.98,0,0,33.4-44.88-4.48-67.09,0,0-20.15,38.16-40.57,48.23,0,0-15.63,10.17-7.02-8.96,0,0,19.2-27.13,15.13-41.69Z"/><path class="s" d="m552.5,407.28s19.24,15.28,16.81,39.3c0,0,109.82,68.27,177.42-16.64,0,0-43.34,5.9-80.77-11.85,0,0-83.08-37.38-113.46-10.81Z"/><path class="s" d="m433.77,383.86s-25.3,19.28-44.36,42.47c-8.34,10.15-18.87,18.28-30.85,23.65-26.91,12.05-74.63,24.24-117.98-11.69,0,0-19.47-14.69-11.4-14.5,0,0,37.33-.49,68.73-10.52,5.69-1.82,11.15-4.3,16.34-7.26,12.03-6.84,60.36-34.4,113.31-30.71,0,0,15.64.51,6.23,8.56Z"/><path class="s" d="m515.6,389.94c-.66-14.15-4.78-43.08-3.55-75.82.01-.27-.11-.53-.12-.8-.14-4.11,1.12-37.48-17.44-27.12-1.4.78-2.32,2.15-2.09,3.7,1.56,10.87-4.68,75.94-23.43,92.9-2.32,2.1-.21,5.95,2.95,5.77,10.23-.58,26.69-.46,38.57,4.71,2.47,1.07,5.23-.7,5.11-3.34Z"/><path class="r" d="m516.61,431.18s9.36,41.09-74.37,95.93c0,0-6.77,8.08,5.52,7.88,0,0,42.69,0,71.57-50.3,0,0,20.95-30.53-2.72-53.51Z"/><path class="r" d="m569.31,446.58s82.92,52.7,147.48,10.3c0,0,22.53-13.39,29.94-27.07,0,0-1.41-2.91-18.97,3.92,0,0-64.25,42.29-158.44,12.85Z"/><path class="r" d="m433.77,383.86s16-14.65-23.79-2.46c0,0-41.58,69.9-113.63,67.35,0,0-16.66-1.97-22.18,8.58,0,0,49.18,18.07,100.07-15.8,0,0,40.05-37.6,59.53-57.66Z"/><path class="j" d="m370.89,391.69c-4.13.72-7.97,2.56-11.19,5.25-6.09,5.09-18.3,14.53-32.76,21.6,0,0-18.87,10.17-18.87,13.64,0,0,36.17-12.25,66.74-34.98,0,0,9.26-7.81-3.92-5.52Z"/><path class="j" d="m606.79,417.15c4.18-.3,8.36.57,12.13,2.4,7.14,3.47,21.26,9.69,37,13.07,0,0,20.77,5.33,21.6,8.69,0,0-38.05-3.17-73.21-17.86,0,0-10.87-5.35,2.47-6.3Z"/><path class="r" d="m512.08,315.48c-.31,7.96,1.11,48.97,3.3,70.77,0,0,3.48,12.08-10.6,5.02,0,0-3.95-1.85-12.98-2.38,0,0,17.34-54.63,9.75-104.64,0,0,11.82-1.53,10.53,31.23Z"/><path class="j" d="m181.42,132.09S58.03,110.97,15.5,236.65c0,0-25.23,72.18,52.15,129.04,0,0,45.54,31.2,100.71,12.85l39.32,121.13s229.11,0,385-82.05c-17.94-66.92-27.64-111.07-27.64-111.07,0,0,78.71-12.96,86.79-99.24,3.58-38.24-8.73-76.55-35.57-104.03-18.39-18.83-46.14-36.04-87.35-40.19,0,0-39.88-6.36-86.42,21.88,0,0-56.1-60.85-139.68-42.12,0,0-82.13,11.33-121.39,89.23Z"/><path class="n" d="m423.01,115.33c-13.79-20.81-46.34-52.35-113.36-41-.54.09-1.09.16-1.64.2-7.47.52-69.92,7.1-97.04,81.35-3.05,8.35-11.91,13.03-20.56,10.99-29.79-7-105.41-3.97-138.83,59.51,0,0-40.02,101.73,78.64,114.98,1.21.29,2.45.45,3.69.49,9.32.25,47.65-1.05,67.27-37.37,3.23-5.98,2.6-13.32-1.48-18.76-5.43-7.26-12.97-19.36-17.19-35.01-2.14-7.95,1.37-16.33,8.61-20.24l.26-.14c8.61-4.64,19.27-1.34,23.93,7.27,10.44,19.26,35,49.77,88.48,59.51,0,0,90.98,15.76,133.56-66.03.15-.29.3-.56.47-.84,1.45-2.41,9.73-17.03,11.7-40.44.72-8.59,7.41-15.46,15.99-16.23l.25-.02c10.17-.91,18.93,6.98,19.18,17.19.25,10.12-.53,22.88-4.48,34.44-2.49,7.31-.17,15.42,6.05,20,17.16,12.64,52.61,30.91,92.43,5.78,0,0,57.75-33.35,23.44-105.84-3.95-8.35-9.5-15.84-16.37-22.01-16.3-14.65-50.36-36.2-99.25-21.17-.49.15-.99.28-1.49.39-3.12.65-17.4,4.17-37.86,17.91-8.09,5.43-19.06,3.23-24.44-4.89Z"/><path class="n" d="m243.63,325.86l-37.28,40.19,26.32,88.47s207.72,5.89,310.51-68.59l-16.28-79.97s-39.02-2.05-66.11-28.59c0,0-39.78,53.79-96.91,63.07,0,0-52.69,17.47-120.24-14.58Z"/><path class="k" d="m572.02,112.43s22.01,66.21-21.5,90.42c0,0-29.07,22.22-66.22,4.6,0,0-1.4,15.99-8.67,28.38,9.33,8.84,54.94,51.23,108.62,11.35,0,0,46.33-30.29,22.94-92.3,0,0-7.98-26.97-35.18-42.45Z"/><path class="k" d="m450.47,185.44l-22.95.68s-17.82,85.16-137.47,81.51c0,0,22.02,17.27,19.22,30.12,0,0,66.72,10.73,111.19-41.57,0,0,27.32-26.48,30.01-70.75Z"/><path class="k" d="m182.18,249.06s5.48,19.62,19.41,39.22c3.28,4.61,3.85,10.71,1.22,15.72-17.25,32.75-74.83,60.27-133.03,15.24,0,0-5.11-5.38,1.19-10.25l9.89-3.97c2.29-.92,4.89-.72,6.98.6,5.96,3.78,21.73,10.08,52.49-.07,8.06-2.66,14.98-7.97,19.79-14.97,7.35-10.7,18.07-27.76,22.07-41.51Z"/><path class="k" d="m290.05,341.48s101.46,26.09,170.73-64.11c0,0,19.25,21.29,66.11,28.59l16.28,79.97s-24.15,18.75-54.35,29.23c0,0-21.18-42.42-35.5-96.14,0,0-92.39,55.16-163.27,22.46Z"/><path class="j" d="m940.21,695.98s-108.85,31.86-90.27,104.43c0,0,25.66,97.35,300.89,92.92s296.47-94.69,296.47-94.69c0,0,25.66-69.03-92.04-102.66,0,0-15.93-15.04-25.66-15.04,0,0-5.31-84.07-84.96-89.38,0,0-25.66-58.41-106.2-60.18,0,0-96.46-2.65-125.67,92.04,0,0-61.06,17.7-72.57,72.57Z"/><path class="q" d="m925.16,736.47s-76.99,22.57-32.52,71.02c0,0,52.43,58.41,290.71,55.75,0,0,240.27-9.29,236.29-91.6,0,0-11.95-25.22-44.47-35.18,0,0,19.25,63.05-100.89,80.98,0,0-176.55,14.6-302-13.27,0,0-46.46-6.64-47.13-67.7Z"/><path class="o" d="m1209.46,634.52s22.57,5.75,29.2,8.85c0,0-7.52-66.37-78.76-83.63,0,0-79.65-18.14-117.26,55.75,0,0,24.34-3.98,33.19-.44,0,0,27.43-37.61,70.8-33.19,0,0,50.44,5.75,62.83,52.66Z"/><path class="o" d="m1106.8,664.57l-17.26,15.49s-27.43-30.53-81.86,5.31c0,0-48.23,36.28-8.85,93.81,0,0-23.89-2.65-38.5-20.8,0,0-17.26-71.24,43.36-101.77,0,0,62.83-34.51,103.1,7.96Z"/><path class="o" d="m1077.16,698.19s-41.83-18.82-68.55,19.17c-1.64,2.33-2.77,5.01-3.26,7.82-.69,3.99-1.13,9.88,1.01,14.15,0,0,21.76-3.41,37.49-13.79,2.46-1.62,5-3.1,7.59-4.5,14.63-7.92,25.71-22.86,25.71-22.86Z"/><path class="o" d="m1096.63,624.74s34.07,15.49,32.74,20.35c0,0,32.74-13.72,53.98-10.18,0,0-.07-22.57-43.36-30.09,0,0-30.97-1.33-43.36,19.91Z"/><path class="o" d="m1032.44,757.05s-11.92.44-9.71,7.52c0,0,1.33,11.5,29.2,11.5,0,0,37.17-9.73,57.08-39.6,0,0,32.74-50.66,84.96-49.34,0,0,57.97,2.65,77.88,52.21,0,0,6.19,19.47,26.55,12.39,0,0,9.29-3.54,0-12.39,0,0-11.06-53.98-76.11-71.24,0,0-55.75-19.03-99.12,12.39,0,0-15.49,10.18-21.68,24.78,0,0-23.95,36.28-69.06,51.77Z"/><path class="o" d="m1071.85,792.89l43.36,3.54s21.81-13.99,28.92-25.7c.88-1.44,1.93-2.77,3.03-4.04,7.14-8.21,29.71-31.86,51.68-30.21,0,0,34.96,3.76,33.19,45.36,0,0,21.68-2.65,30.09,5.31,0,0,69.03,0,80.09-30.53,0,0,16.81-22.57-31.42-54.87l7.96,19.47s18.58,15.04,13.72,30.09c0,0-9.73,35.4-67.26,22.57,0,0-6.19-.44-4.87-4.87,0,0,1.33-38.01-57.08-57.72,0,0-36.73-10.42-71.68,28.07,0,0-14.88,16.79-19.13,24.5-.69,1.25-1.64,2.32-2.75,3.22-6.03,4.89-24.67,19.6-37.86,25.83Z"/><path class="o" d="m1260.35,654.39s30.09,15.93,38.05,28.76c0,0,4.87-18.14-11.95-42.48,0,0-11.95-13.72-28.32-18.58,0,0,4.42,20.8,2.21,32.3Z"/><path class="v" d="m1163.29,774.87c-.45.65-.98,1.25-1.65,1.68-1.65,1.07-4.66,3.93.86,8.37,0,0,34.04,20.26,50.95,0,0,0,5.31-11.5,0-18.14,0,0-13.72-15.04-30.09-7.08,0,0-13.21,5.32-20.07,15.17Z"/><path class="v" d="m1299.18,683.7s3.65-23.89-12.61-41.15l-25.22,12.94s17.26,5.97,37.83,28.21Z"/><path class="v" d="m1132.28,645.98c5.09-2.66,28.28-13.88,51.74-10.07,0,0-.53-12.54-12.48-19.18l-45.6,15.03s-9.29,2.16-13.27-4.81c0,0,7.48-14.25,8.15-19.55,0,0-16.44,3.85-24.19,17.34,0,0,7.12,2.17,33.63,21.08.59.42,1.38.49,2.02.16Z"/><path class="v" d="m1058.69,613.76s.21-12.25,9.41-20.86c.49-.46.95-.96,1.33-1.51,1.86-2.67,8.04-11.46,15.23-20.59,0,0-18.68,8.58-31.07,26.83,0,0-9.62,11.5-10.95,18.14,0,0,8.53-1.4,16.04-2.02Z"/><path class="v" d="m1040.97,753.77l.86,21.7s-14.34.18-18.77-9.8c0,0-6.85-8.96,17.91-11.9Z"/><path class="v" d="m1016.39,737.13s-5.86-19.09,3.49-32.03c0,0-11.65,9.14-13.34,16.03,0,0-4.28,7.05-.18,18.22,0,0,5.21-.28,10.04-2.22Z"/><path class="v" d="m1310.79,701.73s6.32,15.46,7.96,21.3c0,0,14.16,8.68,14.27,23.39,0,0-3.98,27.1-38.16,29.23,0,0-28.21,2.3-34.85-6l-14.96,11.9s7.7-.14,15.98,4.95c.57.35,1.12.69,1.78.75,6.58.56,41.67.44,66.49-15.54,0,0,24.07-13.12,13.2-37.11,0,0-4.29-16.49-31.72-32.87Z"/><path class="k" d="m1375.41,736.47s29.35,7.28,43.89,34.51c0,0-2.3,11.51-23.09,6.2,0,0-15.04,32.74-59.29,21.68,0,0,45.12-21.26,38.5-62.39Z"/><ellipse class="n" cx="193.35" cy="613.04" rx="37.38" ry="19.86" transform="translate(-434.23 473.96) rotate(-60)"/><path class="u" d="m882.52,912.68s36.44-3.11,70.44-26.57l39.15,27.92s-39.15,37.77-93.42,47.99c0,0-23.72,8-41.06-1.7,0,0,18.32-25.3,24.89-47.63Z"/></svg>