<svg width="83" height="79" viewBox="0 0 83 79" fill="none" xmlns="http://www.w3.org/2000/svg">
<path fill-rule="evenodd" clip-rule="evenodd" d="M40.1735 0.186955C48.0098 0.272507 55.8527 0.178011 62.9761 3.45993C70.8117 7.07004 79.8951 11.4308 82.4972 19.6867C85.1004 27.9458 76.7961 35.6452 75.8338 44.2543C74.8241 53.288 82.9 64.2731 76.7667 70.9569C70.5683 77.7117 58.9519 70.98 49.93 72.4833C42.4195 73.7347 36.1249 79.1436 28.5131 78.9971C19.435 78.8223 8.49511 78.7355 2.86801 71.577C-2.78356 64.3874 1.68685 53.8435 1.54028 44.6837C1.41471 36.8366 -0.664299 28.9745 2.06868 21.6222C4.90924 13.9804 9.96543 6.94397 17.0503 2.95853C23.9631 -0.930175 32.2511 0.100462 40.1735 0.186955Z" fill="#B3DEE5"/>
<path fill-rule="evenodd" clip-rule="evenodd" d="M29 25C27.6739 25 26.4022 25.5268 25.4645 26.4645C24.5268 27.4021 24 28.6739 24 30V50C24 51.3261 24.5268 52.5979 25.4645 53.5355C26.4022 54.4732 27.6739 55 29 55H49C50.3261 55 51.5979 54.4732 52.5356 53.5355C53.4732 52.5979 54 51.3261 54 50V30C54 28.6739 53.4732 27.4021 52.5356 26.4645C51.5979 25.5268 50.3261 25 49 25H29ZM35.6667 33.3333C35.6667 32.8913 35.8423 32.4674 36.1549 32.1548C36.4674 31.8423 36.8913 31.6667 37.3334 31.6667H47.3334C47.7754 31.6667 48.1993 31.8423 48.5119 32.1548C48.8244 32.4674 49 32.8913 49 33.3333C49 33.7754 48.8244 34.1993 48.5119 34.5118C48.1993 34.8244 47.7754 35 47.3334 35H37.3334C36.8913 35 36.4674 34.8244 36.1549 34.5118C35.8423 34.1993 35.6667 33.7754 35.6667 33.3333ZM35.6667 40C35.6667 39.558 35.8423 39.134 36.1549 38.8215C36.4674 38.5089 36.8913 38.3333 37.3334 38.3333H47.3334C47.7754 38.3333 48.1993 38.5089 48.5119 38.8215C48.8244 39.134 49 39.558 49 40C49 40.442 48.8244 40.8659 48.5119 41.1785C48.1993 41.4911 47.7754 41.6667 47.3334 41.6667H37.3334C36.8913 41.6667 36.4674 41.4911 36.1549 41.1785C35.8423 40.8659 35.6667 40.442 35.6667 40ZM35.6667 46.6667C35.6667 46.2246 35.8423 45.8007 36.1549 45.4882C36.4674 45.1756 36.8913 45 37.3334 45H47.3334C47.7754 45 48.1993 45.1756 48.5119 45.4882C48.8244 45.8007 49 46.2246 49 46.6667C49 47.1087 48.8244 47.5326 48.5119 47.8452C48.1993 48.1577 47.7754 48.3333 47.3334 48.3333H37.3334C36.8913 48.3333 36.4674 48.1577 36.1549 47.8452C35.8423 47.5326 35.6667 47.1087 35.6667 46.6667ZM30.6667 31.6667C30.2247 31.6667 29.8007 31.8423 29.4882 32.1548C29.1756 32.4674 29 32.8913 29 33.3333C29 33.7754 29.1756 34.1993 29.4882 34.5118C29.8007 34.8244 30.2247 35 30.6667 35C31.1087 35 31.5343 34.8244 31.8469 34.5118C32.1594 34.1993 32.335 33.7754 32.335 33.3333C32.335 32.8913 32.1594 32.4674 31.8469 32.1548C31.5343 31.8423 31.1087 31.6667 30.6667 31.6667ZM29 40C29 39.558 29.1756 39.134 29.4882 38.8215C29.8007 38.5089 30.2247 38.3333 30.6667 38.3333C31.1087 38.3333 31.5343 38.5089 31.8469 38.8215C32.1594 39.134 32.335 39.558 32.335 40C32.335 40.442 32.1594 40.8659 31.8469 41.1785C31.5343 41.4911 31.1104 41.6667 30.6684 41.6667C30.2263 41.6667 29.8007 41.4911 29.4882 41.1785C29.1756 40.8659 29 40.442 29 40ZM30.6667 45C30.2247 45 29.8007 45.1756 29.4882 45.4882C29.1756 45.8007 29 46.2246 29 46.6667C29 47.1087 29.1756 47.5326 29.4882 47.8452C29.8007 48.1577 30.2247 48.3333 30.6667 48.3333C31.1087 48.3333 31.5343 48.1577 31.8469 47.8452C32.1594 47.5326 32.335 47.1087 32.335 46.6667C32.335 46.2246 32.1594 45.8007 31.8469 45.4882C31.5343 45.1756 31.1087 45 30.6667 45Z" fill="#353535"/>
</svg>
