<svg width="85" height="86" viewBox="0 0 85 86" fill="none" xmlns="http://www.w3.org/2000/svg">
<path fill-rule="evenodd" clip-rule="evenodd" d="M38.929 0.0406839C47.7768 0.682465 52.9675 10.0316 59.6919 15.8204C65.4139 20.7462 71.3332 25.1231 75.4321 31.465C80.0705 38.6415 86.014 46.2823 84.8527 54.7491C83.6905 63.2216 76.0444 69.1415 69.5082 74.6527C63.7314 79.5236 56.914 82.6126 49.5932 84.4792C42.4852 86.2916 35.2847 86.411 28.046 85.2246C19.9753 83.9018 10.816 83.3399 5.3747 77.2317C-0.0772986 71.1115 -0.00986859 61.9409 0.00145036 53.7428C0.0115958 46.3946 2.74988 39.6795 5.43599 32.8403C8.27698 25.6069 10.5853 18.0975 16.1366 12.6611C22.4703 6.45849 30.0892 -0.600508 38.929 0.0406839Z" fill="#B3DEE5"/>
<path fill-rule="evenodd" clip-rule="evenodd" d="M46.3542 42.8125C46.0612 42.5199 45.6641 42.3555 45.25 42.3555C44.8359 42.3555 44.4388 42.5199 44.1458 42.8125L40.5625 46.3958V29.3333C40.5625 28.9189 40.3979 28.5215 40.1049 28.2285C39.8118 27.9354 39.4144 27.7708 39 27.7708C38.5856 27.7708 38.1882 27.9354 37.8952 28.2285C37.6021 28.5215 37.4375 28.9189 37.4375 29.3333V46.3958L33.8542 42.8125C33.558 42.5365 33.1662 42.3862 32.7614 42.3934C32.3566 42.4005 31.9704 42.5645 31.6841 42.8508C31.3979 43.137 31.2339 43.5233 31.2267 43.9281C31.2196 44.3329 31.3698 44.7246 31.6458 45.0208L37.8958 51.2708C38.1888 51.5634 38.5859 51.7278 39 51.7278C39.4141 51.7278 39.8112 51.5634 40.1042 51.2708L46.3542 45.0208C46.6468 44.7278 46.8111 44.3307 46.8111 43.9166C46.8111 43.5026 46.6468 43.1054 46.3542 42.8125Z" fill="#353535"/>
<path d="M50.975 46C50.0417 46 49.225 46.5708 48.5646 47.2312L42.3146 53.4812C41.8793 53.9165 41.3626 54.2618 40.7938 54.4974C40.2251 54.7329 39.6156 54.8542 39 54.8542C38.3844 54.8542 37.7749 54.7329 37.2062 54.4974C36.6375 54.2618 36.1207 53.9165 35.6854 53.4812L29.4354 47.2312C28.775 46.5708 27.9583 46 27.025 46H22.3333C22.3333 50.4203 24.0893 54.6595 27.2149 57.7851C30.3405 60.9107 34.5797 62.6666 39 62.6666C43.4203 62.6666 47.6595 60.9107 50.7851 57.7851C53.9107 54.6595 55.6667 50.4203 55.6667 46H50.975Z" fill="#353535"/>
</svg>
