<svg width="79" height="87" viewBox="0 0 79 87" fill="none" xmlns="http://www.w3.org/2000/svg">
<path fill-rule="evenodd" clip-rule="evenodd" d="M43.4792 2.02153C51.8243 0.0876017 61.6538 -1.803 68.6278 3.18156C75.6033 8.16716 76.784 18.1286 77.9236 26.64C78.8504 33.5623 74.4708 39.8917 74.4778 46.876C74.4866 55.63 81.5959 64.4033 77.9696 72.3668C74.3261 80.3681 64.9882 84.704 56.4101 86.5534C48.1007 88.3449 40.0553 84.2983 31.7873 82.3237C23.0094 80.2273 11.1714 82.2916 6.40544 74.6108C1.45479 66.6324 11.0478 56.5702 10.0125 47.2318C9.03186 38.3856 -2.90203 30.9592 0.662546 22.8073C4.20791 14.6993 16.8885 17.1884 24.8368 13.3299C31.509 10.0908 36.2563 3.6954 43.4792 2.02153Z" fill="#B3DEE5"/>
<path d="M30 31.6667C30 30.7826 30.3512 29.9348 30.9763 29.3096C31.6014 28.6845 32.4493 28.3333 33.3333 28.3333H36.6667C37.2733 28.3333 37.8433 28.495 38.3333 28.78C38.8401 28.4874 39.4149 28.3334 40 28.3333H43.3333C44.545 28.3333 45.6067 28.98 46.19 29.9483C46.54 29.6683 46.95 29.455 47.41 29.3317L50.63 28.47C51.0529 28.3566 51.4939 28.3276 51.928 28.3846C52.3621 28.4417 52.7806 28.5837 53.1598 28.8025C53.539 29.0213 53.8714 29.3127 54.1379 29.6601C54.4045 30.0074 54.6 30.4038 54.7133 30.8267L61.6133 56.585C61.7268 57.0079 61.7558 57.4489 61.6987 57.883C61.6417 58.3171 61.4997 58.7356 61.2808 59.1148C61.062 59.494 60.7706 59.8264 60.4233 60.0929C60.076 60.3595 59.6796 60.555 59.2567 60.6683L56.0367 61.53C55.6138 61.6434 55.1728 61.6724 54.7387 61.6154C54.3046 61.5583 53.886 61.4163 53.5068 61.1975C53.1277 60.9786 52.7953 60.6873 52.5287 60.3399C52.2622 59.9926 52.0667 59.5962 51.9533 59.1733L46.6667 39.4383V58.3333C46.6667 59.2174 46.3155 60.0652 45.6904 60.6904C45.0652 61.3155 44.2174 61.6667 43.3333 61.6667H40C39.4149 61.6666 38.8401 61.5126 38.3333 61.22C37.8266 61.5126 37.2518 61.6666 36.6667 61.6667H33.3333C32.4493 61.6667 31.6014 61.3155 30.9763 60.6904C30.3512 60.0652 30 59.2174 30 58.3333V31.6667Z" fill="#353535"/>
</svg>
