<?xml version="1.0" encoding="utf-8"?>
<!-- Generator: Adobe Illustrator 28.0.0, SVG Export Plug-In . SVG Version: 6.00 Build 0)  -->
<svg version="1.1" xmlns="http://www.w3.org/2000/svg" xmlns:xlink="http://www.w3.org/1999/xlink" x="0px" y="0px"
	 viewBox="0 0 1870 1084" style="enable-background:new 0 0 1870 1084;" xml:space="preserve">
<style type="text/css">
	.st0{fill:#132125;}
	.st1{fill:#EE3529;}
	.st2{fill:#FFFFFF;}
	.st3{fill:#B62125;}
	.st4{fill:#DC535A;}
	.st5{fill:#C3DAE3;}
	.st6{fill:#99CA41;}
	.st7{fill:#3E9C60;}
	.st8{fill:#EE4534;}
	.st9{fill:#132125;stroke:#132125;stroke-width:12;stroke-miterlimit:10;}
</style>
<g id="Template">
</g>
<g id="Tomato_00000056427284138669494280000001296800753530447523_">
</g>
<g id="Hat">
</g>
<g id="Leaves">
</g>
<g id="Layer_5">
	<g>
		<g>
			<ellipse class="st0" cx="434.239" cy="709.448" rx="378.396" ry="349.095"/>
			<ellipse class="st1" cx="434.239" cy="709.448" rx="346.289" ry="319.474"/>
			<path class="st2" d="M152.378,832.405c0,0,3.816,10.385,22.792,32.787c6.111,7.214,9.199,16.643,8.055,26.028
				c-1.042,8.552-5.42,17.187-18.317,19.05c0,0-121.462-121.426-59.581-301.027c0,0,21.776-72.465,86.956-128.172
				c0,0,35.585,3.326,1.394,31.896C193.677,512.968,60.332,639.563,152.378,832.405z"/>
			<path class="st3" d="M765.86,617.165c0,0,68.225,168.319-80.053,316.597c0,0-150.974,160.948-390.818,68.278
				c-21.205-7.304-53.045-26.866-53.045-26.866s2.447-57.596,46.708-43.226c0,0,212.967,74.084,329.372-25.145
				c0,0,110.83-90.94,111.698-248.643C729.722,658.16,725.222,615.731,765.86,617.165z"/>
			<path class="st4" d="M758.454,734.807c0,0,11.997-89.256-34.231-158.518c-1.417-9.348,3.364-20.324,9.262-27.713
				c0,0,79.15,109.931,35.526,248.454c-17.755,63.983-54.226,115.809-106.88,158.138c0,0-53.877,45.488-134.841,65.202
				c0,0-15.553-15.395,9.114-29.598C536.404,990.772,735.632,947.268,758.454,734.807z"/>
			<circle class="st0" cx="294.531" cy="661.867" r="48.977"/>
			<circle class="st0" cx="573.948" cy="663.621" r="48.977"/>
			<circle class="st2" cx="284.019" cy="641.01" r="18.557"/>
			<circle class="st2" cx="564.744" cy="641.01" r="18.557"/>
			<path class="st0" d="M515.485,768.399c0,0-67.058,52.29-162.199,0c0,0-31.635-11.977-19.944,27.602
				c0,0,28.215,50.685,89.775,54.489c0,0,78.35,6.904,110.504-52.71C533.621,797.78,550.612,758.323,515.485,768.399z"/>
			<g>
				<path class="st0" d="M188.569,114.694c0,0-110.123-18.853-148.08,93.319c0,0-22.514,64.421,46.544,115.169
					c0,0,40.646,27.847,89.883,11.465l35.09,108.109c0,0,212.113-66.026,343.598-73.224c-16.01-59.721-24.669-99.129-24.669-99.129
					s70.247-11.57,77.454-88.568c3.194-34.127-7.795-68.323-31.742-92.846c-16.413-16.808-41.176-32.161-77.955-35.867
					c0,0-35.595-5.673-77.128,19.525c0,0-50.067-54.304-124.659-37.587C296.904,35.058,223.607,45.167,188.569,114.694z"/>
				<path class="st2" d="M404.183,99.739c-12.308-18.572-41.353-46.724-101.167-36.594c-0.486,0.082-0.971,0.142-1.463,0.177
					c-6.664,0.468-62.403,6.336-86.608,72.598c-2.722,7.451-10.63,11.626-18.352,9.811c-26.589-6.251-94.075-3.543-123.898,53.112
					c0,0-35.715,90.79,70.188,102.615c1.08,0.261,2.187,0.405,3.297,0.434c8.318,0.22,42.531-0.941,60.041-33.352
					c2.885-5.341,2.318-11.884-1.318-16.745c-4.844-6.476-11.572-17.283-15.339-31.244c-1.913-7.091,1.221-14.577,7.686-18.063
					l0.236-0.128c7.684-4.144,17.197-1.192,21.357,6.484c9.315,17.189,31.241,44.42,78.966,53.11c0,0,81.193,14.062,119.196-58.932
					c0.133-0.255,0.27-0.501,0.418-0.747c1.295-2.149,8.679-15.198,10.44-36.09c0.646-7.663,6.612-13.798,14.271-14.484l0.223-0.02
					c9.076-0.813,16.896,6.233,17.121,15.342c0.224,9.033-0.474,20.418-3.996,30.741c-2.226,6.523-0.147,13.765,5.401,17.853
					c15.312,11.284,46.956,27.586,82.492,5.163c0,0,51.536-29.763,20.921-94.457c-3.524-7.448-8.482-14.139-14.61-19.646
					c-14.551-13.076-44.944-32.31-88.578-18.898c-0.44,0.135-0.88,0.252-1.331,0.345c-2.787,0.577-15.528,3.723-33.785,15.98
					C418.778,108.947,408.984,106.984,404.183,99.739z"/>
				<path class="st2" d="M244.087,287.627l-33.275,35.872l23.489,78.953c0,0,206.929-52.901,277.119-61.218l-14.527-71.367
					c0,0-34.826-1.83-59.002-25.516c0,0-35.5,48.005-86.493,56.289C351.398,300.641,304.377,316.235,244.087,287.627z"/>
				<path class="st5" d="M537.163,97.148c0,0,19.644,59.088-19.184,80.699c0,0-25.946,19.827-59.098,4.103
					c0,0-1.251,14.266-7.737,25.331c8.325,7.891,49.034,45.721,96.941,10.13c0,0,41.349-27.033,20.474-82.378
					C568.56,135.034,561.442,110.96,537.163,97.148z"/>
				<path class="st5" d="M428.686,162.306l-20.479,0.608c0,0-15.908,76.003-122.69,72.748c0,0,19.655,15.411,17.149,26.88
					c0,0,59.55,9.575,99.234-37.098C401.899,225.444,426.278,201.816,428.686,162.306z"/>
				<path class="st5" d="M189.246,219.088c0,0,4.888,17.508,17.323,35c2.925,4.115,3.44,9.561,1.087,14.028
					c-15.397,29.233-66.781,53.788-118.727,13.599c0,0-4.559-4.799,1.06-9.15l8.829-3.546c2.044-0.821,4.367-0.646,6.227,0.534
					c5.32,3.376,19.391,8.996,46.843-0.062c7.196-2.374,13.372-7.111,17.663-13.356C176.11,246.587,185.679,231.356,189.246,219.088
					z"/>
				<path class="st5" d="M285.516,301.571c0,0,90.553,23.289,152.375-57.219c0,0,17.179,19,59.002,25.516l14.527,71.367
					c0,0-33.303,3.998-53.698,9.278c0,0-13.716-21.053-26.492-68.99C431.23,281.522,348.777,330.755,285.516,301.571z"/>
			</g>
			<path class="st0" d="M436.482,291.599c0.54,9.694,1.029,31.461-3.892,48.672c-1.973,6.901-8.798,11.192-15.911,10.233
				c-13.64-1.839-41.843-2.011-92.253,11.731c-9.446,2.575-18.57,6.215-27.265,10.715c-14.952,7.74-47.412,20.541-94.23,17.339
				c-0.453-0.031-0.914-0.031-1.367-0.002c-1.498,0.098-5.433,0.274-10.215-0.144c-7.037-0.615-12.885,5.285-12.069,12.302
				c0.49,4.211,1.669,9.427,4.038,15.741c0.775,2.065,2.019,3.932,3.625,5.443c11.144,10.494,60.008,52.392,124.183,46.514
				c12.686-1.162,17.154,16.323,5.389,21.21c-0.01,0.004-0.02,0.008-0.03,0.013c-2.394,0.994-4.524,2.54-6.117,4.586
				c-4.344,5.579-10.404,17.198,2.996,27.903c0.304,0.243,0.603,0.496,0.877,0.771c3.743,3.756,39.335,36.352,122.569,8.921
				c0,0,47.891-15.705,67.392-59.167c3.181-7.089,11.493-10.259,18.692-7.336c22.322,9.065,68.753,22.653,117.194,4.933
				c0.409-0.15,0.815-0.28,1.237-0.389c5.597-1.456,51.304-14.574,72.862-59.864c0.308-0.647,0.658-1.269,1.058-1.863
				c3.125-4.638,6.739-28.001-22.159-19.489c-0.568,0.167-1.163,0.286-1.724,0.478c-6.784,2.321-55.251,17.496-93.245-8.694
				c-0.562-0.387-1.086-0.82-1.593-1.277c-3.721-3.355-26.197-20.019-98.675-12.115c-0.371,0.04-0.743,0.064-1.116,0.063
				c-0.234,0-0.553,0.005-0.939,0.027c-6.357,0.353-11.662-4.386-11.807-10.751c-0.324-14.185-1.204-36.646-3.561-63.31
				c-0.121-1.364-0.424-2.713-0.933-3.983c-2.062-5.142-8.779-16.737-27.063-15.163c0,0-3.114,0.328-6.634,1.598
				C439.855,279.388,436.131,285.292,436.482,291.599z"/>
			<path class="st6" d="M435.928,412.713c0,0-25.911-12.278-45.622,19.333c0,0-11.135,46.977-50.94,70.663
				c0,0,2.692,5.621,20.101,9.509c0,0,75.667,16.569,109.417-37.469c0,0,29.805-40.058-3.994-59.874
				c0,0-17.983,34.053-36.204,43.046c0,0-13.947,9.078-6.264-7.997C422.422,449.924,439.557,425.713,435.928,412.713z"/>
			<path class="st6" d="M503.669,398.486c0,0,17.174,13.638,15.001,35.072c0,0,98.008,60.933,158.339-14.854
				c0,0-38.68,5.268-72.084-10.573C604.925,408.131,530.777,374.773,503.669,398.486z"/>
			<path class="st6" d="M397.71,377.579c0,0-22.581,17.205-39.594,37.906c-7.442,9.055-16.838,16.317-27.535,21.109
				c-24.019,10.758-66.604,21.63-105.297-10.433c0,0-17.373-13.111-10.176-12.944c0,0,33.318-0.434,61.336-9.39
				c5.082-1.625,9.95-3.84,14.587-6.479c10.732-6.108,53.87-30.705,101.123-27.404C392.152,369.944,406.113,370.401,397.71,377.579z
				"/>
			<path class="st6" d="M470.741,383.014c-0.588-12.632-4.269-38.449-3.172-67.67c0.009-0.242-0.1-0.472-0.109-0.714
				c-0.128-3.67,0.999-33.454-15.565-24.203c-1.247,0.697-2.067,1.916-1.868,3.301c1.395,9.705-4.179,67.777-20.908,82.911
				c-2.072,1.874-0.187,5.31,2.634,5.151c9.133-0.516,23.818-0.414,34.427,4.203C468.384,386.95,470.851,385.365,470.741,383.014z"
				/>
			<path class="st7" d="M471.639,419.813c0,0,8.355,36.668-66.371,85.615c0,0-6.039,7.21,4.926,7.033
				c0,0,38.103,0.003,63.876-44.893C474.07,467.568,492.765,440.325,471.639,419.813z"/>
			<path class="st7" d="M518.67,433.558c0,0,74.002,47.036,131.618,9.197c0,0,20.109-11.947,26.721-24.156
				c0,0-1.258-2.599-16.933,3.495C660.076,422.094,602.736,459.84,518.67,433.558z"/>
			<path class="st7" d="M397.71,377.579c0,0,14.277-13.074-21.233-2.197c0,0-37.11,62.381-101.409,60.105
				c0,0-14.867-1.762-19.792,7.653c0,0,43.895,16.123,89.306-14.104C344.581,429.037,380.326,395.479,397.71,377.579z"/>
			<path class="st0" d="M341.587,384.569c-3.688,0.642-7.116,2.289-9.988,4.689c-5.436,4.543-16.332,12.966-29.24,19.279
				c0,0-16.842,9.081-16.842,12.174c0,0,32.278-10.931,59.567-31.217C345.084,389.495,353.345,382.521,341.587,384.569z"/>
			<path class="st0" d="M552.118,407.293c3.734-0.265,7.458,0.506,10.824,2.143c6.371,3.098,18.975,8.648,33.025,11.663
				c0,0,18.535,4.753,19.28,7.756c0,0-33.961-2.829-65.335-15.939C549.912,412.916,540.213,408.139,552.118,407.293z"/>
			<path class="st7" d="M467.594,316.556c-0.279,7.104,0.994,43.706,2.949,63.158c0,0,3.108,10.784-9.461,4.478
				c0,0-3.526-1.651-11.588-2.121c0,0,15.48-48.759,8.7-93.392C458.193,288.68,468.742,287.319,467.594,316.556z"/>
		</g>
		<g>
			<g>
				<g>
					<path class="st9" d="M938.305,468.857c0.081,0.839,0.193,1.69,0.342,2.553c2.27,13.165,12.556,23.291,25.269,27.396
						c8.004,2.585,18.795,4.049,31.666,0.907c13.981-3.413,26.089-11.98,35.102-23.2c16.775-20.884,43.76-74.441,23.019-129.536
						c0,0-30.527-100.016-163.711-72.277c0,0-197.586,45.249-185.705,219.965c2.149,31.598,13.37,62.078,32.861,87.04
						c20.24,25.922,54.419,57.924,110.175,82.244c0,0,94.047,47.023,108.85,98.401c0,0,31.933,61.784-35.602,113.452
						c-15.945,12.198-34.252,20.896-53.534,26.483c-36.941,10.704-104.704,22.353-127.693-26.731c0,0-11.336-21.862,12.059-43.725
						c2.495-2.331,4.91-4.752,6.94-7.498c7.181-9.717,19.2-31.596-1.065-49.614c-6.818-6.062-15.327-9.985-24.313-11.555
						c-19.721-3.445-57.038-0.588-68.51,65.368c0,0-15.506,103.098,72.277,141.941c0,0,114.679,58.905,246.809-50.834
						c0,0,45.957-41.776,56.192-99.944c13.147-74.719-20.522-149.838-83.269-192.484c-14.465-9.831-31.678-20.01-52.097-30.07
						c-23.075-11.369-55.417-25.981-74.508-43.221c-30.074-27.157-50.009-66.757-37.553-109.394c0,0,23.67-81.002,132.52-93.193
						c0,0,39.246-6.405,51.377,21.77c0,0,13.633,28.067-26.822,67.271C941.719,447.795,937.284,458.24,938.305,468.857z"/>
					<path class="st9" d="M934.214,269.839c95.933,0.007,119.488,77.138,119.488,77.138c20.741,55.095-6.243,108.652-23.019,129.536
						c-9.013,11.22-21.12,19.787-35.102,23.2c-5.179,1.264-10.02,1.783-14.479,1.783c-6.624,0-12.404-1.145-17.187-2.69
						c-12.713-4.106-22.998-14.231-25.269-27.396c-0.149-0.863-0.262-1.715-0.342-2.553c-1.021-10.617,3.414-21.062,11.074-28.485
						c40.455-39.204,26.822-67.271,26.822-67.271c-8.34-19.37-29.494-22.396-41.902-22.396c-5.64,0-9.476,0.626-9.476,0.626
						c-108.85,12.191-132.52,93.193-132.52,93.193c-12.455,42.637,7.48,82.238,37.553,109.395
						c19.092,17.24,51.433,31.852,74.508,43.221c20.419,10.06,37.631,20.239,52.096,30.07
						c62.747,42.646,96.417,117.765,83.269,192.484c-10.235,58.167-56.192,99.944-56.192,99.944
						c-63.726,52.927-123.383,66.623-168.083,66.623c-47.981,0-78.726-15.789-78.726-15.789
						c-87.782-38.842-72.277-141.941-72.277-141.941c9.646-55.461,37.564-66.306,57.931-66.305c3.854,0,7.441,0.389,10.579,0.937
						c8.987,1.57,17.495,5.493,24.313,11.555c20.265,18.018,8.246,39.897,1.065,49.614c-2.03,2.746-4.445,5.167-6.94,7.498
						c-23.395,21.862-12.059,43.725-12.059,43.725c13.053,27.87,40.541,36.159,68.627,36.159c21.377,0,43.101-4.803,59.066-9.429
						c19.282-5.587,37.59-14.285,53.534-26.483c67.536-51.668,35.602-113.452,35.602-113.452
						c-14.804-51.377-108.85-98.401-108.85-98.401c-55.756-24.32-89.935-56.321-110.175-82.244
						c-19.491-24.963-30.712-55.443-32.861-87.04C692.405,319.949,889.991,274.7,889.991,274.7
						C906.216,271.321,920.905,269.838,934.214,269.839 M934.215,246.905L934.215,246.905c-15.419-0.001-31.871,1.797-48.901,5.343
						l-0.222,0.046l-0.221,0.051c-2.193,0.502-54.284,12.703-105.238,47.96c-69.698,48.227-103.665,115.973-98.229,195.916
						c2.503,36.805,15.527,71.245,37.666,99.598c12.873,16.487,28.22,31.826,45.613,45.592
						c21.339,16.888,45.841,31.448,72.839,43.283c3.311,1.698,24.046,12.525,45.805,28.182
						c28.248,20.325,46.291,40.15,50.807,55.823l0.697,2.42l0.91,1.657c0.594,1.284,5.718,12.856,4.964,28.225
						c-1.032,21.041-12.495,40.079-34.071,56.586c-13.048,9.983-28.519,17.61-45.982,22.67c-13.418,3.888-33.451,8.523-52.683,8.523
						c-37.108,0-45.199-17.276-47.858-22.953l-0.055-0.118c-0.933-2.443-1.952-8.754,7.004-17.123
						c2.994-2.797,6.49-6.247,9.725-10.624c5.24-7.09,11.92-18.372,13.986-31.851c2.809-18.332-3.674-35.568-18.255-48.532
						c-9.878-8.783-22.19-14.664-35.605-17.008c-4.858-0.849-9.744-1.279-14.524-1.279c-18.336-0.001-35.044,6.303-48.316,18.23
						c-16.157,14.52-26.994,37.089-32.211,67.079l-0.045,0.259l-0.039,0.26c-0.185,1.229-4.435,30.497,3.557,64.992
						c10.939,47.216,39.176,82.177,81.678,101.137c5.525,2.683,39.131,17.947,88.446,17.947c28.305,0,56.746-4.969,84.534-14.77
						c33.903-11.957,66.942-31.183,98.201-57.145l0.394-0.328l0.379-0.345c2.113-1.921,51.89-47.799,63.352-112.94
						c14.535-82.605-21.956-167.165-92.965-215.426c-16.502-11.216-34.957-21.873-54.852-31.675
						c-2.851-1.405-5.842-2.859-8.932-4.36c-20.493-9.96-45.997-22.356-60.342-35.309c-13.311-12.02-42.948-44.422-30.952-85.797
						c0.321-0.988,5.872-17.543,21.994-34.877c21.972-23.626,52.625-37.791,91.107-42.101l0.744-0.083l0.322-0.06
						c0.481-0.064,2.736-0.34,5.857-0.34c7.79,0,17.696,1.465,20.789,8.421c0.206,0.752,0.962,4.169-0.427,9.848
						c-1.667,6.82-6.706,17.907-21.243,31.995c-13.066,12.662-19.606,29.847-17.942,47.149c0.136,1.417,0.328,2.849,0.57,4.254
						c3.621,20.996,19.263,38.362,40.821,45.325c7.806,2.521,15.96,3.799,24.235,3.799c6.592,0,13.293-0.82,19.917-2.437
						c18.348-4.478,34.788-15.239,47.543-31.117c21.136-26.313,50.481-87.746,26.806-151.435
						c-1.607-4.878-9.259-25.744-28.619-46.624C1027.331,271.874,992.044,246.909,934.215,246.905L934.215,246.905z"/>
				</g>
				<g>
					<path class="st9" d="M1208.579,919.387c0,0-22.613,15.876-41.772,5.871c-6.047-3.158-8.821-10.871-9.027-17.689
						c-0.102-3.361,2.162-8.282,3.966-9.895c0,0,27.674-29.377,69.398-48.11c0,0,6.144-3.651,11.551,0.404
						c2.364,1.773,3.676,4.616,3.806,7.568C1246.891,866.392,1244.011,890.204,1208.579,919.387z M1361.85,755.046
						c0,0-1.703,7.664-10.644,9.792c0,0-16.179,7.238-23.417,8.089c0,0-8.089,1.703-2.129-11.069c0,0,8.941-51.942,29.803-79.19
						c0,0,4.257-10.644,6.386-3.832V755.046z M1446.149,624.553 M1430.183,707.575 M1590.283,620.902
						c4.948,6.339,26.868,30.94,65.337,25.365c0,0,53.685-9.761,87.833-52.581c13.441-16.854,20.522-38.077,18.812-59.566
						c-0.512-6.437-1.795-12.295-4.464-15.579c0,0-8.941-17.243-17.243,1.277c0,0-10.012,20.024-41.348,48.761
						c-3.986,3.656-8.694,6.514-13.872,8.078c-9.496,2.868-21.674,1.885-16.307-25.546l43.427-209.471c0,0-0.639-6.386,12.773-7.025
						c13.411-0.639,75.997-8.941,82.383-38.318c0,0,8.941-32.903-15.327-32.098c0,0-31.34,1.288-61.726,8.428
						c-4.851,1.14-9.141-3.613-7.323-8.252c0.025-0.063,0.05-0.127,0.077-0.191c0,0,8.941-54.741,8.302-71.345
						c0,0,0-12.773-14.689-12.134c0,0-19.159-0.639-35.763,4.47c0,0-13.411-1.277-20.436,22.991c0,0-12.134,62.586-14.689,73.442
						c-2.554,10.857-14.688,14.689-14.688,14.689l-151.619,64.532c-2.796,1.19-5.972,1.398-8.804,0.297
						c-3.297-1.282-6.179-4.265-3.066-11.184l17.293-70.356c1.782-7.249,3.318-14.554,4.783-21.874
						c1.616-8.074,5.593-21.33,14.693-25.664c0,0,8.844-5.771,11.766,2.94l-0.639,54.922c0,0-2.554,8.302,8.302,3.193
						c0,0,20.432-6.086,31.167-30.812c3.61-8.316,5.235-17.358,5.235-26.424l0-33.021c0-22.796-16.325-42.623-38.834-46.228
						c-0.703-0.113-1.419-0.217-2.146-0.312c-17.517-2.286-35.209,2.358-49.829,12.274c-17.878,12.125-42.207,34.927-52.882,73.432
						c0,0-16.489,72.876-20.408,129.696c-0.338,4.9-2.004,9.667-5.197,13.398c-1.559,1.821-8.095,8.641-11.297,10.34l-4.36,2.334
						l-27.497,16.661c0,0-5.109,1.703-4.257,9.579c0,0,1.49,15.966,3.406,20.649c0,0,1.916,5.109,9.367,5.535
						c7.451,0.426,33.847-1.277,33.847-1.277l-20.223,145.608c0,0-1.277,57.477-45.981,96.433l21.714-230.545
						c0,0,1.916-18.52-27.461-20.436c0,0-29.768,1.366-42.788,16.604c-13.447,15.739-14.627,31.579-14.376,38.515
						c0.145,4.01,0.226,8.013,0.132,12.025c-0.717,30.798-3.235,136.659-4.325,152.455c0,0-5.971,52.283-53.659,78.261
						c-7.007,3.817-14.923,5.823-22.894,5.436c-13.607-0.66-32.19-7.731-39.904-39.018c-4.143-16.802-4.933-43.807,2.781-79.804
						c0,0,22.991-98.349,25.545-114.953c0,0,3.755-17.247-13.584-28.832c-9.192-6.141-20.703-7.706-31.378-4.836
						c-8.39,2.255-17.761,5.867-22.684,11.405c0,0-4.706,4.095-6.899,20.36c-0.951,7.052-2.203,14.05-3.589,21.03
						c-4.062,20.461-11.46,63.026-15.057,116.99c-5.109,76.636-1.653,127.666,48.648,153.022
						c63.505,32.013,123.782-40.623,137.832-62.336c0,0,1.783,13.867-0.113,32.552c-3.608,34.574-14.837,35.905-23.565,40.162
						c0,0-123.527,40.323-132.787,101.951c-9.26,61.628,52.049,65.14,52.049,65.14s70.733,3.113,109.69-47.552
						c0,0,35.125-34.814,34.321-84.006c0,0-1.277-3.193,8.941-10.857c0,0,14.369-14.689,37.041-23.629c0,0,7.344-4.47,4.151,3.832
						c0,0-0.958,43.107-20.117,92.282c0,0-7.025,22.991,13.411,17.243c0,0,49.813-10.857,63.863-93.879
						c0,0,16.604-75.358,21.075-121.978c0,0,0-3.559,8.267-4.727c15.882-2.244,31.419-6.409,45.947-13.207
						c29.312-13.714,70.799-37.349,88.655-67.638c3.123-7.685,8.097-7.275,11.701-5.599
						C1586.935,617.419,1588.802,619.005,1590.283,620.902z M1473.547,638.063c-39.496,13.792-34.6-13.51-34.6-13.51
						c8.941-38.956,28.277-187.544,28.277-187.544c1.277-12.986,10.431-12.773,10.431-12.773
						c8.994-6.772,142.84-65.992,142.84-65.992c7.664-5.109,7.025,6.386,7.025,6.386c0.639,9.579-27.461,154.548-27.461,154.548
						s-5.619,46.766-55.346,85.82C1509.445,623.893,1493.385,631.135,1473.547,638.063z"/>
					<g>
						<path class="st0" d="M1160.349,999.36c-2.008,0-3.242-0.05-3.573-0.065l-0.234-0.011c-3.869-0.222-37.884-2.896-59.183-29.115
							c-13.413-16.514-18.306-37.588-14.542-62.638c4.23-28.155,24.777-54.538,61.155-78.597
							c-10.282-1.485-20.336-4.686-30.022-9.568c-30.033-15.139-48.771-38.867-57.281-72.542
							c-7.975-31.556-6.284-69.578-4.072-102.741c3.679-55.191,11.258-98.851,15.449-119.963c1.507-7.589,2.572-13.82,3.353-19.611
							c2.551-18.918,8.505-28.521,13.076-33.255c7.284-7.892,18.236-13.72,33.478-17.815c5.401-1.453,10.952-2.19,16.497-2.19
							c12.18,0,23.865,3.506,33.792,10.139c21.987,14.691,26.419,37.294,23.533,52.236c-2.95,18.212-23.348,105.664-25.74,115.901
							c-8.359,39.148-4.812,61.427-2.897,69.189c5.115,20.749,14.496,21.204,18.502,21.398c0.276,0.014,0.554,0.021,0.831,0.021
							c3.248,0,6.649-0.919,9.839-2.657c34.353-18.713,40.897-55.06,41.659-60.189c0.861-14.144,2.747-86.975,4.23-150.694
							c0.071-3.042,0.032-6.324-0.124-10.645c-0.402-11.146,1.65-33.038,19.923-54.426c19.003-22.239,55.289-24.521,59.363-24.709
							l1.291-0.06c0,0,1.903,0.128,2.209,0.15c1.765-11.647,9.1-19.36,16.242-22.975l27.321-16.527l3.581-1.916
							c1.245-1.047,3.902-3.663,5.179-5.062c0.015-0.085,0.028-0.19,0.037-0.314c3.985-57.796,20.233-130.162,20.923-133.214
							l0.271-1.078c12.484-45.031,40.726-71.86,62.218-86.437c16.249-11.021,34.919-16.847,53.993-16.847
							c3.959,0,7.948,0.259,11.859,0.769c0.954,0.125,1.882,0.26,2.794,0.404c33.833,5.418,58.386,34.495,58.386,69.141v33.021
							c0,12.734-2.407,24.733-7.155,35.664c-7.578,17.457-18.732,28.328-28.172,34.883l75.52-32.142l0.062-0.015
							c2.397-10.996,9.523-47.243,14.034-70.509l0.199-1.025l0.29-1.007c9.346-32.287,29.662-38.392,38.527-39.485
							c15.476-4.286,31.646-4.752,37.924-4.752c0.8,0,1.443,0.007,1.91,0.015c0.41-0.01,0.817-0.016,1.219-0.016
							c12.881,0,21.186,5.362,25.884,9.86c9.68,9.267,10.789,21.265,10.898,24.722c0.409,11.104-2.341,33.716-5.146,53.278
							c22.522-3.503,40.82-4.288,41.676-4.323l0.169-0.006c0.519-0.016,1-0.023,1.479-0.023c12.561,0,23.396,4.954,30.511,13.949
							c13.125,16.59,8.453,39.961,6.66,46.876c-9.923,43.003-75.337,53.211-97.236,55.434l-37.98,183.2
							c16.76-17.151,23.664-28.865,24.83-30.947c8.492-18.188,21.501-21.247,28.516-21.447c0.271-0.008,0.534-0.012,0.794-0.012
							c11.125,0,21.669,6.684,28.256,17.894c4.592,6.577,7.155,14.96,8.062,26.347c2.147,26.986-6.306,53.931-23.801,75.87
							c-39.108,49.038-99.278,60.479-101.82,60.941l-0.826,0.135c-4.717,0.683-9.471,1.029-14.129,1.029
							c-22.439,0-44.393-8.283-61.237-22.923c-23.035,28.452-60.853,49.988-89.35,63.321c-12.945,6.056-27.246,10.595-42.569,13.515
							c-5.68,44.815-18.176,102.527-19.772,109.82c-6.588,38.38-20.965,68.381-42.735,89.178
							c-17.128,16.361-33.371,21.499-37.941,22.684c-4.006,1.109-8.004,1.686-11.786,1.686c-12.014,0-19.447-5.769-22.808-9.207
							c-7.796-7.972-9.452-17.982-9.137-26.059c-9.055,16.681-18.922,27.809-22.429,31.516
							c-17.503,22.275-41.663,38.24-71.814,47.451C1189.244,998.567,1168.258,999.36,1160.349,999.36L1160.349,999.36z
							 M1160.039,952.953c2.851,0,9.082-0.152,17.185-1.239c-7.477-0.48-14.577-2.456-21.155-5.891
							c-12.75-6.658-20.979-21.048-21.479-37.554c-0.104-3.413,0.417-7.055,1.439-10.621c-3.897,5.532-6.482,11.154-7.327,16.777
							c-1.734,11.542-0.193,20.415,4.581,26.373c8.014,10.001,23.824,11.939,25.816,12.147
							C1159.319,952.95,1159.635,952.953,1160.039,952.953z M1251.879,828.447c1.647,0.843,3.23,1.83,4.735,2.958
							c7.859,5.895,12.621,15.048,13.063,25.111c0.665,15.052-4.244,45.059-43.93,78.756c8.508-5.247,16.589-12.045,23.357-20.849
							l0.951-1.236l1.107-1.099c0.224-0.229,27.31-28.33,27.467-65.555c-1.089-10.564,4.611-20.798,16.95-30.429
							c3.495-3.313,13.396-12.099,27.866-20.116c-6.861-0.894-13.199-4.377-17.419-9.694c-4.618-5.818-8.797-15.934-2.707-31.208
							c0.719-3.722,2.131-10.515,4.33-18.946l-12.024,10.478l26.628-282.731c-0.983-0.237-2.29-0.473-3.981-0.637
							c-9.313,0.773-21.364,4.158-24.998,8.413c-8.354,9.778-8.959,19.067-8.831,22.606c0.188,5.19,0.232,9.447,0.142,13.399
							c-0.953,40.911-3.287,137.763-4.374,153.516l-0.095,1.036c-0.077,0.677-0.647,5.31-2.441,12.351l7.559,58.783
							c0.086,0.661,2.109,16.648-0.041,37.854C1281.424,807.321,1269.176,820.451,1251.879,828.447z M1204.419,891.872
							c-5.619,4.055-10.459,7.925-14.371,11.24c1.853-0.78,3.495-1.641,4.66-2.364
							C1198.406,897.66,1201.622,894.694,1204.419,891.872z M1375.003,817.848c-0.471,8.66-2.483,33.284-10.775,63.926
							c8.604-11.182,17.38-28.755,22.006-56.092l0.219-1.12c0.162-0.737,16.272-74.223,20.601-118.824
							c0.773-10.224,8.602-23.1,28.151-25.862c14.564-2.058,27.808-5.843,39.361-11.249c15.299-7.157,28.98-14.763,40.633-22.528
							c-12.172,5.702-22.445,9.833-34.004,13.869c-9.767,3.411-18.721,5.141-26.612,5.141c-10.503,0.001-19.362-3.013-26.331-8.955
							c-11.869-10.123-13.958-25.555-12.141-35.693l0.225-1.095c8.414-36.664,26.932-178.075,27.843-185.051
							c2.514-23.539,19.132-30.398,25.369-32.149c21.593-11.712,96.788-45.319,140.199-64.533c4.553-2.594,9.292-3.909,14.092-3.909
							c5.735,0,10.187,1.854,12.911,3.409c9.022,5.158,14.244,15.391,13.989,27.396c0.1,4.692-0.996,15.649-13.898,85.201
							c-6.277,33.842-12.619,66.702-13.895,73.298c-0.999,6.647-6.895,37.568-33.52,70.427c1.723,0.493,3.43,1.132,5.114,1.915
							c5.156,2.398,9.823,6.07,13.541,10.645l0.025,0.02l0.467,0.596c3.157,4.047,15.082,17.248,35.992,17.248
							c2.338,0,4.752-0.166,7.177-0.493c3.647-0.777,46.795-10.587,73.571-44.163c2.705-3.392,5.038-6.964,6.981-10.674
							c-5.349,5.685-11.159,11.405-17.404,17.132c-6.694,6.138-14.596,10.697-22.85,13.188c-4.558,1.377-9.018,2.076-13.253,2.076
							c-11.622,0-19.179-5.266-22.648-8.405c-16.021-14.493-11.396-38.118-9.878-45.881l43.179-208.278
							c0.462-3.92,2.015-9.61,6.705-15.05c6.301-7.305,15.715-11.304,27.982-11.888c4.612-0.22,21.463-2.031,37.825-7.294
							c17.03-5.477,22.453-11.263,23.011-12.857l0.222-0.924c0.204-0.788,0.37-1.64,0.499-2.497
							c-10.512,0.812-30.59,2.827-49.816,7.345c-2.222,0.522-4.501,0.787-6.773,0.787c-8.546,0-16.672-3.722-22.294-10.211
							c-6.498-7.497-8.766-17.594-6.102-27.085c2.832-17.573,6.018-40.389,7.24-54.607c-5.641,0.338-13.227,1.185-19.952,3.253
							l-2.353,0.724c-0.617,1.047-1.47,2.813-2.349,5.64c-1.501,7.731-12.176,62.645-14.661,73.21
							c-4.847,20.599-23.088,28.873-28.832,30.996l-150.975,64.257c-4.488,1.914-9.183,2.885-13.949,2.885
							c-4.248,0-8.402-0.777-12.346-2.31c-7.921-3.081-13.966-8.892-17.022-16.361c-2.08-5.084-3.707-13.29,0.24-23.647
							l16.884-68.693c1.832-7.454,3.402-15.079,4.564-20.89c4.063-20.296,13.139-34.625,26.249-41.45
							c3.143-1.812,9.42-4.75,17.065-4.75c3.298,0,6.539,0.546,9.634,1.622c7.726,2.685,13.717,8.345,17.126,16.101v-21.834
							c0-11.533-8.298-21.558-19.303-23.319c-0.477-0.076-0.979-0.15-1.489-0.217c-1.917-0.25-3.883-0.377-5.839-0.377
							c-9.755,0-19.421,3.06-27.955,8.849c-14.95,10.14-34.603,28.754-43.398,59.892c-1.814,8.161-16.214,74.065-19.77,125.632
							c-0.705,10.222-4.411,19.52-10.717,26.888c-0.411,0.478-9.883,11.416-18.05,15.749l-3.739,2.002l-14.408,8.73
							c5.555-0.256,11.562-0.594,16.287-0.897l28.386-1.831l-23.983,172.682c-0.315,6.085-2.501,33.412-16.887,63.079
							c2.935,2.653,5.825,6.543,7.596,12.207l1.057,3.382v82.296l-0.554,2.487c-2.087,9.394-10.006,21.962-25.467,26.664
							c-0.062,0.027-0.126,0.056-0.189,0.083c3.006,0.95,5.8,2.479,8.279,4.549C1370.761,794.416,1378.728,803.024,1375.003,817.848
							z M1119.192,502.362c-0.479,1.367-1.225,4.001-1.81,8.344c-0.914,6.776-2.129,13.91-3.825,22.45
							c-3.972,20.003-11.158,61.415-14.665,114.015c-4.922,73.84-0.8,112.24,35.942,130.762c7.2,3.629,14.792,5.469,22.564,5.469
							c12.907,0,26.833-5.028,41.392-14.946c3.419-2.329,6.713-4.815,9.861-7.391c-8.372,3.591-17.311,5.469-26.184,5.469
							c-1.022,0-2.059-0.025-3.078-0.074c-14.406-0.698-49.22-7.613-61.307-56.638c-5.766-23.385-4.835-55.425,2.621-90.219
							l0.086-0.38c6.35-27.169,23.237-100.392,25.214-113.241l0.099-0.64c0.051-0.946-0.271-3.121-3.641-5.372
							c-2.271-1.519-5.041-2.32-8.008-2.32c-1.48,0-2.98,0.201-4.459,0.599C1123.752,499.926,1120.531,501.559,1119.192,502.362z
							 M1489.678,444.225c-2.795,21.271-16.648,125.672-25.454,172.5c0.533-0.174,1.092-0.361,1.675-0.565
							c16.981-5.93,31.233-12.043,66.017-30.626c39.23-31.631,45.069-68.859,45.124-69.233l0.223-1.429l0.021-0.106
							c9.27-47.821,17.808-93.757,22.697-122.01c-58.091,25.944-102.002,46.262-108.881,50.4L1489.678,444.225z M1497.091,328.227
							l24.548-10.447c-1.156,0.134-2.297,0.201-3.42,0.201c-6.379,0-12.271-2.188-17.041-6.325c-0.004-0.003-0.008-0.007-0.011-0.01
							L1497.091,328.227z"/>
						<path class="st0" d="M1510.625,138.534c3.698,0,7.399,0.238,11.084,0.718c0.894,0.118,1.767,0.244,2.625,0.381
							c30.908,4.95,53.33,31.534,53.33,63.215v33.021c0,11.904-2.24,23.1-6.658,33.274c-12.25,28.216-34.405,37.787-40.631,39.984
							c-4.646,2.047-8.682,2.853-12.156,2.853c-5.913,0-10.201-2.333-13.109-4.857c-3.26-2.829-5.424-6.665-6.333-10.894
							l-10.376,42.217L1625.724,280l0.333-0.077c1.4-0.569,2.984-1.741,3.259-2.305c1.941-8.273,10.354-51.193,14.529-72.725
							l0.148-0.761l0.216-0.747c8.343-28.822,25.477-34.339,33.923-35.244c14.897-4.206,30.644-4.659,36.76-4.659
							c0.839,0,1.495,0.009,1.945,0.017c0.4-0.012,0.797-0.017,1.188-0.017c10.83,0,17.771,4.4,21.735,8.194
							c7.999,7.657,8.954,17.523,9.05,20.577c0.47,12.741-3.574,42.319-6.281,60.363c25.647-4.59,47.934-5.555,49.054-5.601
							l0.137-0.006c0.424-0.013,0.846-0.019,1.265-0.019c10.656,0,19.803,4.083,25.805,11.671
							c11.616,14.682,6.909,36.471,5.539,41.728c-9.8,42.823-83.544,50.305-96.38,51.282l-42.052,202.838
							c-0.23,1.177-0.408,2.241-0.545,3.197c0.766-0.538,1.515-1.141,2.238-1.804c26.406-24.216,36.376-41.578,37.531-43.677
							c6.766-14.644,16.403-17.975,23.337-18.174c0.208-0.006,0.416-0.009,0.622-0.009c10.687,0,18.787,7.517,23.202,15.137
							c4.032,5.682,6.311,13.241,7.133,23.579c2.027,25.461-5.968,50.909-22.511,71.653c-37.737,47.32-95.752,58.334-98.204,58.779
							l-0.61,0.1c-4.549,0.659-8.977,0.968-13.271,0.968c-26.681,0-48.21-11.92-61.974-25.832
							c-21.485,29.849-60.781,52.585-91.154,66.796c-13.708,6.413-28.971,11.055-45.442,13.825
							c-5.401,45.512-18.876,107.538-20.248,113.796c-15.109,88.316-68.765,105.251-76.292,107.203
							c-3.811,1.054-7.231,1.492-10.28,1.492c-9.56,0-15.489-4.302-18.518-7.401c-11.027-11.277-7.015-28.09-5.522-32.973
							l0.423-1.218c9.162-23.515,13.911-45.708,16.364-61.72c-5.783,4.195-9.106,7.496-9.168,7.56l-0.921,0.942l-1.002,0.738
							c-0.854,0.641-1.539,1.193-2.082,1.655c-1.194,49.345-32.588,84.547-38.493,90.742
							c-39.398,50.371-104.606,53.497-120.157,53.498c-1.82,0-2.957-0.043-3.297-0.058l-0.227-0.011
							c-3.537-0.203-35.128-2.678-54.808-26.905c-12.305-15.149-16.769-34.65-13.266-57.963
							c4.569-30.411,29.911-58.921,75.339-84.777c-2.242,0.167-4.479,0.25-6.705,0.25c-13.98,0-27.638-3.287-40.734-9.887
							c-62.064-31.286-63.017-95.285-58.067-169.526c3.658-54.87,11.186-98.231,15.348-119.195
							c1.531-7.713,2.616-14.062,3.414-19.979c2.394-17.753,7.818-26.156,11.493-29.936c6.489-7.057,16.53-12.34,30.671-16.141
							c4.943-1.33,9.967-1.984,14.94-1.984c10.851,0,21.459,3.115,30.458,9.127c20.99,14.025,23.085,35.339,20.958,46.198
							c-2.896,18.013-24.314,109.767-25.688,115.643c-8.635,40.394-4.884,63.758-2.867,71.934
							c5.545,22.489,16.374,25.583,24.036,25.955c0.373,0.018,0.748,0.027,1.124,0.027c4.257,0,8.623-1.162,12.708-3.388
							c37.483-20.419,44.127-60.355,44.762-64.841c0.858-13.606,2.754-86.69,4.255-151.172c0.073-3.167,0.035-6.561-0.126-11.002
							c-0.372-10.273,1.536-30.469,18.488-50.31c17.36-20.319,51.268-22.438,55.077-22.612l0.954-0.044l0.953,0.063
							c2.405,0.157,4.72,0.407,6.943,0.753c-0.472-12.2,6.135-20.751,13.515-24.392l27.392-16.57l3.926-2.101
							c1.598-1.213,5.449-5.042,6.783-6.596c0.592-0.691,1.005-1.961,1.104-3.395c3.964-57.479,20.106-129.279,20.791-132.308
							l0.201-0.798c11.997-43.275,39.143-69.062,59.804-83.073C1475.269,143.99,1492.906,138.534,1510.625,138.534
							 M1362.177,433.052c7.015-0.137,18.937-0.761,27.091-1.287l21.045-1.357l-23.007,165.656
							c-0.296,6.206-2.508,34.941-18.574,65.52c3.985,2.152,7.623,6.002,9.536,12.122l0.783,2.506v80.722l-0.41,1.843
							c-1.784,8.03-8.52,18.461-21.679,22.323c-5.352,2.345-18.117,7.652-26.532,8.829c-1.16,0.193-2.326,0.287-3.483,0.287
							c-6.288,0-12.35-2.777-16.218-7.65c-5.353-6.745-5.897-15.406-1.625-25.771c1.07-5.625,4.298-21.235,10.166-38.737
							l-16.26,14.169l25.623-272.051c-0.718-0.696-3.575-2.372-10.321-2.948c-7.713,0.571-23.753,3.696-29.598,10.538
							c-9.724,11.382-10.418,22.477-10.264,26.72c0.184,5.077,0.228,9.223,0.14,13.045c-0.952,40.863-3.282,137.592-4.361,153.24
							l-0.07,0.768c-0.286,2.497-7.616,61.504-62.521,91.413c-9.141,4.98-19.167,7.581-29.166,7.581
							c-0.931,0-1.859-0.022-2.789-0.068c-13.064-0.633-44.651-6.975-55.772-52.081c-5.552-22.519-4.607-53.603,2.663-87.526
							l0.07-0.31c6.352-27.177,23.28-100.571,25.293-113.655l0.132-0.854c0.181-1.887-0.029-6.889-6.272-11.059
							c-3.288-2.197-7.234-3.331-11.34-3.331c-1.986,0-4.01,0.265-6.016,0.804c-8.712,2.342-12.956,4.907-14.15,6.072
							c-0.479,0.962-1.895,4.271-2.853,11.381c-0.895,6.639-2.091,13.656-3.764,22.082c-4,20.147-11.237,61.849-14.766,114.785
							c-5.102,76.527-0.534,116.476,39.227,136.518c8.086,4.076,16.522,6.112,25.266,6.112c14.16,0,29.133-5.335,44.769-15.987
							c21.969-14.967,39.008-36.237,45.614-46.444l25.511-39.427l5.99,46.576c0.083,0.646,2.012,16.064-0.06,36.483
							c-3.573,34.24-14.534,45.637-31.063,52.942c-0.704,0.311-1.399,0.615-2.073,0.943l-1.071,0.523l-1.132,0.37
							c-29.427,9.639-114.861,46.532-121.115,88.154c-1.993,13.265-0.031,23.701,5.832,31.017
							c9.809,12.24,28.245,14.217,30.143,14.388c0.229,0.006,0.67,0.014,1.301,0.014c9.63,0,63.818-1.854,93.818-40.872l0.705-0.917
							l0.822-0.814c0.25-0.252,29.241-29.914,29.243-70.139c-0.793-6.692,1.975-15.569,14.869-25.553
							c3.99-3.814,19.005-17.267,40.882-26.142c3.597-1.894,7.315-2.838,10.882-2.838c4.404,0,8.577,1.438,12.009,4.304
							c2.934,2.449,8.965,9.148,5.769,20.942c-0.489,9.674-3.159,44.226-17.203,84.699c12.435-8.037,32.352-27.916,40.31-74.939
							l0.162-0.831c0.163-0.741,16.357-74.544,20.72-119.602c0.597-8.293,6.861-18.151,23.013-20.433
							c15.153-2.141,28.969-6.096,41.064-11.756c36.229-16.948,63.165-36.097,76.958-54.56l-1.231,0.659
							c-34.653,18.564-51.853,26.542-73.618,34.141c-9.175,3.205-17.401,4.807-24.635,4.807c-9.056,0-16.56-2.509-22.438-7.521
							c-9.936-8.474-11.665-21.494-10.128-30.069l0.166-0.812c8.493-37.007,27.083-179.013,27.955-185.685
							c1.781-16.927,12.358-24.923,21.652-27.244c20.319-11.169,94.637-44.412,140.677-64.788c4.188-2.443,8.058-3.266,11.372-3.266
							c4.585,0,8.107,1.576,9.936,2.62c7.157,4.091,11.209,12.335,10.962,22.188c0.109,3.886-0.834,14.239-13.795,84.104
							c-6.47,34.879-13.091,69.136-13.912,73.382c-0.869,5.889-7.279,41.224-39.885,76.452c1.16-0.172,2.335-0.257,3.519-0.257
							c3.774,0,7.633,0.871,11.346,2.598c4.526,2.105,8.618,5.393,11.83,9.507l0.003,0.003c3.842,4.923,17.27,19.556,40.724,19.556
							c2.609,0,5.341-0.181,8.199-0.577c3.574-0.736,48.785-10.657,77.24-46.338c9.196-11.53,14.457-25.106,15.217-38.954
							c-7.039,9.392-18.024,22.243-34.386,37.249c-6.032,5.531-13.13,9.634-20.527,11.867c-4.283,1.294-8.118,1.82-11.52,1.82
							c-9.331,0-15.416-3.953-18.623-6.855c-13.505-12.217-9.373-33.338-8.015-40.279l0.038-0.189l43.184-208.295
							c0.35-3.311,1.61-7.779,5.318-12.078c5.182-6.008,13.163-9.309,23.723-9.812c4.817-0.229,22.394-2.114,39.377-7.576
							c18.469-5.939,26.096-12.985,27.016-17.215l0.208-0.857c0.852-3.282,1.204-7.662,0.924-10.349
							c-5.559,0.299-32.112,1.982-57.442,7.935c-1.796,0.422-3.608,0.628-5.401,0.628c-6.732,0-13.218-2.898-17.76-8.139
							c-5.255-6.065-7.006-14.274-4.769-21.845c2.978-18.432,7.198-48.293,7.812-62.133c-4.788,0.024-17.4,0.424-28.155,3.734
							l-3.276,1.008l-0.662-0.063c-0.98,0.996-2.981,3.619-4.828,9.695c-1.498,7.719-12.202,62.788-14.673,73.292
							c-4.221,17.939-20.535,25.088-25.202,26.791l-151.113,64.317c-3.759,1.602-7.697,2.405-11.6,2.405
							c-3.467,0-6.906-0.633-10.172-1.902c-6.372-2.479-11.216-7.11-13.643-13.041c-1.723-4.211-2.968-10.933,0.423-19.57
							l16.976-69.066c1.853-7.539,3.443-15.26,4.621-21.145c3.711-18.54,11.74-31.431,23.251-37.365
							c2.63-1.533,7.864-4.012,14.179-4.012c2.424,0,5.006,0.365,7.663,1.289c6.874,2.389,12.037,7.812,14.539,15.271l0.926,2.759
							l-0.389,33.49c2.237-2.764,4.402-6.166,6.209-10.327c2.53-5.826,3.812-12.411,3.812-19.573v-33.021
							c0-14.449-10.47-27.021-24.354-29.244c-0.533-0.085-1.091-0.167-1.658-0.241c-2.196-0.286-4.407-0.427-6.62-0.427
							c-10.864,0-21.78,3.41-31.323,9.882c-15.823,10.731-36.589,30.427-45.85,63.391c-1.305,5.857-16.303,74.013-19.935,126.685
							c-0.616,8.928-3.828,17.019-9.29,23.4c-0.09,0.105-9.142,10.551-16.303,14.351l-3.899,2.087l-22.722,13.768
							C1361.576,428.813,1361.879,431.088,1362.177,433.052 M1514.031,246.454L1514.031,246.454L1514.031,246.454 M1515.981,277.864
							c0.001-0.001,0.001-0.001,0.001-0.001L1515.981,277.864 M1371.753,380.284c-0.019,0.01-0.038,0.02-0.056,0.03
							L1371.753,380.284 M1607.77,382.712c-55.882,24.881-112.364,50.688-120.05,55.477l-3.663,2.758
							c-2.221,16.984-18.675,141.874-27.52,183.702c2.315-0.236,5.959-0.945,11.34-2.824h0.001
							c17.306-6.043,31.906-12.308,67.36-31.263c41.882-33.52,47.697-73.04,47.745-73.433l0.192-1.222
							C1592.851,465.974,1603.109,410.876,1607.77,382.712 M1487.933,438.027l0.068-0.05
							C1487.979,437.993,1487.957,438.01,1487.933,438.027 M1370.471,467.208c-2.787,0.11-5.52,0.195-7.971,0.235l-14.469,153.618
							c4.484-15.396,4.919-26.732,4.926-26.97l0.022-0.997l0.135-0.923L1370.471,467.208 M1440.1,720.02
							C1440.1,720.02,1440.1,720.02,1440.1,720.02S1440.1,720.02,1440.1,720.02 M1240.496,786.966
							c-1.846,1.642-3.734,3.263-5.661,4.855c2.984-1.33,3.715-1.778,4.62-3.065
							C1239.757,788.329,1240.112,787.747,1240.496,786.966 M1236.872,830.873c5.41,0,11.086,1.542,16.142,5.333
							c6.417,4.813,10.306,12.311,10.67,20.574c0.628,14.235-4.274,43.026-44.17,75.883l-1.052,0.801
							c-2.334,1.638-18.358,12.366-37.61,12.366c-7.073,0-14.58-1.448-22.006-5.326c-10.829-5.655-17.825-18.076-18.259-32.417
							c-0.235-7.745,3.579-17.236,8.973-22.559c3.534-3.673,31.892-32.342,73.877-51.359
							C1227.25,832.149,1231.951,830.873,1236.872,830.873 M1226.5,870.99c-27.755,14.778-47.107,33.338-51.37,37.601
							c0.138,0.786,0.341,1.417,0.517,1.829c1.609,0.661,3.377,0.935,5.198,0.935c6.966,0,14.717-4.012,17.405-5.747
							C1215.25,891.477,1222.998,879.457,1226.5,870.99 M1173.212,910.496l0.066-0.058
							C1173.255,910.457,1173.233,910.476,1173.212,910.496 M1510.625,126.534c-20.279,0-40.114,6.183-57.361,17.882
							c-22.324,15.139-51.66,43.009-64.632,89.798l-0.038,0.137l-0.035,0.138l-0.201,0.798l-0.036,0.142l-0.032,0.143
							c-0.687,3.037-16.691,74.296-20.924,132.252c-0.955,0.963-2.064,2.035-2.793,2.692l-2.843,1.521l-0.279,0.149l-0.27,0.164
							l-27.002,16.333c-7.405,3.816-14.941,11.265-18.134,22.191c-9.057,0.542-43.24,4.077-62.611,26.749
							c-19.595,22.935-21.792,46.521-21.357,58.539c0.152,4.193,0.189,7.366,0.121,10.29c-1.474,63.279-3.342,135.521-4.204,150.192
							c-0.36,2.265-2.079,11.593-7.391,22.419c-7.182,14.639-17.668,25.79-31.166,33.143c-2.312,1.26-4.721,1.926-6.968,1.926
							c-0.181,0-0.362-0.004-0.541-0.013c-3.119-0.151-8.922-0.433-12.968-16.842c-1.416-5.741-5.384-27.487,2.929-66.447
							c1.26-5.392,22.703-97.231,25.793-116.16c1.652-8.664,0.827-18.813-2.271-27.887c-4.185-12.255-12.428-22.763-23.837-30.386
							c-10.918-7.294-23.755-11.149-37.125-11.149c-6.072,0-12.147,0.806-18.057,2.396c-16.338,4.391-28.209,10.768-36.283,19.494
							c-5.192,5.4-11.898,16.109-14.656,36.568c-0.763,5.659-1.809,11.774-3.292,19.245c-4.219,21.25-11.849,65.191-15.551,120.733
							c-2.241,33.621-3.947,72.205,4.243,104.61c8.962,35.461,28.718,60.461,60.396,76.43c5.904,2.976,11.941,5.363,18.08,7.154
							c-30.818,22.933-48.422,47.993-52.444,74.761c-4.025,26.788,1.297,49.435,15.818,67.312
							c9.701,11.942,22.791,20.776,38.908,26.256c12.002,4.082,21.808,4.907,24.528,5.063l0.048,0.003l0.048,0.002l0.227,0.011
							c0.395,0.019,1.739,0.073,3.887,0.073c8.18-0.001,29.876-0.819,54.642-8.384c31.251-9.547,56.351-26.121,74.611-49.268
							c2.62-2.788,8.198-9.082,14.436-18.286c1.673,4.537,4.304,9.028,8.29,13.105c6.942,7.1,16.566,11.011,27.098,11.011
							c4.295,0,8.798-0.64,13.389-1.902c5.054-1.324,22.427-6.88,40.483-24.128c22.695-21.68,37.66-52.755,44.48-92.365
							c1.665-7.61,13.374-61.759,19.278-105.938c14.209-3.017,27.534-7.414,39.717-13.114c27.538-12.884,63.642-33.33,87.578-60.388
							c17.214,13.179,38.625,20.554,60.466,20.554c4.946,0,9.99-0.367,14.99-1.091l0.109-0.016l0.109-0.018l0.61-0.1l0.104-0.017
							l0.104-0.019c1.773-0.322,17.922-3.416,38.619-12.662c27.414-12.248,49.896-29.219,66.821-50.442
							c18.45-23.134,27.36-51.576,25.091-80.087c-0.985-12.385-3.845-21.657-8.988-29.112c-7.687-12.942-20.102-20.652-33.31-20.652
							c-0.313,0-0.629,0.004-0.945,0.013c-8.39,0.24-23.84,3.776-33.696,24.682c-0.694,1.208-3.452,5.812-9.053,12.875
							l32.527-156.893c10.43-1.279,26.96-4.018,43.282-9.656c13.348-4.611,24.519-10.443,33.204-17.334
							c11.419-9.062,18.681-19.99,21.585-32.484c1.984-7.699,7.006-33.336-7.784-52.03c-8.276-10.463-20.782-16.225-35.215-16.225
							c-0.538,0-1.079,0.008-1.623,0.024l-0.066,0.002l-0.066,0.003l-0.137,0.006c-0.766,0.031-15.294,0.653-34.382,3.232
							c2.408-17.724,4.462-36.397,4.094-46.435c-0.172-5.203-1.767-18.305-12.745-28.814c-5.492-5.258-15.161-11.526-30.033-11.526
							c-0.408,0-0.822,0.005-1.24,0.015c-0.481-0.008-1.117-0.014-1.893-0.014c-6.468,0-23.049,0.48-39.104,4.856
							c-10.342,1.396-32.927,8.549-43.105,43.71l-0.217,0.75l-0.15,0.517l-0.103,0.529l-0.148,0.761
							c-4.155,21.43-10.528,53.876-13.357,67.34l-45.019,19.161c3.028-4.457,5.857-9.495,8.327-15.184
							c5.077-11.689,7.651-24.493,7.651-38.053v-33.021c0-37.609-26.677-69.178-63.432-75.064c-0.965-0.153-1.955-0.297-2.956-0.429
							C1519.093,126.809,1514.842,126.534,1510.625,126.534L1510.625,126.534z M1445.099,249.144
							c8.328-29.297,26.849-46.835,40.945-56.395c7.537-5.112,16.039-7.814,24.587-7.814c1.699,0,3.405,0.11,5.071,0.327
							c0.448,0.058,0.892,0.124,1.316,0.191c8.118,1.3,14.245,8.778,14.245,17.394v4.859c-2.751-2.02-5.819-3.634-9.157-4.794
							c-3.727-1.296-7.631-1.954-11.602-1.954c-8.942,0-16.239,3.365-19.949,5.487c-14.718,7.714-24.829,23.452-29.249,45.535
							c-1.154,5.763-2.709,13.318-4.507,20.635L1440,340.962c-4.473,12.02-2.52,21.671-0.053,27.7
							c3.687,9.007,10.931,15.996,20.398,19.68c4.644,1.805,9.529,2.719,14.524,2.719c1.181,0,2.358-0.051,3.529-0.152
							c-4.45,2.189-8.209,4.099-11.128,5.667c-12.813,3.817-26.708,15.358-29.05,37.034c-1.022,7.822-19.412,148.158-27.733,184.412
							l-0.033,0.142l-0.029,0.143l-0.166,0.812l-0.029,0.141l-0.025,0.141c-2.098,11.703,0.349,29.545,14.152,41.317
							c7.016,5.983,15.601,9.406,25.57,10.207c-4.981,1.243-10.174,2.249-15.562,3.01c-23.038,3.255-32.32,18.844-33.29,31.282
							c-4.116,42.343-19.071,111.571-20.392,117.638c0.123-1.6,0.214-2.983,0.28-4.131c2.812-12.045-0.582-23.583-9.218-31.28
							c10.825-6.938,16.729-17.598,18.61-26.063l0.409-1.842l0.286-1.287v-1.318v-80.722v-1.832l-0.546-1.748l-0.783-2.506
							c-1.511-4.835-3.713-8.62-6.143-11.573c12.842-28.124,15.242-53.084,15.686-61.357l22.935-165.136l2.024-14.573l-14.682,0.947
							l-12.685,0.818c8.22-5.527,16.126-14.724,16.501-15.162c7.145-8.347,11.344-18.852,12.139-30.37
							C1428.998,322.931,1443.147,257.944,1445.099,249.144L1445.099,249.144z M1689.885,213.044
							c3.649-1.111,7.646-1.833,11.37-2.302c-1.454,13.485-4.011,31.663-6.427,46.685c-3.061,11.338-0.309,23.35,7.438,32.292
							c6.763,7.805,16.542,12.281,26.829,12.281c2.734,0,5.474-0.318,8.146-0.946c10.395-2.443,21.057-4.14,30.26-5.305
							c-2.106,0.87-4.551,1.774-7.384,2.685c-16.019,5.151-32.688,6.842-36.275,7.013c-13.975,0.665-24.822,5.362-32.239,13.96
							c-4.469,5.182-7.258,11.392-8.089,17.998l-43.076,207.778l-0.008,0.037l-0.007,0.036l-0.038,0.189l-0.006,0.029l-0.006,0.029
							c-0.762,3.896-2.349,12.003-1.766,21.223c0.791,12.519,5.462,22.982,13.507,30.26c7.096,6.42,16.569,9.956,26.674,9.956
							c0.4,0,0.801-0.005,1.204-0.016c-14.678,7.141-26.878,10.016-29.277,10.541c-2.084,0.271-4.15,0.409-6.149,0.409
							c-18.192,0-28.529-11.434-31.263-14.939l-0.454-0.581l-0.043-0.043c-3.835-4.741-8.565-8.652-13.807-11.426
							c23.272-31.446,28.826-60.064,29.86-66.838c1.342-6.945,7.723-40.028,13.881-73.225c13.921-75.04,14.106-82.206,14-86.328
							c0.253-14.171-6.09-26.329-17.011-32.571c-2.217-1.266-5.357-2.691-9.264-3.514l11.549-4.915
							c6.636-2.479,26.964-11.872,32.451-35.198c2.427-10.313,12.348-61.269,14.646-73.104
							C1689.385,214.338,1689.647,213.628,1689.885,213.044L1689.885,213.044z M1495.275,447.677
							c8.701-4.772,47.092-22.534,96.843-44.831c-5.028,28.337-12.593,68.82-20.726,110.777l-0.041,0.212l-0.033,0.213l-0.192,1.222
							l-0.031,0.199l-0.002,0.02c-0.151,0.895-1.736,9.687-7.606,21.767c-7.942,16.342-19.681,30.89-34.901,43.254
							c-28.489,15.208-42.939,21.895-56.614,27.066C1480.433,559.061,1492.061,472.048,1495.275,447.677L1495.275,447.677z
							 M1283.776,674.97c1.64-6.698,2.2-11.163,2.303-12.067l0.016-0.137l0.012-0.137l0.07-0.768l0.012-0.132l0.009-0.132
							c1.096-15.885,3.433-112.839,4.386-153.787c0.094-4.07,0.048-8.441-0.144-13.758c-0.08-2.213,0.217-10.089,7.396-18.491
							c1.724-2.008,9.759-4.848,17.857-5.986l-24.631,261.527l-0.028,0.301l-5.837-45.391L1283.776,674.97L1283.776,674.97z
							 M1124.234,506.523c1.499-0.661,3.857-1.55,7.321-2.481c0.969-0.26,1.946-0.392,2.901-0.392c1.776,0,3.392,0.452,4.673,1.308
							c0.414,0.277,0.686,0.507,0.857,0.674c-2.097,12.688-16.374,75.16-25.028,112.186l-0.011,0.046l-0.01,0.046l-0.07,0.31
							l-0.014,0.063l-0.013,0.063c-7.643,35.667-8.559,68.664-2.58,92.913c5.55,22.508,16.362,39.269,32.137,49.82
							c12.915,8.637,26.001,10.953,34.705,11.374c0.081,0.004,0.162,0.008,0.244,0.011c-7.657,3.283-14.998,4.938-21.945,4.938
							c-6.922,0-13.42-1.579-19.865-4.827c-16.383-8.259-25.413-19.998-30.191-39.252c-4.58-18.454-5.294-43.298-2.464-85.752
							c3.484-52.264,10.62-93.386,14.563-113.246c1.722-8.67,2.957-15.919,3.886-22.815
							C1123.618,509.366,1123.944,507.726,1124.234,506.523L1124.234,506.523z M1292.081,757.667l5.571-4.854
							c-0.04,0.203-0.079,0.4-0.116,0.59c-6.841,17.642-1.76,29.627,3.793,36.624c2.326,2.93,5.171,5.408,8.358,7.348
							c-8.967,6-15.214,11.535-18.024,14.18c-14.371,11.301-18.617,22.348-19.105,30.844c-2.14-5.045-5.318-9.588-9.374-13.322
							c5.266-3.452,10.816-8.301,15.414-15.34c6.65-10.182,10.642-23.492,12.561-41.888
							C1291.671,766.803,1291.952,762.031,1292.081,757.667L1292.081,757.667z"/>
					</g>
				</g>
			</g>
			<g>
				<path class="st2" d="M938.305,466.564c0.081,0.839,0.193,1.69,0.342,2.553c2.27,13.165,12.556,23.291,25.269,27.396
					c8.004,2.585,18.795,4.049,31.666,0.907c13.981-3.413,26.089-11.98,35.102-23.2c16.775-20.884,43.76-74.441,23.019-129.536
					c0,0-30.527-100.016-163.711-72.277c0,0-197.586,45.249-185.705,219.965c2.149,31.598,13.37,62.078,32.861,87.04
					c20.24,25.922,54.419,57.924,110.175,82.244c0,0,94.047,47.023,108.85,98.401c0,0,31.933,61.784-35.602,113.452
					c-15.945,12.198-34.252,20.896-53.534,26.483c-36.941,10.704-104.704,22.353-127.693-26.731c0,0-11.336-21.862,12.059-43.724
					c2.495-2.331,4.91-4.752,6.94-7.498c7.181-9.717,19.2-31.596-1.065-49.614c-6.818-6.062-15.327-9.985-24.313-11.555
					c-19.721-3.445-57.038-0.588-68.51,65.368c0,0-15.506,103.098,72.277,141.941c0,0,114.679,58.905,246.809-50.834
					c0,0,45.957-41.776,56.192-99.944c13.147-74.719-20.522-149.838-83.269-192.484c-14.465-9.831-31.678-20.01-52.097-30.07
					c-23.075-11.369-55.417-25.981-74.508-43.221c-30.074-27.157-50.009-66.757-37.553-109.394c0,0,23.67-81.002,132.52-93.193
					c0,0,39.246-6.405,51.377,21.77c0,0,13.633,28.067-26.822,67.271C941.719,445.502,937.284,455.946,938.305,466.564z"/>
				<path class="st2" d="M1208.579,917.094c0,0-22.613,15.876-41.772,5.871c-6.047-3.158-8.821-10.871-9.027-17.689
					c-0.102-3.361,2.162-8.282,3.966-9.895c0,0,27.674-29.377,69.398-48.11c0,0,6.144-3.651,11.551,0.404
					c2.364,1.773,3.676,4.616,3.806,7.568C1246.891,864.099,1244.011,887.911,1208.579,917.094z M1361.85,752.753
					c0,0-1.703,7.664-10.644,9.792c0,0-16.179,7.238-23.417,8.089c0,0-8.089,1.703-2.129-11.069c0,0,8.941-51.942,29.803-79.19
					c0,0,4.257-10.644,6.386-3.832V752.753z M1446.149,622.259 M1430.183,705.281 M1590.283,618.608
					c4.948,6.339,26.868,30.94,65.337,25.364c0,0,53.685-9.761,87.833-52.581c13.441-16.854,20.522-38.077,18.812-59.566
					c-0.512-6.437-1.795-12.295-4.464-15.579c0,0-8.941-17.243-17.243,1.277c0,0-10.012,20.024-41.348,48.761
					c-3.986,3.656-8.694,6.514-13.872,8.078c-9.496,2.868-21.674,1.885-16.307-25.546l43.427-209.471c0,0-0.639-6.386,12.773-7.025
					c13.411-0.639,75.997-8.941,82.383-38.318c0,0,8.941-32.903-15.327-32.098c0,0-31.34,1.288-61.726,8.428
					c-4.851,1.14-9.141-3.613-7.323-8.252c0.025-0.063,0.05-0.127,0.077-0.191c0,0,8.941-54.741,8.302-71.345
					c0,0,0-12.773-14.689-12.134c0,0-19.159-0.639-35.763,4.47c0,0-13.411-1.277-20.436,22.991c0,0-12.134,62.586-14.689,73.442
					c-2.554,10.857-14.688,14.689-14.688,14.689l-151.619,64.532c-2.796,1.19-5.972,1.398-8.804,0.297
					c-3.297-1.282-6.179-4.265-3.066-11.184l17.293-70.356c1.782-7.249,3.318-14.554,4.783-21.874
					c1.616-8.074,5.593-21.33,14.693-25.664c0,0,8.844-5.771,11.766,2.94l-0.639,54.922c0,0-2.554,8.302,8.302,3.193
					c0,0,20.432-6.086,31.167-30.812c3.61-8.316,5.235-17.358,5.235-26.424l0-33.021c0-22.796-16.325-42.623-38.834-46.228
					c-0.703-0.113-1.419-0.217-2.146-0.312c-17.517-2.286-35.209,2.358-49.829,12.274c-17.878,12.125-42.207,34.927-52.882,73.432
					c0,0-16.489,72.876-20.408,129.696c-0.338,4.9-2.004,9.667-5.197,13.398c-1.559,1.821-8.095,8.641-11.297,10.341l-4.36,2.334
					l-27.497,16.661c0,0-5.109,1.703-4.257,9.579c0,0,1.49,15.966,3.406,20.649c0,0,1.916,5.109,9.367,5.535
					c7.451,0.426,33.847-1.277,33.847-1.277l-20.223,145.608c0,0-1.277,57.477-45.981,96.433l21.714-230.545
					c0,0,1.916-18.52-27.461-20.436c0,0-29.768,1.366-42.788,16.604c-13.447,15.739-14.627,31.579-14.376,38.515
					c0.145,4.01,0.226,8.013,0.132,12.025c-0.717,30.798-3.235,136.659-4.325,152.455c0,0-5.971,52.283-53.659,78.261
					c-7.007,3.817-14.923,5.823-22.894,5.436c-13.607-0.66-32.19-7.731-39.904-39.018c-4.143-16.802-4.933-43.807,2.781-79.804
					c0,0,22.991-98.349,25.545-114.953c0,0,3.755-17.247-13.584-28.832c-9.192-6.141-20.703-7.706-31.378-4.836
					c-8.39,2.255-17.761,5.867-22.684,11.405c0,0-4.706,4.095-6.899,20.36c-0.951,7.052-2.203,14.05-3.589,21.03
					c-4.062,20.461-11.46,63.026-15.057,116.99c-5.109,76.636-1.653,127.666,48.648,153.022
					c63.505,32.013,123.782-40.623,137.832-62.336c0,0,1.783,13.867-0.113,32.552c-3.608,34.574-14.837,35.905-23.565,40.162
					c0,0-123.527,40.323-132.787,101.951c-9.26,61.628,52.049,65.14,52.049,65.14s70.733,3.113,109.69-47.552
					c0,0,35.125-34.814,34.321-84.006c0,0-1.277-3.193,8.941-10.857c0,0,14.369-14.689,37.041-23.629c0,0,7.344-4.47,4.151,3.832
					c0,0-0.958,43.107-20.117,92.282c0,0-7.025,22.991,13.411,17.243c0,0,49.813-10.857,63.863-93.879
					c0,0,16.604-75.358,21.075-121.978c0,0,0-3.559,8.267-4.727c15.882-2.244,31.419-6.409,45.947-13.207
					c29.312-13.714,70.799-37.349,88.655-67.638c3.123-7.685,8.097-7.275,11.701-5.599
					C1586.935,615.125,1588.802,616.712,1590.283,618.608z M1473.547,635.769c-39.496,13.792-34.6-13.51-34.6-13.51
					c8.941-38.956,28.277-187.544,28.277-187.544c1.277-12.986,10.431-12.773,10.431-12.773
					c8.994-6.772,142.84-65.992,142.84-65.992c7.664-5.109,7.025,6.386,7.025,6.386c0.639,9.579-27.461,154.548-27.461,154.548
					s-5.619,46.766-55.346,85.82C1509.445,621.599,1493.385,628.842,1473.547,635.769z"/>
			</g>
		</g>
	</g>
</g>
</svg>
