<?xml version="1.0" encoding="UTF-8"?><svg id="b" xmlns="http://www.w3.org/2000/svg" viewBox="0 0 2377.06 1084.48"><defs><style>.e{fill:#eb5d31;}.e,.f,.g,.h,.i{stroke-width:0px;}.j{stroke:#d14d28;}.j,.k{fill:none;stroke-linecap:round;stroke-miterlimit:10;stroke-width:8px;}.f{fill:#113d21;}.g{fill:#f9efcd;opacity:.46;}.k{opacity:.16;stroke:#fdf8ed;}.h{fill:#0c3d1f;}.i{fill:#46773a;}</style></defs><g id="c"><path class="f" d="m1390.08,372.43l41.17-105.37s3.43-9.31-3.92-19.11c0,0-91.65-82.34-260.74-35.78-169.09,46.56-108.32,239.18-108.32,239.18,0,0,15.97,57.24,105.37,91.16,0,0,97.04,29.9,98.02,64.2.86,30.14-48.98,28.51-61.09,27.66-1.54-.11-3.07-.17-4.61-.21-7.68-.21-37.09-3.05-79.37-32.35,0,0-17.64-13.23-29.9,2.94l-54.88,100.31c-6.22,11.37-2.65,25.68,8.27,32.66.18.11.36.23.54.34,0,0,146.05,89.69,287.7,33.82,141.64-55.87,99.49-205.36,99.49-205.36,0,0-28.92-90.18-116.65-116.16-87.73-25.98-84.79-62.24-84.79-62.24,0,0-3.23-37.22,47.05-38.23,44.17-.88,71.45,16.9,81.21,25.16,4.84,4.09,10.77,6.79,17.08,7.41,6.95.69,14.79-.91,18.35-10.02Z"/><path class="f" d="m1496.44,734.62s-9.37-9.32-15.19,8.82l-42.15,90.51s-5.41,9.2,1.96,14.7c0,0,40.81,46.36,132.82,46.23,65.31-2.39,92.44-12.87,100.31-16.71,1.91-.93,3.82-1.83,5.77-2.66,17.46-7.38,101.49-50.34,103.69-194.81,0,0,0-230.26,16.66-296.92,0,0,9.31-32.84-22.06-34.8h-92.63s-22.14-3.43-19.11,40.19c0,0,7.35,144.49-16.66,181.25,0,0-7.84,21.57-39.7,20.58-27.59-.85-37.9-51.14-40.17-64.6-.34-2.02-.51-4.05-.52-6.09l-.48-152.96s2.75-19.94-16.66-18.38h-106.84s-15.19.49-14.21,13.23c0,0,18.63,215.07,20.59,232.22,1.96,17.15,21.07,100.96,94.59,120.08,73.52,19.11,116.16-42.64,116.16-42.64,0,0,8.82,80.38-59.79,94.59,0,0-49.32,15.4-106.35-31.86Z"/><path class="f" d="m1845.56,382.07h-21.57s-15.68,0-16.34,18.95v83.65s-2.38,22.01,14.38,21.57h23.53v244.4s-2.61,28.1,19.6,26.79h92.79s29.41,2.61,28.1-27.45l-5.88-244.4,77.84-1.4s17.65,1.52,15.68-22.87l-.73-80.29s1.2-20.73-18.3-18.95h-70.58l-.57-48.32c-.08-6.9,2.15-13.71,6.67-18.92,5.79-6.66,15.3-11.14,28.53,3.19l20.91,20.26s6.53,7.19,15.03,1.31c0,0,44.44-37.25,51.63-66,0,0,2.26-9.25,0-21.57,0,0-15.71-55.58-122.06-58.12-11.13-.27-22.24.86-33.05,3.5-29.42,7.17-82.69,28.15-97.13,87.3l-8.5,97.37Z"/><path class="f" d="m2148.78,261.17v88.22h-34.52c-2.3,0-4.59-.12-6.88-.28-4.74-.32-15.37.62-13.49,15.96l-.15,92.79s-2.72,13.47,13.15,13.07l34.71.43s-4.34,117.58-4.57,165.55c0,0-3.27,99.98,81.03,133.31,0,0,67.31,34.63,152.26-32.02,0,0,8.5-12.42,5.23-23.53,0,0-18.48-62.84-22.22-75.15,0,0-4.57-15.68-22.22-7.84,0,0-31.37,15.03-49.01.65,0,0-16.99-12.42-16.99-54.89v-103.9h77.76s18.3,0,20.26-20.91l2.61-87.8s2.39-15.85-15.68-15.85h-73.82l.63-83.9s2.42-20.91-17.64-20.91h-84.95s-26.11-1.54-25.49,16.99Z"/></g><g id="d"><path class="h" d="m1069.87,1014.87h-36.7v-59.92c0-2.13.56-3.72,1.69-4.78,1.12-1.07,2.69-1.95,4.7-2.66,3.54-1.07,7.86-1.86,12.94-2.39,5.08-.53,10.16-.8,15.24-.8,15.13,0,26.44,3.13,33.95,9.39,7.5,6.27,11.26,14.89,11.26,25.88,0,6.97-1.68,13.12-5.05,18.43-3.37,5.32-8.24,9.46-14.63,12.41-6.38,2.96-14.18,4.43-23.4,4.43Zm-36.7-5.85h18.44v44.85c-.83.24-2.01.53-3.54.88-1.54.36-3.19.53-4.97.53-3.43,0-5.94-.68-7.53-2.04-1.6-1.36-2.39-3.51-2.39-6.47v-37.76Zm18.26-8.86h17.73c7.8,0,13.97-1.71,18.53-5.14,4.55-3.43,6.82-8.57,6.82-15.42s-2.33-11.64-7-15.07c-4.67-3.43-11.43-5.14-20.3-5.14-2.83,0-5.61.12-8.33.35-2.72.24-5.2.59-7.45,1.06v39.36Zm17.2,9.57l14.71-5.49c3.19,4.02,6.44,8.15,9.75,12.41,3.31,4.25,6.53,8.39,9.66,12.41,3.13,4.02,5.91,7.62,8.33,10.81,2.42,3.19,4.34,5.73,5.76,7.62-.59,2.48-1.89,4.46-3.9,5.94-2.01,1.48-4.08,2.22-6.2,2.22-2.72,0-4.91-.65-6.56-1.95-1.66-1.3-3.25-3.13-4.79-5.5l-26.77-38.47Z"/><path class="h" d="m1156.56,1013.81h-18.08v-57.44c0-2.95.89-5.35,2.66-7.18,1.77-1.83,4.19-2.75,7.27-2.75,1.65,0,3.28.18,4.88.53,1.59.35,2.69.71,3.28,1.06v65.77Zm-18.08-27.66h18.08v66.66c-.59.24-1.69.56-3.28.98-1.6.41-3.22.62-4.88.62-3.08,0-5.49-.91-7.27-2.75-1.77-1.83-2.66-4.22-2.66-7.18v-58.32Zm9.93-24.64v-15.07h58.68c.47.71.94,1.71,1.42,3.02.47,1.3.71,2.66.71,4.08,0,2.48-.59,4.43-1.77,5.85-1.18,1.42-2.84,2.13-4.97,2.13h-54.07Zm0,45.03v-14.89h53.36c.47.71.91,1.68,1.33,2.93.41,1.24.62,2.63.62,4.16,0,2.48-.59,4.4-1.77,5.76-1.18,1.36-2.84,2.04-4.96,2.04h-48.57Zm0,47.86v-15.07h59.56c.47.71.91,1.68,1.33,2.92.41,1.24.62,2.69.62,4.34,0,2.48-.56,4.4-1.69,5.76-1.12,1.36-2.81,2.04-5.05,2.04h-54.78Z"/><path class="h" d="m1312.38,959.21c0,1.89-.56,3.58-1.68,5.05-1.13,1.48-2.45,2.63-3.99,3.46-2.96-2.13-6.44-4.08-10.46-5.85-4.02-1.77-9.1-2.66-15.24-2.66-6.98,0-13.15,1.57-18.53,4.7-5.38,3.13-9.6,7.77-12.68,13.91-3.07,6.15-4.61,13.71-4.61,22.69,0,13.59,3.37,23.82,10.1,30.67,6.74,6.86,15.54,10.28,26.41,10.28,5.91,0,11.02-.83,15.33-2.48,4.31-1.65,7.95-3.54,10.9-5.67,1.42.71,2.66,1.83,3.72,3.37,1.06,1.54,1.59,3.31,1.59,5.32,0,1.54-.42,2.99-1.24,4.34-.83,1.36-2.25,2.63-4.25,3.81-2.6,1.66-6.15,3.16-10.64,4.52-4.49,1.36-10.22,2.04-17.2,2.04-10.05,0-19.12-2.07-27.21-6.2-8.1-4.14-14.51-10.37-19.23-18.7-4.73-8.33-7.09-18.76-7.09-31.29s2.39-22.81,7.18-31.2c4.79-8.39,11.2-14.71,19.24-18.97,8.04-4.25,16.78-6.38,26.24-6.38,6.73,0,12.58.74,17.55,2.22,4.96,1.48,8.83,3.4,11.61,5.76,2.77,2.37,4.16,4.79,4.16,7.27Z"/><path class="h" d="m1354.22,1005.3h-18.26v-58.5c.82-.24,2.04-.53,3.64-.89,1.59-.35,3.22-.53,4.87-.53,3.43,0,5.91.62,7.45,1.86,1.53,1.24,2.3,3.46,2.3,6.65v51.41Zm-18.26-18.79h18.26v67.36c-.71.24-1.83.53-3.37.88-1.54.36-3.19.53-4.96.53-3.43,0-5.94-.68-7.54-2.04-1.59-1.36-2.39-3.51-2.39-6.47v-60.27Z"/><path class="h" d="m1383.99,1017v-62.05c0-2.13.56-3.72,1.69-4.78,1.12-1.07,2.69-1.95,4.7-2.66,3.54-1.07,7.83-1.86,12.85-2.39,5.02-.53,9.84-.8,14.45-.8,15.24,0,26.53,3.25,33.86,9.75,7.33,6.5,10.99,15.24,10.99,26.23,0,7.45-1.63,13.92-4.88,19.41-3.25,5.49-8.13,9.75-14.62,12.76-6.5,3.01-14.65,4.52-24.46,4.52h-34.57Zm9.93,38.29c-3.43,0-5.94-.68-7.53-2.04-1.6-1.36-2.39-3.51-2.39-6.47v-38.29h18.44v45.38c-.83.24-2.01.53-3.54.88-1.54.36-3.19.53-4.97.53Zm8.33-53.18h15.25c8.39,0,14.92-1.8,19.59-5.41,4.67-3.6,7-9.01,7-16.22s-2.25-12.52-6.73-15.95c-4.49-3.43-10.93-5.14-19.32-5.14-2.96,0-5.76.12-8.42.35-2.66.24-5.11.59-7.36,1.06v41.31Z"/><path class="h" d="m1503.12,1013.81h-18.08v-57.44c0-2.95.89-5.35,2.66-7.18,1.77-1.83,4.19-2.75,7.27-2.75,1.65,0,3.28.18,4.88.53,1.59.35,2.69.71,3.28,1.06v65.77Zm-18.08-27.66h18.08v66.66c-.59.24-1.69.56-3.28.98-1.6.41-3.22.62-4.88.62-3.08,0-5.49-.91-7.27-2.75-1.77-1.83-2.66-4.22-2.66-7.18v-58.32Zm9.93-24.64v-15.07h58.68c.47.71.94,1.71,1.42,3.02.47,1.3.71,2.66.71,4.08,0,2.48-.59,4.43-1.77,5.85-1.18,1.42-2.84,2.13-4.97,2.13h-54.07Zm0,45.03v-14.89h53.36c.47.71.91,1.68,1.33,2.93.41,1.24.62,2.63.62,4.16,0,2.48-.59,4.4-1.77,5.76-1.18,1.36-2.84,2.04-4.96,2.04h-48.57Zm0,47.86v-15.07h59.56c.47.71.91,1.68,1.33,2.92.41,1.24.62,2.69.62,4.34,0,2.48-.56,4.4-1.69,5.76-1.12,1.36-2.81,2.04-5.05,2.04h-54.78Z"/><path class="h" d="m1679.86,1026.57c-1.06.71-2.39,1.36-3.99,1.95-1.6.59-3.4.89-5.41.89-2.48,0-4.61-.35-6.38-1.06-1.77-.71-3.02-1.89-3.72-3.55-5.56-12.52-10.37-23.75-14.45-33.68-4.08-9.93-7.3-18.2-9.66-24.82h-.71c-.35,8.39-.74,16.19-1.15,23.4-.42,7.21-.8,14.18-1.15,20.92-.36,6.74-.71,13.65-1.06,20.74-.36,7.09-.77,14.65-1.24,22.69-.94.36-2.16.65-3.63.89-1.48.24-2.99.35-4.52.35-3.19,0-5.53-.62-7-1.86-1.48-1.24-2.22-3.1-2.22-5.58,0-1.77.12-5.23.36-10.37.24-5.14.56-11.32.97-18.53.41-7.21.91-14.86,1.51-22.96.59-8.09,1.18-16.1,1.77-24.02.59-7.92,1.18-15.13,1.77-21.63.94-1.06,2.45-2.07,4.52-3.01,2.07-.94,4.64-1.42,7.71-1.42,3.54,0,6.47.65,8.77,1.95,2.31,1.3,4.05,3.31,5.23,6.03,2.72,5.56,5.43,11.64,8.16,18.26,2.72,6.62,5.41,13.24,8.06,19.85,2.66,6.62,5.17,12.83,7.54,18.61h.71c4.72-11.82,9.39-23.28,14-34.39,4.61-11.11,8.51-20.5,11.7-28.19,1.3-.59,2.89-1.09,4.79-1.51,1.89-.41,3.78-.62,5.67-.62,3.43,0,6.17.56,8.24,1.69s3.4,2.81,3.99,5.05c.47,2.13.98,5.61,1.51,10.46.53,4.85,1.09,10.49,1.68,16.93.59,6.44,1.18,13.24,1.77,20.39.59,7.15,1.12,14.12,1.59,20.92.47,6.8.91,12.97,1.33,18.53.41,5.56.68,9.93.8,13.12-1.3.83-2.66,1.42-4.08,1.77-1.42.36-3.13.53-5.14.53-2.37,0-4.43-.5-6.2-1.51-1.77-1-2.78-2.93-3.02-5.76-.71-10.87-1.33-21.45-1.86-31.73-.53-10.28-1.01-19.7-1.42-28.27-.42-8.57-.8-15.69-1.15-21.36h-.71c-2.25,6.15-5.35,13.95-9.31,23.4-3.96,9.46-8.95,21.63-14.98,36.52Z"/><path class="h" d="m1794.2,961.16h-.71c-1.66,4.61-3.55,9.99-5.67,16.13-2.13,6.15-4.34,12.5-6.65,19.06-2.31,6.56-4.46,12.79-6.47,18.7l-1.6,6.74c-.71,2.25-1.54,4.85-2.48,7.8-.95,2.96-1.92,6-2.93,9.13-1.01,3.13-1.98,6.09-2.92,8.86-.95,2.78-1.71,5.05-2.31,6.83-.95.47-1.98.82-3.1,1.06-1.13.24-2.51.36-4.17.36-2.83,0-5.17-.65-7-1.95-1.83-1.3-2.75-3.19-2.75-5.67,0-1.3.21-2.57.62-3.81.41-1.24.86-2.63,1.33-4.17,1.3-3.9,2.95-8.77,4.97-14.62,2.01-5.85,4.25-12.2,6.73-19.06,2.48-6.85,5.02-13.83,7.62-20.92,2.6-7.09,5.11-13.85,7.53-20.3,2.42-6.44,4.64-12.14,6.65-17.1,1.18-.59,2.98-1.21,5.41-1.86,2.42-.65,4.87-.98,7.36-.98,3.19,0,6.15.47,8.87,1.42,2.72.95,4.49,2.54,5.32,4.78,2.6,6.62,5.43,14.21,8.51,22.78,3.07,8.57,6.17,17.46,9.31,26.68,3.13,9.22,6.12,18.2,8.95,26.94,2.83,8.75,5.38,16.66,7.62,23.76-.95,1.18-2.28,2.13-3.99,2.83-1.71.71-3.63,1.07-5.76,1.07-3.19,0-5.5-.59-6.92-1.77-1.42-1.18-2.54-3.19-3.37-6.03l-8.51-26.06-1.95-7.98c-2.13-6.62-4.28-13.23-6.47-19.86-2.19-6.62-4.26-12.76-6.21-18.43-1.95-5.67-3.58-10.46-4.87-14.36Zm-29.61,65.77l6.56-14.71h46.98l3.01,14.71h-56.55Z"/><path class="h" d="m1949.84,1029.76v-5.67,27.83c-1.18.95-2.78,1.74-4.79,2.39-2.01.65-4.32.97-6.91.97-3.19,0-6-.56-8.42-1.68-2.42-1.12-4.58-3.4-6.47-6.83l-29.78-51.94c-1.65-2.95-3.43-6.17-5.32-9.66-1.89-3.48-3.66-6.83-5.32-10.02-1.66-3.19-3.02-5.97-4.08-8.33l-17.2,4.08v-21.45c1.18-1.3,2.84-2.31,4.97-3.02s4.37-1.06,6.73-1.06c3.19,0,6.03.59,8.51,1.77,2.48,1.18,4.67,3.43,6.56,6.74l29.96,51.94c1.77,2.96,3.57,6.18,5.41,9.66,1.83,3.49,3.52,6.83,5.05,10.02s2.84,5.97,3.9,8.33l17.2-4.08Zm-88.28-65.24l15.96-.89c.47,4.14.89,8.69,1.24,13.65.35,4.96.59,9.96.71,14.98.12,5.03.18,9.84.18,14.45v47.16c-.71.24-1.86.53-3.46.88-1.6.36-3.22.53-4.88.53-3.31,0-5.76-.65-7.36-1.95-1.6-1.3-2.39-3.43-2.39-6.38v-82.43Zm88.28,71.62l-16.13.71c-1.07-9.45-1.66-18.97-1.77-28.54-.12-9.57-.18-18.79-.18-27.65v-34.04c.82-.24,2.01-.5,3.54-.8,1.53-.29,3.13-.44,4.79-.44,3.43,0,5.91.62,7.45,1.86,1.53,1.24,2.3,3.34,2.3,6.29v82.61Z"/><path class="h" d="m2018.27,961.16h-.71c-1.66,4.61-3.55,9.99-5.67,16.13-2.13,6.15-4.34,12.5-6.65,19.06-2.31,6.56-4.46,12.79-6.47,18.7l-1.6,6.74c-.71,2.25-1.54,4.85-2.48,7.8-.95,2.96-1.92,6-2.93,9.13-1.01,3.13-1.98,6.09-2.92,8.86-.95,2.78-1.71,5.05-2.31,6.83-.95.47-1.98.82-3.1,1.06-1.13.24-2.51.36-4.17.36-2.83,0-5.17-.65-7-1.95-1.83-1.3-2.75-3.19-2.75-5.67,0-1.3.21-2.57.62-3.81.41-1.24.86-2.63,1.33-4.17,1.3-3.9,2.95-8.77,4.97-14.62,2.01-5.85,4.25-12.2,6.73-19.06,2.48-6.85,5.02-13.83,7.62-20.92,2.6-7.09,5.11-13.85,7.53-20.3,2.42-6.44,4.64-12.14,6.65-17.1,1.18-.59,2.98-1.21,5.41-1.86,2.42-.65,4.87-.98,7.36-.98,3.19,0,6.15.47,8.87,1.42,2.72.95,4.49,2.54,5.32,4.78,2.6,6.62,5.43,14.21,8.51,22.78,3.07,8.57,6.17,17.46,9.31,26.68,3.13,9.22,6.12,18.2,8.95,26.94,2.83,8.75,5.38,16.66,7.62,23.76-.95,1.18-2.28,2.13-3.99,2.83-1.71.71-3.63,1.07-5.76,1.07-3.19,0-5.5-.59-6.92-1.77-1.42-1.18-2.54-3.19-3.37-6.03l-8.51-26.06-1.95-7.98c-2.13-6.62-4.28-13.23-6.47-19.86-2.19-6.62-4.26-12.76-6.21-18.43-1.95-5.67-3.58-10.46-4.87-14.36Zm-29.61,65.77l6.56-14.71h46.98l3.01,14.71h-56.55Z"/><path class="h" d="m2172.31,1002.64v38.11c0,2.48-.62,4.49-1.86,6.03-1.24,1.54-3.16,2.96-5.76,4.26-2.96,1.66-7.18,3.01-12.68,4.08-5.49,1.06-11.02,1.59-16.57,1.59-10.99,0-20.83-1.98-29.52-5.94-8.69-3.96-15.45-10.1-20.3-18.43-4.85-8.33-7.27-18.94-7.27-31.82s2.51-22.98,7.54-31.38c5.02-8.39,11.73-14.68,20.12-18.88,8.39-4.2,17.67-6.29,27.83-6.29,6.85,0,12.88.74,18.08,2.22,5.2,1.48,9.22,3.37,12.05,5.67,2.84,2.31,4.25,4.76,4.25,7.36,0,1.89-.53,3.58-1.59,5.05-1.06,1.48-2.31,2.63-3.72,3.46-3.19-2.13-6.98-4.08-11.35-5.85-4.37-1.77-9.87-2.66-16.49-2.66-7.21,0-13.68,1.57-19.41,4.7-5.73,3.13-10.25,7.77-13.56,13.91-3.31,6.15-4.96,13.71-4.96,22.69,0,9.46,1.68,17.2,5.05,23.22,3.37,6.03,7.98,10.49,13.83,13.38,5.85,2.9,12.44,4.34,19.76,4.34,3.9,0,7.5-.32,10.82-.98,3.31-.65,5.91-1.45,7.8-2.39v-28.9h-25c-.35-.71-.74-1.71-1.15-3.01-.42-1.3-.62-2.66-.62-4.08,0-2.6.59-4.55,1.77-5.85,1.18-1.3,2.77-1.95,4.79-1.95h29.78c2.36,0,4.34.77,5.94,2.3,1.59,1.54,2.39,3.55,2.39,6.03Z"/><path class="h" d="m2216.63,1013.81h-18.08v-57.44c0-2.95.89-5.35,2.66-7.18,1.77-1.83,4.19-2.75,7.27-2.75,1.65,0,3.28.18,4.88.53,1.59.35,2.69.71,3.28,1.06v65.77Zm-18.08-27.66h18.08v66.66c-.59.24-1.69.56-3.28.98-1.6.41-3.22.62-4.88.62-3.08,0-5.49-.91-7.27-2.75-1.77-1.83-2.66-4.22-2.66-7.18v-58.32Zm9.93-24.64v-15.07h58.68c.47.71.94,1.71,1.42,3.02.47,1.3.71,2.66.71,4.08,0,2.48-.59,4.43-1.77,5.85-1.18,1.42-2.84,2.13-4.97,2.13h-54.07Zm0,45.03v-14.89h53.36c.47.71.91,1.68,1.33,2.93.41,1.24.62,2.63.62,4.16,0,2.48-.59,4.4-1.77,5.76-1.18,1.36-2.84,2.04-4.96,2.04h-48.57Zm0,47.86v-15.07h59.56c.47.71.91,1.68,1.33,2.92.41,1.24.62,2.69.62,4.34,0,2.48-.56,4.4-1.69,5.76s-2.81,2.04-5.05,2.04h-54.78Z"/><path class="h" d="m2330.08,1014.87h-36.7v-59.92c0-2.13.56-3.72,1.69-4.78,1.12-1.07,2.69-1.95,4.7-2.66,3.54-1.07,7.86-1.86,12.94-2.39,5.08-.53,10.16-.8,15.24-.8,15.13,0,26.44,3.13,33.95,9.39,7.5,6.27,11.26,14.89,11.26,25.88,0,6.97-1.68,13.12-5.05,18.43-3.37,5.32-8.24,9.46-14.63,12.41-6.38,2.96-14.18,4.43-23.4,4.43Zm-36.7-5.85h18.44v44.85c-.83.24-2.01.53-3.54.88-1.54.36-3.19.53-4.97.53-3.43,0-5.94-.68-7.53-2.04-1.6-1.36-2.39-3.51-2.39-6.47v-37.76Zm18.26-8.86h17.73c7.8,0,13.97-1.71,18.53-5.14,4.55-3.43,6.82-8.57,6.82-15.42s-2.33-11.64-7-15.07c-4.67-3.43-11.43-5.14-20.3-5.14-2.83,0-5.61.12-8.33.35-2.72.24-5.2.59-7.45,1.06v39.36Zm17.2,9.57l14.71-5.49c3.19,4.02,6.44,8.15,9.75,12.41,3.31,4.25,6.53,8.39,9.66,12.41,3.13,4.02,5.91,7.62,8.33,10.81,2.42,3.19,4.34,5.73,5.76,7.62-.59,2.48-1.89,4.46-3.9,5.94-2.01,1.48-4.08,2.22-6.2,2.22-2.72,0-4.91-.65-6.56-1.95-1.66-1.3-3.25-3.13-4.79-5.5l-26.77-38.47Z"/><path class="h" d="m368.09,941.08l-7.41,106.78c0,.08-.02.16-.04.24-.5,1.7-6.32,23.25,15.82,29.59,0,0,42.12,14.74,75.91.77.07-.03.14-.06.2-.1,1.46-.89,17.6-11.31,4.51-28.18-3.88-5-9.2-8.68-15.1-10.99-7.37-2.88-20.18-6.71-40.64-9.43-.63-.08-1.11-.63-1.08-1.27l3.77-81.35c.01-.27-.06-.52-.21-.74-1.54-2.3-11.11-14.61-34.88-6.41-.47.16-.81.6-.85,1.1Z"/><path class="h" d="m570.22,933.34l6.95,106.81c0,.08,0,.16,0,.24-.26,1.75-3.15,23.89,19.64,27.21,0,0,43.72,8.97,75.33-9.39.07-.04.13-.08.19-.13,1.42-1.15,17.97-15.31-2.84-31.61-2.98-2.34-6.44-4.01-10.08-5.05-7.07-2.01-20.92-4.7-44.36-4.65-.63,0-1.18-.48-1.24-1.11l-7.16-81.13c-.02-.27-.13-.51-.31-.71-1.83-2.07-12.97-12.99-35.42-1.69-.44.22-.73.7-.69,1.2Z"/><path class="h" d="m868.4,628.7s11.75,10.06,30.04-1.53c0,0,61.58-31.6,84.29-72.31,0,0,22.33-2.67,53.34-36.25,3.72-4.03,6.46-8.98,7.31-14.4,1.21-7.68-1.22-16.78-19.87-16.19,0,0-5.34,2.06-6.12-3.48,0,0,6.94-20.59-7.47-24.65,0,0-11.96-5.47-26.28,13.74,0,0-5.51,4.92-6.4-.52,0,0,1.44-14.25-15.96-15.51,0,0-10.94-.34-17.05,15.53-2.74,7.12-2.57,15.02.06,22.18,4.14,11.29,10,30.6,3.95,36.11,0,0-36.37,44.09-73.63,60.89,0,0-26.46,15.07-6.21,36.39Z"/><path class="e" d="m802.18,382.38c-50.3-69.18-127.1-114.25-211.6-127.53-91.17-14.33-250.16-19.98-393.42,71.79-216.5,138.68-91.79,411.05-91.79,411.05,0,0,94.78,225.48,382.67,187.16,79.74-10.61,159.69-22.13,226.26-67.28,66.02-44.77,131.75-118.95,145.32-239.61,11.75-104.57-17.99-181.31-57.45-235.58Z"/><path class="f" d="m486.55,246.66c39.68,0,75.24,3.66,104.03,8.18,84.5,13.28,161.29,58.35,211.6,127.53,39.46,54.27,69.2,131.01,57.45,235.58-13.56,120.66-79.3,194.84-145.32,239.61-66.57,45.15-146.53,56.67-226.26,67.28-22.56,3-43.89,4.38-64.13,4.38-237.99,0-318.55-191.55-318.55-191.55,0,0-124.71-272.37,91.79-411.05,98.03-62.79,203.41-79.97,289.4-79.97m0-35.92c-116.17,0-220.05,28.81-308.77,85.64C77.81,360.43,28.16,460.53,34.2,585.89c4.27,88.71,35.29,159.59,38.32,166.32,2.78,6.4,25.84,57.08,78,107.16,50.27,48.26,138.51,105.78,273.39,105.78,22.28,0,45.45-1.58,68.87-4.7,78.03-10.38,166.48-22.16,241.68-73.15,41.51-28.15,75.82-62.14,101.97-101.03,32.19-47.87,52-103.14,58.88-164.3,11.15-99.18-10.41-186.9-64.09-260.72-27.7-38.1-62.55-69.87-103.58-94.42-40.3-24.12-84.54-40.09-131.49-47.47-36.39-5.72-73.27-8.62-109.6-8.62h0Z"/><ellipse class="g" cx="202.47" cy="411.95" rx="54.87" ry="29.93" transform="translate(-255.9 436.28) rotate(-66.86)"/><ellipse class="g" cx="216.12" cy="417.99" rx="75.11" ry="29.93" transform="translate(-253.93 396.16) rotate(-60)"/><path class="j" d="m353.12,266.72S-9.04,343.54,95.32,686.08c0,0,65.25,219.25,300.7,230.32"/><path class="h" d="m125.95,697.75s-14.36-5.75-27.95,11.12c0,0-48.14,49.74-56.53,95.59,0,0-20.28,9.72-38.83,51.49-2.23,5.01-3.23,10.58-2.29,15.98,1.33,7.66,6.56,15.49,24.02,8.93,0,0,4.39-3.67,6.92,1.32,0,0,.06,21.72,15,20.93,0,0,13.08,1.33,20.45-21.47,0,0,3.63-6.43,6.23-1.57,0,0,3.23,13.96,20.11,9.54,0,0,10.46-3.2,11.14-20.19.3-7.62-2.4-15.05-7.19-20.98-7.56-9.36-19.31-25.75-15.36-32.92,0,0,20.24-53.45,50.11-81.35,0,0,20.2-22.79-5.83-36.45Z"/><ellipse class="h" cx="455.4" cy="512.31" rx="50.22" ry="66.51"/><ellipse class="h" cx="738.19" cy="497.36" rx="41.32" ry="64.11" transform="translate(-48.53 81) rotate(-6.08)"/><path class="h" d="m551.18,599.04c-4.55-.88-11.31-.84-15.62,5.32-2.35,3.36-2.94,7.66-2.03,11.66,3.06,13.59,17.23,49.13,82,50.96.45.01.9,0,1.35-.01,7.04-.37,64.99-4.67,84.91-46.97.63-1.34,1.04-2.77,1.25-4.23.42-2.86.93-7.97.36-13.12-1.14-10.2-11.48-17.03-21-13.18-2.57,1.04-5.22,2.72-7.7,5.37,0,0-35.58,38.57-61.19,34.92,0,0-21.88,1.27-55.12-27.16-2.07-1.77-4.54-3.03-7.21-3.54Z"/><path class="i" d="m374.62,190.48s-61.19-56.54-158.97-9.98c0,0-8.82,2.76,3.55,9.77.61.35,51.26,37.76,127.6,35.48.29,0,.58-.15.86-.09,5.12,1.09,12.44.42,10.99,13.58-.04.32-.02.64-.09.96-.48,2.47-1.04,15.65-11.88,28.11,0,0-15.86,15.25-13.7,51.59.17,2.79,2.81,4.73,5.52,4.07,11.4-2.81,40.52-14.51,74.03-62.97,0,0,7.64-11.46,20.43-3.85.54.32,1,.78,1.37,1.29,4.43,6.22,38.52,48.26,146.45,39.87.42-.03,9.95-.95,6.01-6.53-2.76-4.57-7.82-11.96-14.8-18.14,0,0-18.46-21.45-47.64-33.17,0,0-25.19-10.23-18.46-21.7,0,0,.97-3.89,14.45-7.35.34-.09.67-.21.98-.38,6.51-3.49,79.98-43.7,88.08-87.55,0,0,2.68-5.24-8.36-3.24,0,0-71.73,6.71-105.47,45.95-.11.13-.2.24-.29.37-2.04,2.85-27.63,38.44-39.37,43.39-.62.26-1.3.31-1.97.25-3.53-.32-14.65-1.82-14.65-7.9,0,0,2.51-111.83-20.95-146.66,0,0-12.85-20.08-26.94-29.81,0,0-1.87-2.74-9.48-1.5,0,0-25.18,6.3-38.24,17.87-1.6,1.42-1.92,3.81-.77,5.62.68,1.07,1.79,2.31,3.59,3.69,0,0,59.81,32.4,69.09,141.61,0,.32-.03.63-.1.94-.57,2.66-4.1,14.6-20.32,8.95-.19-.07-.36-.14-.54-.22-1.93-.93-14.48-7.1-20.04-12.31Z"/><path class="f" d="m385.6,24c4.57,0,5.82,1.82,5.82,1.82,14.09,9.73,26.94,29.81,26.94,29.81,23.46,34.83,20.95,146.66,20.95,146.66,0,6.08,11.12,7.58,14.65,7.9.17.02.34.02.51.02.5,0,1-.08,1.47-.27,11.74-4.95,37.33-40.54,39.37-43.39.1-.14.18-.25.29-.37,33.74-39.24,105.47-45.95,105.47-45.95,1.77-.32,3.18-.45,4.31-.45,5.94,0,4.04,3.7,4.04,3.7-8.1,43.85-81.57,84.06-88.08,87.55-.31.16-.64.29-.98.38-13.48,3.46-14.45,7.35-14.45,7.35-6.73,11.47,18.46,21.7,18.46,21.7,29.18,11.72,47.64,33.17,47.64,33.17,6.97,6.18,12.03,13.57,14.8,18.14,3.95,5.57-5.59,6.5-6.01,6.53-9.74.76-18.87,1.1-27.43,1.1-86.41,0-114.99-35.31-119.02-40.97-.36-.51-.83-.97-1.37-1.29-3.19-1.9-6.05-2.61-8.56-2.61-7.56,0-11.87,6.46-11.87,6.46-33.51,48.46-62.63,60.16-74.03,62.97-.36.09-.72.13-1.08.13-2.29,0-4.3-1.78-4.44-4.2-2.16-36.34,13.7-51.59,13.7-51.59,10.85-12.46,11.41-25.64,11.88-28.11.06-.32.05-.64.09-.96,1.45-13.15-5.86-12.49-10.99-13.58-.05-.01-.1-.01-.15-.01-.24,0-.48.1-.72.11-2.26.07-4.5.1-6.71.1-72.58,0-120.29-35.24-120.89-35.58-12.36-7.01-3.55-9.77-3.55-9.77,28.52-13.58,53.92-18.39,75.61-18.39,52.66,0,83.36,28.37,83.36,28.37,5.56,5.21,18.11,11.38,20.04,12.31.18.09.35.16.54.22,3.04,1.06,5.63,1.5,7.85,1.5,9.59,0,12-8.29,12.47-10.45.07-.31.1-.62.1-.94-9.28-109.21-69.09-141.61-69.09-141.61-1.8-1.38-2.92-2.62-3.59-3.69-1.14-1.81-.83-4.2.77-5.62,13.05-11.58,38.24-17.87,38.24-17.87,1.41-.23,2.62-.33,3.66-.33M385.6,0h0S385.6,0,385.6,0c-2.41,0-4.95.22-7.54.64l-.98.16-.96.24c-5.16,1.29-31.73,8.47-48.34,23.2-10.45,9.27-12.61,24.58-5.13,36.41,2.27,3.59,5.38,6.91,9.24,9.88l1.79,1.38,1.27.63c1.47.9,12.94,8.29,25.09,25.51,13.65,19.33,23.33,44.16,28.47,72.73-3.95-3.25-12.53-9.7-25.13-15.97-21.96-10.92-46.89-16.69-72.11-16.69-27.82,0-56.39,6.81-84.94,20.25-9.7,3.87-16.5,12.49-17.56,22.5-.81,7.58,1.68,15.12,7.01,21.21,2.7,3.09,6.17,5.87,10.58,8.48,5.53,3.8,19.34,12.59,39.69,20.86,27.19,11.05,55.64,17.18,84.7,18.26-.53.83-1.14,1.67-1.84,2.5-2.51,2.68-7.46,8.72-11.82,18.58-6.46,14.62-9.17,31.63-8.05,50.55.89,15.01,13.37,26.77,28.4,26.77,2.29,0,4.59-.28,6.82-.83,15.97-3.94,46.93-17.39,81.19-63.12,6.06,5.58,14.69,12.11,26.5,18.21,27.02,13.96,61.14,21.04,101.42,21.04,9.4,0,19.26-.4,29.3-1.18,12.18-.95,22.12-7.21,26.6-16.76,4-8.53,3.15-18.41-2.24-26.63-3.72-6.07-9.72-14.56-17.96-22.13-4.41-4.86-19.53-20.38-42.63-32.45,8.96-5.47,21.05-13.39,33.24-23.03,30.14-23.84,47.96-47.89,52.98-71.53,2.03-7.05,1.09-14.75-2.76-21.03-2.37-3.87-9.49-12.87-24.52-12.87-2.38,0-4.87.22-7.59.67-4.46.49-22.33,2.71-43.64,9.04-33.88,10.07-59.7,25.23-76.75,45.05-.58.68-1.11,1.35-1.62,2.07-4.08,5.71-8.51,11.51-12.75,16.76-.27-8.75-.72-18.66-1.46-29.05-3.39-47.58-10.97-79.59-23.15-97.86-2.13-3.3-15.45-23.35-31.86-35.31C402.39,3.6,395.67,0,385.6,0h0Z"/><path class="k" d="m344.62,305.18c16.35-8.11,36.96-21.66,53.3-44.25,2.72-3.76,5.13-7.5,7.27-11.19"/><path class="k" d="m479.08,273.06c12.96,6.72,31.77,13.61,55.51,13.46,3.95-.02,7.76-.24,11.41-.6"/><path class="k" d="m229.3,183.53c21.81,13.27,52.71,27.52,89.36,30.06,6.1.42,11.93.49,17.47.29"/><path class="k" d="m512.54,202.53c16.28-5.33,61.78-34.06,75.56-56.97"/></g></svg>