<svg width="65" height="34" viewBox="0 0 65 34" fill="none" xmlns="http://www.w3.org/2000/svg">
<path d="M17.1837 8.45571L19.1417 3.46645C19.1417 3.46645 19.3048 3.02562 18.9553 2.56159C18.9553 2.56159 14.5965 -1.3372 6.55486 0.867413C-1.48682 3.07203 1.40332 12.1926 1.40332 12.1926C1.40332 12.1926 2.16283 14.9029 6.41457 16.509C6.41457 16.509 11.0296 17.9247 11.0763 19.5489C11.1172 20.976 8.74684 20.8988 8.1709 20.8586C8.09766 20.8533 8.0249 20.8505 7.95166 20.8486C7.58641 20.8387 6.18771 20.7042 4.17694 19.3168C4.17694 19.3168 3.338 18.6904 2.75493 19.456L0.144918 24.2057C-0.150897 24.7441 0.0188882 25.4217 0.538228 25.7522C0.546789 25.7574 0.555351 25.7631 0.563911 25.7683C0.563911 25.7683 7.50984 30.0151 14.2465 27.3696C20.9827 24.7242 18.9781 17.6459 18.9781 17.6459C18.9781 17.6459 17.6027 13.3758 13.4304 12.1457C9.25809 10.9155 9.39792 9.19863 9.39792 9.19863C9.39792 9.19863 9.2443 7.43627 11.6355 7.38844C13.7362 7.34678 15.0336 8.18866 15.4978 8.57977C15.728 8.77343 16.01 8.90127 16.3101 8.93063C16.6406 8.9633 17.0135 8.88754 17.1828 8.45619L17.1837 8.45571Z" fill="#113D21"/>
<path d="M22.2416 25.6054C22.2416 25.6054 21.7959 25.1641 21.5192 26.023L19.5146 30.3086C19.5146 30.3086 19.2573 30.7443 19.6078 31.0047C19.6078 31.0047 21.5486 33.1998 25.9245 33.1937C29.0306 33.0805 30.3208 32.5843 30.6951 32.4025C30.7859 32.3584 30.8768 32.3158 30.9695 32.2765C31.7999 31.9271 35.7962 29.8929 35.9009 23.0523C35.9009 23.0523 35.9009 12.1495 36.6932 8.99313C36.6932 8.99313 37.136 7.43816 35.6441 7.34535H31.2387C31.2387 7.34535 30.1858 7.18294 30.3299 9.24835C30.3299 9.24835 30.6794 16.0899 29.5375 17.8305C29.5375 17.8305 29.1647 18.8519 27.6495 18.805C26.3373 18.7647 25.847 16.3835 25.739 15.7462C25.7229 15.6505 25.7148 15.5544 25.7143 15.4578L25.6915 8.21517C25.6915 8.21517 25.8223 7.27101 24.8991 7.34488H19.818C19.818 7.34488 19.0956 7.36808 19.1422 7.97132C19.1422 7.97132 20.0282 18.1549 20.1214 18.9669C20.2146 19.779 21.1235 23.7474 24.62 24.6527C28.1165 25.5576 30.1444 22.6337 30.1444 22.6337C30.1444 22.6337 30.5638 26.4397 27.3008 27.1125C27.3008 27.1125 24.9553 27.8417 22.243 25.604L22.2416 25.6054Z" fill="#113D21"/>
<path d="M38.8452 8.91168H37.8194C37.8194 8.91168 37.0737 8.91168 37.0423 9.80896V13.7698C37.0423 13.7698 36.9291 14.812 37.7262 14.7911H38.8452V26.3634C38.8452 26.3634 38.7211 27.694 39.7774 27.632H44.1903C44.1903 27.632 45.589 27.7555 45.5267 26.3322L45.2471 14.7599L48.9491 14.6936C48.9491 14.6936 49.7885 14.7656 49.6948 13.6107L49.66 9.80896C49.66 9.80896 49.7171 8.8274 48.7897 8.91168H45.433L45.4059 6.62373C45.4021 6.29702 45.5082 5.97456 45.7231 5.72787C45.9985 5.41252 46.4508 5.20039 47.08 5.87892L48.0744 6.83823C48.0744 6.83823 48.385 7.17867 48.7892 6.90025C48.7892 6.90025 50.9028 5.13647 51.2447 3.77516C51.2447 3.77516 51.3522 3.33717 51.2447 2.75382C51.2447 2.75382 50.4976 0.122113 45.4397 0.00184454C44.9104 -0.0109399 44.382 0.0425655 43.8679 0.167569C42.4687 0.507068 39.9353 1.50047 39.2485 4.30122L38.8443 8.91168H38.8452Z" fill="#113D21"/>
<path d="M53.2659 3.18753V7.36474H51.6242C51.5148 7.36474 51.4059 7.35906 51.297 7.35149C51.0716 7.33633 50.566 7.38084 50.6555 8.10719L50.6483 12.5008C50.6483 12.5008 50.519 13.1386 51.2737 13.1197L52.9245 13.14C52.9245 13.14 52.7181 18.7074 52.7071 20.9788C52.7071 20.9788 52.5516 25.7128 56.5608 27.291C56.5608 27.291 59.762 28.9307 63.8021 25.7749C63.8021 25.7749 64.2063 25.1868 64.0508 24.6607C64.0508 24.6607 63.1719 21.6853 62.9941 21.1024C62.9941 21.1024 62.7767 20.3599 61.9373 20.7312C61.9373 20.7312 60.4454 21.4428 59.6065 20.7619C59.6065 20.7619 58.7984 20.1738 58.7984 18.1629V13.2432H62.4966C62.4966 13.2432 63.3669 13.2432 63.4601 12.2531L63.5843 8.09583C63.5843 8.09583 63.6979 7.34533 62.8385 7.34533H59.3278L59.3577 3.37267C59.3577 3.37267 59.4728 2.38258 58.5188 2.38258H54.4787C54.4787 2.38258 53.2369 2.30967 53.2664 3.18706L53.2659 3.18753Z" fill="#113D21"/>
</svg>
