<?xml version="1.0" encoding="utf-8"?>
<svg version="1.1" xmlns="http://www.w3.org/2000/svg" xmlns:xlink="http://www.w3.org/1999/xlink" x="0px" y="0px"
	 viewBox="0 0 1440 1440" style="enable-background:new 0 0 1440 1440;" xml:space="preserve">
<style type="text/css">
	.st0{fill:#132125;}
	.st1{fill:#EE3529;}
	.st2{fill:#F7F8F4;}
	.st3{fill:#B62125;}
	.st4{fill:#DC535A;}
	.st5{fill:#C3DAE3;}
	.st6{fill:#99CA41;}
	.st7{fill:#3E9C60;}
	.st8{fill:#EE4534;}
	.st9{fill:#132125;stroke:#132125;stroke-width:12;stroke-miterlimit:10;}
</style>
<g id="Template">
</g>
<g id="Tomato_00000056427284138669494280000001296800753530447523_">
</g>
<g id="Hat">
</g>
<g id="Leaves">
</g>
<g id="Layer_5">
	<g>
		<g>
			<ellipse class="st0" cx="707.365" cy="557.645" rx="284.189" ry="262.183"/>
			<ellipse class="st1" cx="707.365" cy="557.645" rx="260.075" ry="239.936"/>
			<path class="st2" d="M495.677,649.99c0,0,2.866,7.799,17.118,24.624c4.59,5.418,6.909,12.499,6.05,19.548
				c-0.783,6.423-4.071,12.908-13.757,14.307c0,0-91.222-91.195-44.747-226.082c0,0,16.355-54.423,65.307-96.262
				c0,0,26.725,2.498,1.047,23.955C526.695,410.081,426.547,505.159,495.677,649.99z"/>
			<path class="st3" d="M956.424,488.337c0,0,51.24,126.414-60.122,237.776c0,0-113.387,120.877-293.519,51.279
				c-15.926-5.485-39.839-20.177-39.839-20.177s1.838-43.257,35.079-32.464c0,0,159.946,55.64,247.37-18.885
				c0,0,83.237-68.299,83.889-186.74C929.284,519.126,925.903,487.26,956.424,488.337z"/>
			<path class="st4" d="M950.862,576.69c0,0,9.01-67.035-25.709-119.052c-1.064-7.021,2.527-15.264,6.956-20.814
				c0,0,59.445,82.562,26.681,186.598c-13.335,48.053-40.725,86.977-80.271,118.767c0,0-40.463,34.163-101.271,48.969
				c0,0-11.681-11.562,6.845-22.229C784.095,768.929,933.722,736.256,950.862,576.69z"/>
			<circle class="st0" cx="602.439" cy="521.91" r="36.783"/>
			<circle class="st0" cx="812.291" cy="523.227" r="36.783"/>
			<circle id="left-eye" class="st2" cx="594.545" cy="506.245" r="13.937" fill="white"/>
			<circle id="right-eye" class="st2" cx="805.379" cy="506.245" r="13.937" fill="white"/>
			<path class="st0" d="M768.383,601.919c0,0-50.363,39.272-121.817,0c0,0-23.759-8.995-14.978,20.73
				c0,0,21.19,38.066,67.424,40.923c0,0,58.844,5.185,82.993-39.587C782.005,623.985,794.765,594.352,768.383,601.919z"/>
			<g>
				<path class="st0" d="M522.858,110.963c0,0-82.706-14.159-111.214,70.086c0,0-16.909,48.382,34.956,86.496
					c0,0,30.527,20.914,67.505,8.611l26.354,81.194c0,0,159.304-49.588,258.054-54.994c-12.024-44.853-18.527-74.45-18.527-74.45
					s52.758-8.69,58.171-66.518c2.399-25.63-5.855-51.313-23.84-69.73c-12.327-12.623-30.925-24.154-58.547-26.937
					c0,0-26.733-4.261-57.926,14.664c0,0-37.602-40.785-93.623-28.229C604.222,51.154,549.173,58.747,522.858,110.963z"/>
				<path class="st2" d="M684.792,99.732c-9.244-13.948-31.058-35.092-75.98-27.484c-0.365,0.062-0.729,0.107-1.099,0.133
					c-5.005,0.351-46.867,4.759-65.046,54.524c-2.044,5.596-7.983,8.732-13.783,7.368c-19.969-4.695-70.654-2.661-93.051,39.889
					c0,0-26.823,68.187,52.713,77.068c0.811,0.196,1.642,0.304,2.476,0.326c6.247,0.165,31.942-0.707,45.093-25.048
					c2.167-4.011,1.741-8.925-0.99-12.576c-3.638-4.864-8.691-12.98-11.52-23.466c-1.437-5.326,0.917-10.948,5.772-13.566
					l0.178-0.096c5.771-3.112,12.916-0.895,16.04,4.87c6.996,12.909,23.463,33.361,59.307,39.888c0,0,60.979,10.561,89.52-44.26
					c0.1-0.192,0.203-0.376,0.314-0.561c0.973-1.614,6.519-11.415,7.841-27.105c0.485-5.755,4.966-10.363,10.718-10.878l0.167-0.015
					c6.816-0.61,12.689,4.681,12.859,11.522c0.168,6.784-0.356,15.335-3.001,23.087c-1.672,4.899-0.111,10.338,4.056,13.409
					c11.5,8.475,35.266,20.718,61.955,3.877c0,0,38.705-22.353,15.712-70.941c-2.647-5.594-6.37-10.619-10.973-14.755
					c-10.928-9.82-33.755-24.266-66.525-14.193c-0.33,0.102-0.661,0.189-0.999,0.259c-2.093,0.433-11.662,2.796-25.374,12.001
					C695.753,106.647,688.398,105.173,684.792,99.732z"/>
				<path class="st2" d="M564.554,240.842l-24.991,26.942l17.641,59.297c0,0,155.411-39.731,208.126-45.977l-10.91-53.599
					c0,0-26.156-1.375-44.313-19.164c0,0-26.662,36.053-64.959,42.275C645.148,250.616,609.834,262.328,564.554,240.842z"/>
				<path class="st5" d="M784.665,97.786c0,0,14.753,44.377-14.408,60.608c0,0-19.486,14.891-44.385,3.082
					c0,0-0.94,10.714-5.811,19.024c6.253,5.926,36.826,34.338,72.806,7.608c0,0,31.055-20.303,15.377-61.869
					C808.245,126.239,802.899,108.159,784.665,97.786z"/>
				<path class="st5" d="M703.194,146.722l-15.381,0.457c0,0-11.947,57.081-92.145,54.636c0,0,14.761,11.574,12.879,20.188
					c0,0,44.724,7.191,74.528-27.862C683.077,194.141,701.386,176.395,703.194,146.722z"/>
				<path class="st5" d="M523.367,189.367c0,0,3.671,13.149,13.01,26.286c2.197,3.091,2.583,7.181,0.816,10.536
					c-11.564,21.955-50.155,40.397-89.168,10.213c0,0-3.424-3.604,0.796-6.872l6.631-2.663c1.535-0.617,3.28-0.485,4.677,0.401
					c3.996,2.536,14.564,6.756,35.181-0.047c5.404-1.783,10.043-5.34,13.265-10.031C513.501,210.02,520.688,198.581,523.367,189.367
					z"/>
				<path class="st5" d="M595.669,251.315c0,0,68.009,17.491,114.439-42.974c0,0,12.902,14.27,44.313,19.164l10.91,53.599
					c0,0-25.012,3.002-40.329,6.968c0,0-10.301-15.811-19.897-51.814C705.105,236.258,643.18,273.233,595.669,251.315z"/>
			</g>
			<path class="st0" d="M709.05,243.825c0.406,7.281,0.773,23.628-2.923,36.555c-1.482,5.183-6.607,8.406-11.95,7.686
				c-10.244-1.381-31.425-1.51-69.285,8.811c-7.094,1.934-13.947,4.668-20.477,8.048c-11.229,5.813-35.608,15.427-70.77,13.022
				c-0.341-0.023-0.686-0.023-1.027-0.001c-1.125,0.073-4.08,0.206-7.672-0.108c-5.285-0.462-9.677,3.969-9.064,9.239
				c0.368,3.163,1.254,7.08,3.032,11.822c0.582,1.551,1.517,2.953,2.722,4.088c8.369,7.881,45.068,39.348,93.266,34.934
				c9.528-0.873,12.883,12.259,4.048,15.929c-0.008,0.003-0.015,0.006-0.023,0.009c-1.798,0.746-3.398,1.908-4.594,3.444
				c-3.263,4.19-7.814,12.916,2.25,20.956c0.228,0.182,0.453,0.373,0.659,0.579c2.811,2.821,29.542,27.302,92.053,6.7
				c0,0,35.968-11.795,50.614-44.437c2.389-5.324,8.632-7.705,14.038-5.51c16.764,6.808,51.636,17.013,88.017,3.705
				c0.307-0.112,0.612-0.21,0.929-0.292c4.204-1.093,38.531-10.946,54.722-44.96c0.231-0.486,0.494-0.953,0.794-1.399
				c2.347-3.483,5.061-21.029-16.642-14.637c-0.427,0.126-0.874,0.215-1.295,0.359c-5.095,1.743-41.496,13.14-70.03-6.53
				c-0.422-0.291-0.816-0.616-1.196-0.959c-2.795-2.52-19.675-15.035-74.108-9.099c-0.279,0.03-0.558,0.048-0.838,0.048
				c-0.176,0-0.415,0.004-0.705,0.02c-4.774,0.265-8.758-3.294-8.867-8.074c-0.243-10.653-0.904-27.523-2.674-47.548
				c-0.091-1.024-0.318-2.037-0.701-2.992c-1.549-3.862-6.593-12.57-20.325-11.388c0,0-2.339,0.246-4.982,1.2
				C711.583,234.654,708.786,239.089,709.05,243.825z"/>
			<path class="st6" d="M708.633,334.786c0,0-19.46-9.221-34.264,14.52c0,0-8.362,35.281-38.258,53.07c0,0,2.022,4.222,15.097,7.142
				c0,0,56.829,12.444,82.176-28.14c0,0,22.385-30.085-3-44.968c0,0-13.506,25.575-27.191,32.329c0,0-10.474,6.818-4.705-6.006
				C698.49,362.733,711.359,344.55,708.633,334.786z"/>
			<path class="st6" d="M759.509,324.101c0,0,12.899,10.243,11.266,26.34c0,0,73.607,45.763,118.918-11.156
				c0,0-29.05,3.957-54.138-7.941C835.556,331.345,779.869,306.292,759.509,324.101z"/>
			<path class="st6" d="M679.93,308.4c0,0-16.959,12.921-29.737,28.469c-5.589,6.801-12.646,12.255-20.68,15.853
				c-18.039,8.08-50.022,16.245-79.082-7.835c0,0-13.047-9.847-7.642-9.721c0,0,25.023-0.326,46.065-7.053
				c3.817-1.22,7.473-2.884,10.955-4.866c8.06-4.587,40.458-23.06,75.947-20.581C675.756,302.665,686.242,303.009,679.93,308.4z"/>
			<path class="st6" d="M734.78,312.481c-0.442-9.487-3.206-28.877-2.382-50.823c0.007-0.182-0.075-0.354-0.082-0.537
				c-0.096-2.756,0.75-25.125-11.69-18.177c-0.937,0.523-1.553,1.439-1.403,2.479c1.048,7.289-3.139,50.903-15.703,62.269
				c-1.556,1.408-0.14,3.988,1.978,3.868c6.859-0.387,17.888-0.311,25.856,3.156C733.009,315.437,734.862,314.247,734.78,312.481z"
				/>
			<path class="st7" d="M735.454,340.119c0,0,6.275,27.539-49.847,64.3c0,0-4.536,5.415,3.699,5.282c0,0,28.616,0.002,47.973-33.716
				C737.28,375.985,751.32,355.524,735.454,340.119z"/>
			<path class="st7" d="M770.775,350.442c0,0,55.578,35.326,98.85,6.907c0,0,15.103-8.973,20.068-18.142
				c0,0-0.945-1.952-12.718,2.625C876.976,341.832,833.912,370.181,770.775,350.442z"/>
			<path class="st7" d="M679.93,308.4c0,0,10.723-9.819-15.947-1.65c0,0-27.871,46.85-76.162,45.141c0,0-11.166-1.323-14.865,5.748
				c0,0,32.967,12.109,67.072-10.593C640.029,347.046,666.874,321.843,679.93,308.4z"/>
			<path class="st0" d="M637.78,313.65c-2.77,0.482-5.344,1.719-7.502,3.522c-4.083,3.412-12.266,9.738-21.96,14.48
				c0,0-12.649,6.82-12.649,9.143c0,0,24.242-8.21,44.737-23.445C640.406,317.349,646.611,312.111,637.78,313.65z"/>
			<path class="st0" d="M795.896,330.715c2.804-0.199,5.601,0.38,8.129,1.61c4.785,2.327,14.251,6.495,24.803,8.76
				c0,0,13.92,3.57,14.48,5.825c0,0-25.506-2.125-49.069-11.971C794.24,334.939,786.955,331.351,795.896,330.715z"/>
			<path class="st7" d="M732.416,262.569c-0.209,5.335,0.747,32.825,2.214,47.434c0,0,2.334,8.099-7.106,3.363
				c0,0-2.648-1.24-8.703-1.593c0,0,11.626-36.62,6.534-70.14C725.355,241.633,733.278,240.611,732.416,262.569z"/>
		</g>
		<g>
			<g>
				<g>
					<path class="st9" d="M460.501,878.623c0.07,0.731,0.169,1.474,0.299,2.227c1.98,11.481,10.95,20.311,22.036,23.891
						c6.98,2.254,16.39,3.531,27.615,0.791c12.193-2.976,22.751-10.447,30.611-20.232c14.629-18.213,38.162-64.918,20.074-112.965
						c0,0-26.622-87.221-142.768-63.03c0,0-172.31,39.46-161.948,191.825c1.874,27.555,11.66,54.136,28.657,75.905
						c17.651,22.606,47.457,50.514,96.08,71.722c0,0,82.015,41.008,94.925,85.812c0,0,27.848,53.88-31.048,98.938
						c-13.905,10.638-29.87,18.223-46.686,23.095c-32.215,9.335-91.31,19.494-111.357-23.311c0,0-9.886-19.066,10.516-38.131
						c2.176-2.033,4.282-4.144,6.052-6.539c6.262-8.474,16.744-27.554-0.928-43.267c-5.945-5.286-13.366-8.708-21.203-10.077
						c-17.198-3.004-49.741-0.513-59.745,57.005c0,0-13.522,89.909,63.03,123.782c0,0,100.008,51.37,215.235-44.331
						c0,0,40.078-36.432,49.003-87.158c11.465-65.161-17.897-130.67-72.617-167.86c-12.615-8.574-27.625-17.45-45.432-26.223
						c-20.123-9.914-48.327-22.657-64.977-37.692c-26.226-23.682-43.611-58.217-32.749-95.4c0,0,20.642-70.639,115.567-81.271
						c0,0,34.225-5.586,44.805,18.985c0,0,11.889,24.477-23.391,58.666C463.478,860.255,459.611,869.364,460.501,878.623z"/>
					<path class="st9" d="M456.934,705.064c83.661,0.006,104.202,67.27,104.202,67.27c18.088,48.047-5.445,94.752-20.074,112.965
						c-7.86,9.785-18.418,17.256-30.611,20.232c-4.516,1.102-8.738,1.555-12.626,1.555c-5.776,0-10.817-0.998-14.989-2.345
						c-11.086-3.58-20.056-12.411-22.036-23.891c-0.13-0.753-0.228-1.495-0.299-2.227c-0.89-9.259,2.977-18.367,9.657-24.841
						c35.28-34.189,23.391-58.666,23.391-58.666c-7.273-16.892-25.721-19.531-36.541-19.531c-4.919,0-8.263,0.546-8.263,0.546
						c-94.925,10.632-115.567,81.271-115.567,81.271c-10.862,37.183,6.523,71.717,32.749,95.4
						c16.649,15.034,44.853,27.777,64.977,37.692c17.807,8.773,32.817,17.65,45.432,26.223
						c54.72,37.19,84.082,102.699,72.617,167.86c-8.926,50.726-49.003,87.158-49.003,87.158
						c-55.574,46.156-107.599,58.1-146.58,58.1c-41.843,0-68.655-13.77-68.655-13.77c-76.553-33.873-63.03-123.782-63.03-123.782
						c8.412-48.366,32.759-57.824,50.52-57.823c3.361,0,6.489,0.339,9.225,0.817c7.837,1.369,15.257,4.79,21.203,10.077
						c17.672,15.713,7.191,34.793,0.929,43.267c-1.77,2.395-3.876,4.506-6.052,6.539c-20.402,19.066-10.516,38.131-10.516,38.131
						c11.383,24.305,35.355,31.534,59.847,31.534c18.642,0,37.587-4.188,51.51-8.223c16.816-4.873,32.781-12.457,46.686-23.095
						c58.896-45.058,31.048-98.938,31.048-98.938c-12.91-44.805-94.925-85.812-94.925-85.812
						c-48.623-21.208-78.43-49.116-96.08-71.722c-16.997-21.769-26.783-48.35-28.657-75.906
						c-10.361-152.365,161.948-191.825,161.948-191.825C432.518,706.357,445.328,705.063,456.934,705.064 M456.935,685.064
						L456.935,685.064c-13.446-0.001-27.794,1.567-42.645,4.66l-0.194,0.04l-0.193,0.044c-1.912,0.438-47.339,11.078-91.775,41.824
						c-60.782,42.057-90.403,101.137-85.662,170.853c2.183,32.096,13.541,62.131,32.847,86.857
						c11.226,14.378,24.609,27.755,39.778,39.76c18.609,14.728,39.977,27.425,63.521,37.746
						c2.887,1.481,20.969,10.923,39.945,24.577c24.634,17.725,40.369,35.014,44.307,48.681l0.608,2.11l0.793,1.445
						c0.518,1.12,4.986,11.211,4.329,24.614c-0.9,18.349-10.897,34.952-29.713,49.347c-11.379,8.706-24.87,15.357-40.099,19.77
						c-11.702,3.391-29.171,7.433-45.944,7.433c-32.361,0-39.417-15.066-41.736-20.017l-0.048-0.103
						c-0.813-2.13-1.702-7.635,6.108-14.933c2.611-2.439,5.66-5.448,8.481-9.265c4.57-6.183,10.395-16.022,12.196-27.776
						c2.449-15.987-3.204-31.018-15.92-42.324c-8.615-7.66-19.352-12.788-31.05-14.832c-4.237-0.74-8.498-1.115-12.666-1.115
						c-15.991-0.001-30.561,5.496-42.135,15.898c-14.09,12.662-23.541,32.344-28.09,58.497l-0.039,0.226l-0.034,0.227
						c-0.161,1.072-3.868,26.596,3.102,56.677c9.54,41.176,34.165,71.664,71.229,88.198c4.818,2.34,34.125,15.651,77.132,15.651
						c24.684,0,49.487-4.333,73.72-12.88c29.566-10.427,58.379-27.194,85.639-49.834l0.344-0.286l0.331-0.301
						c1.843-1.676,45.252-41.685,55.248-98.492c12.675-72.038-19.147-145.78-81.072-187.867
						c-14.391-9.781-30.485-19.075-47.835-27.623c-2.487-1.225-5.095-2.493-7.789-3.802c-17.871-8.686-40.113-19.496-52.623-30.792
						c-11.608-10.482-37.454-38.739-26.992-74.821c0.28-0.862,5.121-15.298,19.18-30.415c19.162-20.604,45.893-32.956,79.452-36.715
						l0.649-0.073l0.281-0.052c0.42-0.056,2.386-0.296,5.107-0.296c6.793,0,15.432,1.278,18.129,7.344
						c0.18,0.656,0.839,3.635-0.372,8.589c-1.454,5.948-5.849,15.616-18.526,27.901c-11.394,11.042-17.097,26.029-15.647,41.117
						c0.119,1.236,0.286,2.484,0.497,3.71c3.158,18.31,16.798,33.455,35.599,39.526c6.807,2.198,13.918,3.313,21.135,3.313
						c5.749,0,11.593-0.715,17.369-2.125c16.001-3.905,30.338-13.289,41.461-27.137c18.432-22.947,44.023-76.52,23.376-132.062
						c-1.401-4.254-8.074-22.45-24.958-40.659C538.139,706.84,507.366,685.068,456.935,685.064L456.935,685.064z"/>
				</g>
				<g>
					<path class="st9" d="M696.2,1271.517c0,0-19.72,13.845-36.428,5.12c-5.273-2.754-7.693-9.48-7.873-15.426
						c-0.089-2.931,1.885-7.222,3.459-8.629c0,0,24.134-25.619,60.52-41.956c0,0,5.358-3.184,10.073,0.352
						c2.062,1.546,3.206,4.026,3.319,6.6C729.611,1225.302,727.1,1246.068,696.2,1271.517z M829.863,1128.2
						c0,0-1.485,6.683-9.282,8.54c0,0-14.109,6.312-20.421,7.054c0,0-7.054,1.485-1.856-9.653c0,0,7.797-45.297,25.99-69.059
						c0,0,3.713-9.282,5.569-3.342V1128.2z M903.378,1014.401 M889.455,1086.802 M1029.073,1011.217
						c4.315,5.528,23.431,26.982,56.979,22.12c0,0,46.817-8.512,76.597-45.854c11.721-14.698,17.897-33.206,16.405-51.946
						c-0.447-5.614-1.566-10.722-3.893-13.586c0,0-7.797-15.037-15.037,1.114c0,0-8.731,17.463-36.058,42.523
						c-3.476,3.188-7.582,5.681-12.097,7.045c-8.281,2.501-18.902,1.644-14.221-22.278l37.871-182.673c0,0-0.557-5.569,11.139-6.126
						c11.696-0.557,66.275-7.797,71.844-33.416c0,0,7.797-28.694-13.366-27.992c0,0-27.331,1.123-53.829,7.35
						c-4.23,0.994-7.972-3.151-6.386-7.196c0.022-0.055,0.044-0.111,0.067-0.166c0,0,7.797-47.738,7.24-62.218
						c0,0,0-11.139-12.81-10.582c0,0-16.708-0.557-31.188,3.899c0,0-11.696-1.114-17.822,20.05c0,0-10.582,54.579-12.81,64.047
						c-2.228,9.468-12.809,12.81-12.809,12.81l-132.223,56.276c-2.438,1.038-5.208,1.219-7.678,0.259
						c-2.875-1.118-5.389-3.719-2.674-9.753l15.081-61.355c1.554-6.322,2.894-12.692,4.172-19.075
						c1.409-7.041,4.877-18.602,12.814-22.381c0,0,7.713-5.033,10.261,2.564l-0.557,47.896c0,0-2.228,7.24,7.24,2.785
						c0,0,17.818-5.307,27.18-26.87c3.149-7.252,4.565-15.138,4.565-23.044l0-28.797c0-19.879-14.237-37.17-33.866-40.314
						c-0.613-0.098-1.237-0.189-1.872-0.272c-15.276-1.993-30.705,2.057-43.455,10.704c-15.591,10.574-36.808,30.459-46.117,64.038
						c0,0-14.38,63.553-17.797,113.104c-0.295,4.273-1.747,8.43-4.533,11.684c-1.359,1.588-7.06,7.536-9.852,9.018l-3.802,2.035
						l-23.979,14.53c0,0-4.455,1.485-3.713,8.354c0,0,1.299,13.923,2.97,18.008c0,0,1.671,4.455,8.168,4.827
						c6.498,0.371,29.517-1.114,29.517-1.114l-17.636,126.98c0,0-1.114,50.124-40.099,84.097l18.936-201.052
						c0,0,1.671-16.151-23.948-17.822c0,0-25.96,1.191-37.314,14.48c-11.727,13.725-12.756,27.539-12.537,33.588
						c0.126,3.497,0.197,6.988,0.115,10.486c-0.625,26.858-2.821,119.176-3.771,132.952c0,0-5.207,45.594-46.795,68.249
						c-6.111,3.329-13.014,5.078-19.965,4.741c-11.866-0.576-28.072-6.742-34.799-34.027c-3.613-14.652-4.302-38.203,2.425-69.595
						c0,0,20.049-85.767,22.277-100.248c0,0,3.275-15.04-11.846-25.143c-8.016-5.356-18.054-6.72-27.364-4.218
						c-7.317,1.967-15.489,5.116-19.782,9.946c0,0-4.104,3.571-6.016,17.755c-0.829,6.15-1.922,12.253-3.13,18.339
						c-3.542,17.843-9.994,54.963-13.131,102.024c-4.455,66.832-1.442,111.334,42.424,133.446
						c55.381,27.917,107.947-35.426,120.2-54.362c0,0,1.555,12.093-0.098,28.388c-3.146,30.151-12.939,31.311-20.55,35.024
						c0,0-107.724,35.165-115.8,88.909c-8.075,53.744,45.39,56.807,45.39,56.807s61.685,2.715,95.657-41.469
						c0,0,30.631-30.361,29.93-73.259c0,0-1.114-2.785,7.797-9.468c0,0,12.531-12.81,32.302-20.607c0,0,6.405-3.899,3.62,3.342
						c0,0-0.835,37.593-17.543,80.476c0,0-6.126,20.05,11.696,15.037c0,0,43.441-9.468,55.693-81.869
						c0,0,14.48-65.718,18.379-106.374c0,0,0-3.104,7.21-4.123c13.85-1.957,27.4-5.589,40.069-11.517
						c25.562-11.96,61.742-32.571,77.314-58.985c2.723-6.702,7.062-6.344,10.204-4.883
						C1026.154,1008.179,1027.782,1009.563,1029.073,1011.217z M927.271,1026.182c-34.443,12.028-30.173-11.782-30.173-11.782
						c7.797-33.973,24.659-163.552,24.659-163.552c1.114-11.324,9.097-11.139,9.097-11.139c7.843-5.906,124.567-57.55,124.567-57.55
						c6.683-4.455,6.126,5.569,6.126,5.569c0.557,8.354-23.948,134.777-23.948,134.777s-4.9,40.784-48.266,74.841
						C958.576,1013.825,944.571,1020.141,927.271,1026.182z"/>
					<g>
						<path class="st0" d="M654.139,1342.027c-1.776,0-2.861-0.044-3.152-0.058l-0.217-0.011
							c-3.403-0.194-33.375-2.548-52.159-25.672c-11.839-14.575-16.161-33.155-12.845-55.223
							c3.659-24.349,21.136-47.16,52.029-67.974c-8.369-1.414-16.556-4.126-24.466-8.113
							c-26.401-13.309-42.871-34.164-50.351-63.759c-6.982-27.627-5.506-60.857-3.574-89.837
							c3.212-48.187,9.829-86.291,13.486-104.716c1.312-6.605,2.238-12.025,2.916-17.055c2.251-16.7,7.542-25.216,11.609-29.428
							c6.453-6.986,16.121-12.139,29.551-15.748c4.774-1.285,9.683-1.937,14.586-1.937c10.774,0,21.111,3.103,29.895,8.971
							c19.482,13.018,23.41,33.065,20.852,46.328c-2.63,16.213-21.479,96.934-22.455,101.109
							c-7.255,33.978-4.187,53.266-2.53,59.983c4.325,17.54,11.823,17.903,15.427,18.078c0.229,0.012,0.459,0.017,0.689,0.017
							c2.703,0,5.543-0.769,8.212-2.223c29.566-16.106,35.255-47.359,35.934-51.896c0.75-12.399,2.393-75.841,3.686-131.354
							c0.061-2.653,0.027-5.502-0.108-9.237c-0.356-9.832,1.452-29.139,17.558-47.989c16.781-19.642,48.73-21.651,52.318-21.815
							l1.166-0.054c0,0,1.238,0.081,1.275,0.084c1.759-10.037,8.176-16.715,14.437-19.893l23.818-14.408l3.07-1.643
							c0.991-0.844,3.057-2.859,4.216-4.11c3.479-50.427,17.661-113.615,18.264-116.28l0.246-0.978
							c10.949-39.496,35.718-63.025,54.568-75.808c14.297-9.698,30.728-14.824,47.516-14.824c3.485,0,6.998,0.228,10.441,0.676
							c0.842,0.111,1.657,0.229,2.457,0.356c29.881,4.785,51.564,30.461,51.564,61.053v28.797c0,11.21-2.121,21.777-6.303,31.408
							c-5.406,12.451-12.879,21.103-19.946,27.014l59.924-25.505c2.167-10.023,8.268-41.058,12.147-61.072l0.181-0.93l0.264-0.911
							c8.256-28.522,26.264-33.981,34.185-34.973c13.568-3.75,27.72-4.157,33.218-4.157c0.697,0,1.259,0.006,1.669,0.013
							c0.359-0.009,0.714-0.014,1.064-0.014c11.488,0,18.904,4.792,23.104,8.812c8.416,8.057,9.615,18.132,9.74,22.089
							c0.353,9.54-1.949,28.719-4.349,45.57c19.222-2.929,34.672-3.59,35.407-3.62l0.118-0.005c0.496-0.015,0.924-0.021,1.349-0.021
							c11.193,0,20.856,4.423,27.21,12.456c11.66,14.738,7.538,35.414,5.952,41.543c-8.695,37.614-65.15,46.792-84.905,48.861
							l-32.47,156.618c13.158-13.781,18.682-23.12,19.681-24.899c7.579-16.212,19.238-18.94,25.53-19.12
							c0.243-0.007,0.479-0.011,0.714-0.011c9.967,0,19.402,5.961,25.288,15.958c4.074,5.85,6.348,13.273,7.147,23.33
							c1.889,23.729-5.541,47.418-20.922,66.703c-34.296,43.006-87.029,53.017-89.258,53.422l-0.746,0.122
							c-4.149,0.601-8.332,0.905-12.433,0.905c-19.487,0-38.559-7.097-53.306-19.662c-20.227,24.624-52.971,43.255-77.69,54.82
							c-11.193,5.236-23.539,9.178-36.758,11.739c-4.99,39.043-15.78,88.87-17.182,95.271
							c-5.774,33.626-18.388,59.926-37.491,78.176c-15.068,14.395-29.394,18.925-33.425,19.97c-3.548,0.982-7.102,1.494-10.47,1.494
							c-10.758,0-17.424-5.175-20.44-8.26c-6.045-6.182-7.969-13.714-8.193-20.298c-7.501,13.153-15.292,21.941-18.203,25.021
							C727.932,1338.508,670.82,1342.026,654.139,1342.027L654.139,1342.027z M653.874,1300.022c1.661,0,4.646-0.061,8.559-0.386
							c-4.31-0.867-8.451-2.332-12.381-4.385c-11.364-5.935-18.699-18.735-19.143-33.406c-0.052-1.72,0.073-3.503,0.356-5.304
							c-2.052,3.568-3.424,7.166-3.964,10.763c-1.479,9.846-0.189,17.384,3.834,22.405c6.767,8.443,20.158,10.117,21.961,10.306
							C653.282,1300.02,653.543,1300.022,653.874,1300.022z M735.65,1192.259c0.998,0.578,1.966,1.218,2.899,1.918
							c7.04,5.28,11.304,13.474,11.7,22.479c0.518,11.731-2.789,33.755-27.659,59.158c2.96-2.716,5.761-5.734,8.343-9.093
							l0.86-1.119l1.005-0.996c0.182-0.187,23.569-24.48,23.724-56.587c-0.66-6.619,1.505-16.566,15.049-27.153
							c2.938-2.782,10.915-9.859,22.562-16.575c-5.345-1.184-10.191-4.128-13.552-8.361c-4.147-5.227-7.906-14.288-2.5-27.91
							c0.562-2.904,1.596-7.892,3.16-14.106l-10.074,8.779l23.339-247.801c-0.713-0.145-1.589-0.282-2.651-0.388
							c-7.991,0.678-18.271,3.625-21.212,7.065c-7.109,8.321-7.625,16.19-7.517,19.188c0.165,4.553,0.204,8.28,0.124,11.731
							c-0.831,35.677-2.866,120.143-3.816,133.911l-0.085,0.938c-0.067,0.591-0.562,4.609-2.114,10.722l6.575,51.126
							c0.075,0.581,1.85,14.621-0.033,33.187C760.552,1173.273,750.25,1185.113,735.65,1192.259z M842.097,1183.082
							c-0.399,7.258-2.019,27.013-8.375,51.866c6.629-9.718,13.067-24.111,16.649-45.276l0.197-1.016
							c0.142-0.641,14.16-64.463,17.95-103.524c0.7-9.199,7.713-20.773,25.208-23.246c12.624-1.783,24.1-5.062,34.107-9.745
							c9.466-4.428,18.215-9.05,26.122-13.778c-6.645,2.85-12.948,5.267-19.763,7.646c-8.599,3.003-16.492,4.526-23.461,4.526
							c-9.348,0.001-17.24-2.688-23.461-7.993c-10.598-9.039-12.466-22.806-10.844-31.847l0.202-0.991
							c7.327-31.927,23.457-155.088,24.268-161.295c1.819-16.993,12.713-25.887,22.601-28.665
							c17.958-9.729,76.136-35.856,122.204-56.246c4.076-2.316,8.325-3.49,12.635-3.49c5.17,0,9.184,1.672,11.64,3.075
							c8.112,4.637,12.809,13.808,12.586,24.556c0.085,4.145-0.885,13.811-12.133,74.443c-5.41,29.165-10.986,58.066-12.116,63.911
							c-0.874,5.812-5.964,32.432-28.68,60.885c1.169,0.384,2.329,0.843,3.477,1.376c4.692,2.183,8.93,5.545,12.276,9.737
							l0.242,0.306c2.699,3.459,12.896,14.746,30.784,14.746c1.995,0,4.056-0.141,6.126-0.419c3.33-0.714,40.572-9.246,63.69-38.235
							c0.894-1.119,1.738-2.261,2.536-3.424c-3.325,3.358-6.83,6.729-10.506,10.1c-5.922,5.43-12.915,9.465-20.224,11.671
							c-4.047,1.223-8.011,1.843-11.779,1.843c-10.394,0-17.159-4.717-20.267-7.528c-14.292-12.93-10.197-33.853-8.853-40.728
							l37.65-181.609c0.42-3.526,1.82-8.629,6.024-13.504c5.638-6.534,14.03-10.111,24.947-10.631
							c3.995-0.19,18.595-1.761,32.788-6.325c14.055-4.52,18.911-9.308,19.564-10.71l0.184-0.755
							c0.097-0.373,0.184-0.762,0.26-1.158c-9.373,0.752-26.207,2.518-42.345,6.311c-1.996,0.469-4.042,0.706-6.083,0.707
							c-7.676,0-14.974-3.343-20.022-9.17c-5.827-6.725-7.865-15.775-5.491-24.289c2.407-14.945,5.107-34.225,6.222-46.633
							c-4.764,0.326-10.881,1.071-16.331,2.748l-1.764,0.542c-0.488,0.876-1.139,2.288-1.816,4.46
							c-1.905,9.81-10.667,54.832-12.784,63.832c-4.308,18.311-20.479,25.67-25.604,27.569l-131.646,56.03
							c-4.011,1.709-8.205,2.576-12.465,2.576c-3.801,0.001-7.517-0.694-11.044-2.065c-7.107-2.766-12.532-7.983-15.278-14.693
							c-1.863-4.556-3.324-11.896,0.187-21.142l14.713-59.86c1.59-6.467,2.958-13.115,3.974-18.185
							c3.587-17.927,11.634-30.603,23.273-36.669c2.812-1.619,8.418-4.237,15.251-4.237c2.963,0,5.874,0.49,8.654,1.457
							c5.939,2.064,10.737,6.082,13.915,11.558v-15.833c0-9.684-6.959-18.101-16.187-19.579c-0.408-0.065-0.838-0.128-1.273-0.185
							c-1.644-0.214-3.325-0.323-4.997-0.323c-8.353,0-16.633,2.623-23.947,7.583c-12.929,8.768-29.921,24.865-37.533,51.783
							c-1.601,7.203-14.125,64.558-17.22,109.425c-0.626,9.081-3.921,17.344-9.528,23.895c-0.074,0.087-8.534,9.972-15.965,13.914
							l-3.239,1.733l-9.96,6.035c3.925-0.197,7.9-0.427,11.168-0.637l25.694-1.657l-21.04,151.487
							c-0.36,7.032-2.46,29.641-14.551,54.765c2.497,2.376,4.91,5.771,6.416,10.592l0.956,3.061v71.97l-0.501,2.251
							c-1.777,8.002-8.286,18.581-20.845,23.188c1.942,0.836,3.767,1.957,5.434,3.349
							C837.512,1161.432,845.492,1169.395,842.097,1183.082z M618.885,908.359c-0.4,1.208-0.987,3.398-1.454,6.861
							c-0.798,5.921-1.861,12.156-3.344,19.625c-3.46,17.425-9.72,53.501-12.775,99.331c-4.27,64.05-0.732,97.34,30.923,113.297
							c6.171,3.109,12.676,4.687,19.333,4.687c11.099,0,23.098-4.34,35.664-12.9c1.566-1.066,3.1-2.171,4.603-3.305
							c-5.986,1.996-12.213,3.03-18.404,3.03c-0.909,0-1.816-0.021-2.724-0.065c-12.734-0.617-43.506-6.722-54.171-49.975
							c-5.055-20.503-4.245-48.567,2.281-79.022l0.075-0.336c5.537-23.689,20.257-87.508,21.98-98.705l0.08-0.517
							c0.019-0.597-0.209-2.216-2.837-3.972c-1.854-1.239-4.122-1.895-6.557-1.895c-1.224,0-2.465,0.167-3.69,0.496
							C622.846,906.345,620.115,907.659,618.885,908.359z M942.057,857.562c-2.503,19.05-14.27,107.636-21.922,148.869
							c0.07-0.024,0.142-0.049,0.213-0.074c14.761-5.154,27.152-10.47,57.399-26.626c33.429-26.984,38.825-58.642,39.012-59.812
							l0.203-1.302l0.021-0.105c7.933-40.924,15.248-80.247,19.545-104.967c-49.912,22.303-87.521,39.707-93.52,43.301
							L942.057,857.562z M948.915,754.676l16.181-6.887c-4.904-0.224-9.455-1.901-13.284-4.897L948.915,754.676z"/>
						<path class="st0" d="M959.606,590.557c3.225,0,6.453,0.207,9.666,0.626c0.78,0.102,1.541,0.213,2.289,0.332
							c26.954,4.316,46.507,27.5,46.507,55.128v28.797c0,10.381-1.953,20.145-5.807,29.018
							c-10.683,24.606-30.004,32.953-35.433,34.869c-4.051,1.785-7.571,2.488-10.601,2.488c-5.156,0-8.896-2.035-11.432-4.236
							c-2.843-2.467-4.73-5.812-5.522-9.5l-9.049,36.816l119.755-50.97l0.29-0.067c1.221-0.496,2.603-1.518,2.842-2.01
							c1.692-7.215,9.029-44.644,12.67-63.422l0.129-0.664l0.188-0.651c7.275-25.135,22.218-29.946,29.583-30.735
							c12.992-3.668,26.723-4.063,32.057-4.063c0.731,0,1.304,0.007,1.696,0.015c0.35-0.01,0.695-0.015,1.036-0.015
							c9.443,0,15.498,3.837,18.954,7.146c6.976,6.678,7.809,15.281,7.893,17.944c0.41,11.111-3.117,36.905-5.478,52.641
							c22.366-4.003,41.802-4.845,42.778-4.885l0.119-0.005c0.37-0.011,0.737-0.017,1.103-0.017c9.293,0,17.27,3.561,22.504,10.178
							c10.13,12.804,6.025,31.806,4.83,36.39c-8.546,37.345-72.856,43.869-84.05,44.722l-36.673,176.89
							c-0.2,1.026-0.355,1.954-0.476,2.788c0.668-0.469,1.321-0.995,1.952-1.573c23.028-21.118,31.723-36.259,32.729-38.09
							c5.9-12.771,14.305-15.676,20.352-15.849c0.181-0.005,0.363-0.007,0.543-0.007c9.32,0,16.383,6.555,20.234,13.201
							c3.517,4.955,5.504,11.547,6.221,20.562c1.768,22.204-5.204,44.396-19.631,62.486c-32.909,41.266-83.503,50.871-85.641,51.26
							l-0.532,0.087c-3.967,0.575-7.829,0.844-11.573,0.844c-23.268,0-42.042-10.395-54.046-22.527
							c-18.736,26.03-53.006,45.858-79.493,58.251c-11.954,5.593-25.265,9.641-39.629,12.057
							c-4.71,39.689-16.461,93.781-17.658,99.238c-13.176,77.018-59.968,91.786-66.532,93.488c-3.323,0.92-6.306,1.302-8.965,1.302
							c-8.337,0-13.508-3.752-16.149-6.454c-9.617-9.834-6.118-24.496-4.816-28.755l0.369-1.062
							c7.99-20.507,12.132-39.86,14.271-53.824c-5.043,3.658-7.941,6.537-7.996,6.593l-0.803,0.821l-0.874,0.644
							c-0.745,0.559-1.342,1.04-1.816,1.443c-1.041,43.032-28.419,73.731-33.569,79.134
							c-34.357,43.927-91.224,46.653-104.785,46.654c-1.587,0-2.579-0.037-2.875-0.051l-0.198-0.01
							c-3.085-0.177-30.635-2.336-47.797-23.463c-10.731-13.211-14.624-30.218-11.569-50.548
							c3.985-26.521,26.085-51.384,65.701-73.932c-1.955,0.146-3.906,0.218-5.848,0.218c-12.191,0-24.103-2.866-35.523-8.623
							c-54.124-27.283-54.955-83.096-50.639-147.839c3.19-47.851,9.755-85.665,13.385-103.946
							c1.335-6.727,2.282-12.263,2.977-17.423c2.087-15.483,6.818-22.81,10.023-26.107c5.659-6.154,14.415-10.762,26.747-14.076
							c4.31-1.159,8.692-1.73,13.029-1.73c9.463,0,18.714,2.716,26.562,7.96c18.305,12.23,20.132,30.818,18.277,40.288
							c-2.525,15.709-21.204,95.725-22.402,100.849c-7.53,35.226-4.259,55.601-2.5,62.731c4.835,19.612,14.279,22.311,20.961,22.635
							c0.326,0.016,0.652,0.024,0.98,0.024c3.712,0,7.52-1.013,11.083-2.954c32.688-17.807,38.482-52.634,39.036-56.546
							c0.749-11.865,2.401-75.6,3.711-131.833c0.064-2.762,0.03-5.722-0.11-9.595c-0.324-8.959,1.34-26.571,16.123-43.874
							c15.14-17.72,44.709-19.567,48.031-19.72l0.832-0.038l0.831,0.055c2.097,0.137,4.116,0.355,6.055,0.657
							c-0.412-10.64,5.35-18.097,11.786-21.271l23.888-14.45l3.423-1.832c1.393-1.058,4.752-4.397,5.915-5.752
							c0.516-0.603,0.877-1.71,0.963-2.961c3.456-50.126,17.534-112.74,18.131-115.382l0.175-0.696
							c10.463-37.739,34.136-60.227,52.153-72.445C928.773,595.315,944.153,590.557,959.606,590.557 M830.148,847.398
							c6.118-0.119,16.515-0.664,23.626-1.122l18.353-1.184l-20.064,144.464c-0.258,5.412-2.188,30.471-16.198,57.138
							c3.476,1.877,6.648,5.234,8.316,10.571l0.683,2.186v70.396l-0.357,1.607c-1.556,7.003-7.43,16.1-18.906,19.468
							c-4.667,2.045-15.799,6.673-23.138,7.699c-1.012,0.168-2.029,0.25-3.038,0.25c-5.483,0-10.77-2.422-14.143-6.672
							c-4.669-5.882-5.143-13.436-1.418-22.474c0.933-4.905,3.748-18.519,8.865-33.781l-14.18,12.356l22.345-237.248
							c-0.626-0.607-3.118-2.068-9-2.57c-6.726,0.498-20.714,3.223-25.812,9.189c-8.48,9.926-9.085,19.602-8.951,23.302
							c0.16,4.428,0.199,8.043,0.121,11.376c-0.83,35.636-2.862,119.99-3.803,133.637l-0.061,0.67
							c-0.249,2.178-6.642,53.636-54.522,79.719c-7.972,4.343-16.715,6.611-25.434,6.611c-0.812,0-1.622-0.02-2.432-0.059
							c-11.393-0.552-38.938-6.083-48.637-45.418c-4.842-19.638-4.017-46.745,2.322-76.329l0.061-0.271
							c5.539-23.7,20.302-87.705,22.058-99.115l0.115-0.745c0.158-1.646-0.026-6.008-5.469-9.644
							c-2.867-1.916-6.309-2.905-9.89-2.905c-1.732,0-3.497,0.231-5.246,0.701c-7.597,2.042-11.298,4.279-12.34,5.295
							c-0.418,0.839-1.652,3.725-2.488,9.925c-0.781,5.79-1.824,11.909-3.283,19.257c-3.488,17.569-9.799,53.937-12.877,100.101
							c-4.449,66.737-0.465,101.575,34.209,119.054c7.052,3.554,14.408,5.33,22.034,5.33c12.349,0,25.406-4.653,39.042-13.942
							c19.158-13.053,34.018-31.602,39.778-40.503l22.248-34.383l5.224,40.618c0.073,0.563,1.754,14.009-0.052,31.815
							c-3.116,29.859-12.674,39.799-27.089,46.169c-0.614,0.271-1.22,0.536-1.808,0.822l-0.934,0.456l-0.987,0.322
							c-25.663,8.406-100.167,40.579-105.621,76.877c-1.738,11.568-0.027,20.669,5.086,27.049
							c8.554,10.674,24.631,12.398,26.287,12.548c0.2,0.005,0.584,0.012,1.135,0.012c8.398,0,55.654-1.617,81.816-35.643l0.615-0.8
							l0.717-0.71c0.218-0.22,25.5-26.087,25.502-61.166c-0.691-5.836,1.723-13.577,12.967-22.284
							c3.48-3.326,16.574-15.058,35.652-22.798c3.137-1.652,6.379-2.475,9.49-2.475c3.84,0,7.48,1.255,10.473,3.754
							c2.559,2.136,7.818,7.978,5.031,18.263c-0.426,8.437-2.755,38.568-15.003,73.863c10.844-7.009,28.213-24.345,35.153-65.352
							l0.141-0.725c0.142-0.646,14.264-65.008,18.069-104.302c0.521-7.232,5.983-15.829,20.069-17.819
							c13.214-1.867,25.263-5.316,35.811-10.252c31.594-14.78,55.085-31.479,67.113-47.58l-1.074,0.575
							c-30.22,16.189-45.22,23.146-64.2,29.773c-8.002,2.795-15.175,4.192-21.484,4.192c-7.897,0-14.441-2.188-19.567-6.559
							c-8.664-7.39-10.173-18.744-8.832-26.223l0.145-0.708c7.407-32.273,23.619-156.112,24.378-161.931
							c1.553-14.762,10.777-21.734,18.882-23.759c17.72-9.74,82.53-38.73,122.681-56.5c3.652-2.13,7.027-2.848,9.917-2.848
							c3.999,0,7.069,1.374,8.665,2.285c6.241,3.567,9.775,10.757,9.56,19.349c0.095,3.389-0.728,12.417-12.03,73.345
							c-5.643,30.417-11.416,60.292-12.132,63.994c-0.758,5.136-6.348,35.95-34.782,66.672c1.011-0.15,2.036-0.224,3.069-0.224
							c3.292,0,6.657,0.759,9.894,2.265c3.947,1.836,7.516,4.703,10.316,8.291l0.003,0.003c3.35,4.293,15.061,17.055,35.514,17.055
							c2.275,0,4.658-0.158,7.15-0.503c3.117-0.642,42.544-9.294,67.358-40.41c8.02-10.055,12.607-21.894,13.271-33.971
							c-6.139,8.191-15.718,19.398-29.987,32.483c-5.261,4.823-11.45,8.401-17.901,10.349c-3.735,1.129-7.079,1.587-10.047,1.587
							c-8.137,0-13.444-3.447-16.241-5.978c-11.777-10.654-8.174-29.073-6.989-35.126l0.033-0.165l37.659-181.648
							c0.306-2.888,1.404-6.784,4.638-10.533c4.52-5.239,11.479-8.118,20.688-8.557c4.201-0.2,19.529-1.844,34.34-6.606
							c16.106-5.18,22.758-11.324,23.56-15.013l0.182-0.747c0.743-2.862,1.05-6.682,0.806-9.025
							c-4.848,0.261-28.004,1.729-50.094,6.92c-1.566,0.368-3.146,0.547-4.71,0.547c-5.87,0-11.527-2.527-15.488-7.098
							c-4.583-5.289-6.109-12.448-4.159-19.051c2.597-16.074,6.277-42.115,6.812-54.185c-4.176,0.021-15.174,0.37-24.553,3.256
							l-2.857,0.879l-0.577-0.055c-0.854,0.868-2.6,3.156-4.21,8.455c-1.307,6.731-10.641,54.756-12.796,63.916
							c-3.681,15.644-17.908,21.879-21.978,23.363L938.54,798.216c-3.278,1.397-6.712,2.097-10.116,2.097
							c-3.023,0-6.023-0.552-8.871-1.659c-5.557-2.162-9.781-6.2-11.898-11.373c-1.503-3.672-2.588-9.534,0.369-17.067l14.804-60.23
							c1.616-6.574,3.002-13.308,4.03-18.44c3.236-16.168,10.238-27.41,20.277-32.585c2.294-1.337,6.858-3.499,12.365-3.499
							c2.114,0,4.366,0.318,6.683,1.124c5.995,2.083,10.497,6.812,12.679,13.317l0.807,2.406l-0.339,29.206
							c1.951-2.41,3.839-5.377,5.415-9.006c2.206-5.081,3.325-10.823,3.325-17.069v-28.797c0-12.6-9.13-23.564-21.238-25.503
							c-0.465-0.074-0.952-0.146-1.446-0.21c-1.915-0.249-3.844-0.373-5.773-0.373c-9.474,0-18.993,2.974-27.315,8.618
							c-13.799,9.358-31.908,26.534-39.985,55.281c-1.138,5.107-14.217,64.545-17.385,110.479
							c-0.537,7.786-3.339,14.842-8.102,20.406c-0.079,0.092-7.972,9.201-14.218,12.515l-3.4,1.82l-19.815,12.007
							C829.625,843.702,829.888,845.685,830.148,847.398 M962.576,684.672L962.576,684.672L962.576,684.672 M964.277,712.062
							C964.277,712.062,964.277,712.062,964.277,712.062C964.277,712.062,964.277,712.062,964.277,712.062
							C964.277,712.062,964.277,712.062,964.277,712.062c0,0.001,0,0.001,0,0.001L964.277,712.062L964.277,712.062L964.277,712.062
							L964.277,712.062 M838.499,801.381c-0.017,0.009-0.033,0.017-0.049,0.026L838.499,801.381 M1044.323,803.498
							c-48.733,21.698-97.989,44.204-104.692,48.38l-3.195,2.405c-1.937,14.812-16.286,123.725-23.999,160.201
							c2.018-0.206,5.197-0.824,9.889-2.463h0c15.092-5.271,27.824-10.733,58.743-27.264c36.524-29.231,41.595-63.696,41.637-64.039
							l0.167-1.065C1031.313,876.108,1040.258,828.059,1044.323,803.498 M939.817,851.737l0.059-0.044
							C939.857,851.707,939.837,851.721,939.817,851.737 M837.381,877.184c-2.43,0.096-4.813,0.17-6.951,0.205l-12.618,133.966
							c3.911-13.427,4.29-23.312,4.296-23.52l0.02-0.869l0.118-0.805L837.381,877.184 M898.103,1097.655
							C898.103,1097.655,898.103,1097.655,898.103,1097.655S898.103,1097.655,898.103,1097.655 M724.034,1156.037
							c-1.61,1.432-3.256,2.846-4.937,4.234c2.602-1.16,3.24-1.551,4.029-2.673C723.39,1157.225,723.699,1156.717,724.034,1156.037
							 M720.873,1194.326c4.718,0,9.668,1.345,14.077,4.651c5.596,4.197,8.988,10.736,9.305,17.942
							c0.548,12.414-3.728,37.521-38.52,66.176l-0.917,0.698c-2.036,1.429-16.01,10.784-32.799,10.784
							c-6.168,0-12.715-1.263-19.191-4.645c-9.444-4.932-15.545-15.764-15.923-28.27c-0.205-6.754,3.121-15.031,7.825-19.673
							c3.082-3.203,27.812-28.204,64.426-44.789C712.482,1195.439,716.582,1194.327,720.873,1194.326 M711.829,1229.311
							c-24.205,12.888-41.081,29.073-44.799,32.791c0.12,0.686,0.297,1.235,0.451,1.595c1.403,0.577,2.945,0.816,4.534,0.816
							c6.075,0,12.834-3.499,15.178-5.012C702.017,1247.177,708.774,1236.695,711.829,1229.311 M665.357,1263.763l0.057-0.051
							C665.395,1263.729,665.376,1263.746,665.357,1263.763 M959.606,578.557c-17.993,0-35.589,5.484-50.884,15.859
							c-19.682,13.347-45.545,37.918-56.981,79.171l-0.038,0.138l-0.035,0.139l-0.175,0.696l-0.036,0.141l-0.032,0.142
							c-0.597,2.643-14.476,64.434-18.239,114.99c-0.642,0.639-1.324,1.297-1.835,1.763l-2.315,1.239l-0.279,0.149l-0.27,0.164
							l-23.504,14.218c-6.526,3.378-13.153,9.832-16.221,19.231c-9.382,0.69-38.017,4.371-54.61,23.791
							c-17.427,20.397-19.379,41.399-18.992,52.103c0.131,3.623,0.164,6.363,0.105,8.883c-1.283,55.073-2.908,117.925-3.66,130.847
							c-0.326,2.022-1.804,9.886-6.295,19.04c-6.121,12.475-15.049,21.974-26.536,28.231c-1.792,0.977-3.639,1.492-5.342,1.492
							c-0.132,0-0.264-0.003-0.396-0.01c-1.931-0.094-3.036-0.451-4.076-1.318c-1.32-1.1-3.832-4.149-5.818-12.204
							c-1.215-4.925-4.615-23.598,2.561-57.242c2.154-9.218,19.836-85.022,22.507-101.371c1.483-7.805,0.743-16.932-2.04-25.081
							c-3.759-11.009-11.155-20.442-21.388-27.279c-9.775-6.53-21.265-9.982-33.229-9.982c-5.43,0-10.862,0.721-16.146,2.142
							c-14.525,3.904-25.112,9.605-32.355,17.424c-4.687,4.878-10.731,14.499-13.19,32.743c-0.661,4.902-1.568,10.206-2.855,16.69
							c-3.686,18.567-10.353,56.961-13.588,105.484c-1.963,29.438-3.454,63.229,3.743,91.706
							c7.931,31.382,25.42,53.509,53.467,67.647c4.307,2.171,8.693,3.989,13.146,5.449c-25.735,19.764-40.478,41.338-43.941,64.388
							c-3.577,23.805,1.174,43.958,14.121,59.897c19.985,24.601,50.509,27.538,56.425,27.877l0.049,0.003l0.048,0.002l0.198,0.01
							c0.452,0.021,1.615,0.065,3.464,0.065c7.202,0,26.305-0.72,48.1-7.379c27.535-8.411,49.663-23.021,65.781-43.43
							c2.101-2.24,6.281-6.955,11.088-13.769c1.507,3.227,3.605,6.389,6.47,9.319c6.344,6.49,15.127,10.064,24.729,10.064
							c3.881,0,7.944-0.576,12.077-1.712c4.519-1.185,19.968-6.134,35.963-21.413c20.029-19.133,33.229-46.505,39.237-81.363
							c1.466-6.704,11.489-53.078,16.683-91.407c12.109-2.647,23.482-6.441,33.909-11.319c23.791-11.131,54.88-28.709,75.927-51.979
							c15.079,11.161,33.62,17.386,52.527,17.386c4.387,0,8.859-0.325,13.293-0.968l0.107-0.016l0.107-0.017l0.532-0.087
							l0.107-0.017l0.107-0.019c1.565-0.285,15.819-3.015,34.029-11.151c24.133-10.782,43.932-25.732,58.847-44.434
							c16.333-20.48,24.221-45.667,22.211-70.921c-0.879-11.059-3.449-19.371-8.075-26.095
							c-6.985-11.731-18.29-18.716-30.341-18.716c-0.286,0-0.576,0.004-0.865,0.012c-7.665,0.219-21.762,3.425-30.707,22.35
							c-0.409,0.71-1.561,2.633-3.641,5.557l26.756-129.056c9.207-1.179,23.168-3.59,36.965-8.356
							c11.805-4.078,21.699-9.247,29.409-15.365c10.233-8.12,16.746-17.932,19.362-29.169c1.78-6.919,6.245-29.851-7.076-46.689
							c-7.514-9.5-18.849-14.732-31.915-14.732c-0.484,0-0.971,0.007-1.46,0.022l-0.067,0.002l-0.067,0.003l-0.119,0.005
							c-0.647,0.027-12.409,0.531-28.133,2.568c1.99-14.92,3.626-30.295,3.315-38.766c-0.157-4.731-1.61-16.63-11.587-26.181
							c-4.992-4.779-13.773-10.478-27.252-10.478c-0.36,0-0.723,0.004-1.09,0.013c-0.422-0.007-0.974-0.012-1.643-0.012
							c-5.689,0-20.258,0.422-34.408,4.263c-9.393,1.294-29.668,7.795-38.758,39.199l-0.189,0.652l-0.15,0.519l-0.103,0.531
							l-0.129,0.664c-3.545,18.286-8.943,45.772-11.479,57.918l-33.983,14.464c1.689-2.855,3.28-5.945,4.73-9.285
							c4.511-10.388,6.799-21.759,6.799-33.797v-28.797c0-33.556-23.808-61.724-56.61-66.977c-0.862-0.137-1.74-0.265-2.623-0.381
							C967.124,578.802,963.349,578.557,959.606,578.557L959.606,578.557z M903.952,687.392
							c7.142-25.081,23.004-40.096,35.08-48.285c6.318-4.285,13.434-6.55,20.579-6.549c1.416,0,2.837,0.092,4.224,0.272
							c0.375,0.049,0.747,0.103,1.102,0.16c6.24,0.999,11.132,6.996,11.132,13.653v1.403c-1.865-1.129-3.854-2.069-5.947-2.796
							c-3.412-1.187-6.987-1.789-10.622-1.789c-8.132,0-14.756,3.045-18.136,4.974c-9.303,4.887-21.303,15.919-26.273,40.755
							c-1.003,5.01-2.355,11.576-3.916,17.93l-14.629,59.516c-4.034,10.907-2.247,19.691,0.003,25.19
							c3.376,8.249,10,14.645,18.653,18.012c3.175,1.234,6.474,2.01,9.845,2.321c-1.415,0.723-2.699,1.392-3.839,2.003
							c-11.613,3.518-24.148,13.982-26.269,33.537c-0.911,6.969-16.922,129.138-24.157,160.662l-0.033,0.142l-0.029,0.143
							l-0.145,0.708l-0.029,0.141l-0.025,0.141c-1.901,10.605,0.325,26.783,12.857,37.471c4.407,3.758,9.487,6.403,15.185,7.917
							c-1.863,0.343-3.755,0.65-5.676,0.922c-20.985,2.965-29.451,17.256-30.346,28.67c-1.151,11.827-3.28,26.099-5.677,40.192
							v-65.356v-1.832l-0.546-1.748l-0.683-2.186c-1.157-3.703-2.855-7.012-5.037-9.857c10.933-24.342,13.027-45.862,13.423-53.137
							l19.992-143.948l2.024-14.573l-14.682,0.947l-5.927,0.382c5.413-4.468,9.848-9.576,10.516-10.356
							c6.451-7.537,10.24-17.006,10.956-27.383C889.956,751.417,902.748,692.837,903.952,687.392L903.952,687.392z
							 M1117.091,656.795c2.268-0.645,4.673-1.123,7.017-1.478c-1.288,11.46-3.382,26.245-5.367,38.601
							c-2.769,10.359-0.246,21.324,6.829,29.489c5.477,6.32,13.116,10.256,21.326,11.078c-0.602,0.051-1.081,0.083-1.423,0.099
							c-12.624,0.601-22.45,4.876-29.204,12.705c-4.082,4.734-6.635,10.407-7.407,16.446l-37.553,181.138l-0.008,0.038l-0.008,0.038
							l-0.033,0.165l-0.005,0.028l-0.005,0.028c-0.677,3.461-2.086,10.661-1.566,18.9c0.716,11.325,4.963,20.81,12.281,27.43
							c5.223,4.726,11.851,7.738,19.048,8.724c-9.916,4.24-17.658,6.079-19.502,6.484c-1.729,0.223-3.442,0.335-5.099,0.335
							c-15.17,0-23.777-9.52-26.054-12.437l-0.454-0.581l-0.048-0.048c-3.084-3.797-6.805-7.005-10.921-9.429
							c19.61-27.113,24.381-51.593,25.291-57.533c1.18-6.106,6.72-34.829,12.101-63.838c12.15-65.495,12.333-71.726,12.235-75.57
							c0.219-12.912-5.599-24.01-15.608-29.731c-1.162-0.663-2.599-1.374-4.284-2.003l6.087-2.591
							c6.02-2.256,24.273-10.734,29.222-31.768c2.12-9.011,10.73-53.232,12.767-63.72
							C1116.866,657.426,1116.981,657.094,1117.091,656.795L1117.091,656.795z M947.638,861.132
							c7.726-4.094,36.048-17.322,81.016-37.49c-4.375,24.524-10.74,58.529-17.562,93.727l-0.041,0.212l-0.033,0.213l-0.167,1.065
							l-0.031,0.199l0,0.004c-0.29,1.671-5.744,30.662-36.405,55.644c-22.946,12.246-35.388,18.117-46.543,22.484
							C935.125,954.903,944.759,882.939,947.638,861.132L947.638,861.132z M775.18,885.497c1.658-1.649,7.382-3.432,12.715-4.399
							l-20.025,212.615l-3.332-25.911l-1.203-9.353c1.403-5.786,1.885-9.641,1.976-10.43l0.016-0.137l0.013-0.138l0.061-0.67
							l0.012-0.131l0.009-0.131c0.958-13.887,2.997-98.465,3.828-134.183c0.083-3.58,0.043-7.42-0.126-12.089
							C769.058,898.752,769.305,892.391,775.18,885.497L775.18,885.497z M623.967,912.578c1.238-0.505,3.018-1.133,5.461-1.789
							c0.714-0.192,1.432-0.289,2.13-0.289c1.213,0,2.302,0.289,3.155,0.838c-2.271,12.771-14.293,65.355-21.653,96.841l-0.01,0.043
							l-0.01,0.043l-0.061,0.271l-0.015,0.065l-0.014,0.065c-6.713,31.327-7.508,60.348-2.24,81.716
							c4.934,20.012,14.578,34.935,28.663,44.355c8.658,5.79,17.4,8.405,24.514,9.511c-4.253,1.273-8.366,1.913-12.32,1.913
							c-5.791,0-11.232-1.323-16.633-4.045c-13.846-6.98-21.482-16.917-25.53-33.229c-3.953-15.928-4.563-37.457-2.107-74.31
							c3.033-45.491,9.242-81.278,12.674-98.562c1.508-7.594,2.59-13.946,3.405-19.99
							C623.566,914.621,623.772,913.482,623.967,912.578L623.967,912.578z M770.542,1131.196l0.216-0.188
							c-0.085,0.312-0.166,0.622-0.243,0.93C770.524,1131.688,770.533,1131.442,770.542,1131.196L770.542,1131.196z
							 M840.967,1156.694c6.302-4.453,10.569-10.305,13.092-16.07c-2.062,11.207-4.122,21.615-5.782,29.753
							C847.185,1165.224,844.709,1160.528,840.967,1156.694L840.967,1156.694z M746.213,1192.945
							c13.613-9.666,20.645-24.554,23.358-48.362c0.761,6.503,3.471,11.496,6.311,15.075c1.655,2.085,3.594,3.92,5.743,5.47
							c-6.854,4.755-11.672,9.023-13.973,11.185c-10.342,8.148-14.86,16.206-16.478,23.073
							C749.78,1197.062,748.118,1194.899,746.213,1192.945L746.213,1192.945z"/>
					</g>
				</g>
			</g>
			<g>
				<path class="st2" d="M460.501,876.623c0.07,0.731,0.169,1.474,0.299,2.227c1.98,11.481,10.95,20.311,22.036,23.891
					c6.98,2.254,16.39,3.531,27.615,0.791c12.193-2.976,22.751-10.447,30.611-20.232c14.629-18.213,38.162-64.918,20.074-112.965
					c0,0-26.622-87.221-142.768-63.03c0,0-172.31,39.46-161.948,191.825c1.874,27.555,11.66,54.136,28.657,75.905
					c17.651,22.606,47.457,50.514,96.08,71.722c0,0,82.015,41.008,94.925,85.812c0,0,27.848,53.88-31.048,98.938
					c-13.905,10.638-29.87,18.223-46.686,23.095c-32.215,9.335-91.31,19.494-111.357-23.311c0,0-9.886-19.066,10.516-38.131
					c2.176-2.033,4.282-4.144,6.052-6.539c6.262-8.474,16.744-27.554-0.928-43.267c-5.945-5.286-13.366-8.708-21.203-10.077
					c-17.198-3.004-49.741-0.513-59.745,57.005c0,0-13.522,89.909,63.03,123.782c0,0,100.008,51.37,215.235-44.331
					c0,0,40.078-36.432,49.003-87.158c11.465-65.161-17.897-130.67-72.617-167.86c-12.615-8.574-27.625-17.45-45.432-26.223
					c-20.123-9.914-48.327-22.657-64.977-37.692c-26.226-23.682-43.611-58.217-32.749-95.4c0,0,20.642-70.639,115.567-81.271
					c0,0,34.225-5.586,44.805,18.985c0,0,11.889,24.477-23.391,58.666C463.478,858.255,459.611,867.364,460.501,876.623z"/>
				<path class="st2" d="M696.2,1269.517c0,0-19.72,13.845-36.428,5.12c-5.273-2.754-7.693-9.48-7.873-15.426
					c-0.089-2.931,1.885-7.222,3.459-8.629c0,0,24.134-25.619,60.52-41.956c0,0,5.358-3.184,10.073,0.352
					c2.062,1.546,3.206,4.026,3.319,6.6C729.611,1223.302,727.1,1244.068,696.2,1269.517z M829.863,1126.2
					c0,0-1.485,6.683-9.282,8.54c0,0-14.109,6.312-20.421,7.054c0,0-7.054,1.485-1.856-9.653c0,0,7.797-45.297,25.99-69.059
					c0,0,3.713-9.282,5.569-3.342V1126.2z M903.378,1012.401 M889.455,1084.802 M1029.073,1009.217
					c4.315,5.528,23.431,26.982,56.979,22.12c0,0,46.817-8.512,76.597-45.854c11.721-14.698,17.897-33.206,16.405-51.946
					c-0.447-5.614-1.566-10.722-3.893-13.586c0,0-7.797-15.037-15.037,1.114c0,0-8.731,17.463-36.058,42.523
					c-3.476,3.188-7.582,5.681-12.097,7.045c-8.281,2.501-18.902,1.644-14.221-22.278l37.871-182.673c0,0-0.557-5.569,11.139-6.126
					c11.696-0.557,66.275-7.797,71.844-33.416c0,0,7.797-28.694-13.366-27.992c0,0-27.331,1.123-53.829,7.35
					c-4.23,0.994-7.972-3.151-6.386-7.196c0.022-0.055,0.044-0.111,0.067-0.166c0,0,7.797-47.738,7.24-62.218
					c0,0,0-11.139-12.81-10.582c0,0-16.708-0.557-31.188,3.899c0,0-11.696-1.114-17.822,20.05c0,0-10.582,54.579-12.81,64.047
					c-2.228,9.468-12.809,12.81-12.809,12.81l-132.223,56.276c-2.438,1.038-5.208,1.219-7.678,0.259
					c-2.875-1.118-5.389-3.719-2.674-9.753l15.081-61.355c1.554-6.322,2.894-12.692,4.172-19.075
					c1.409-7.041,4.877-18.602,12.814-22.381c0,0,7.713-5.033,10.261,2.564l-0.557,47.896c0,0-2.228,7.24,7.24,2.785
					c0,0,17.818-5.307,27.18-26.87c3.149-7.252,4.565-15.138,4.565-23.044l0-28.797c0-19.879-14.237-37.17-33.866-40.314
					c-0.613-0.098-1.237-0.189-1.872-0.272c-15.276-1.993-30.705,2.057-43.455,10.704c-15.591,10.574-36.808,30.459-46.117,64.038
					c0,0-14.38,63.553-17.797,113.104c-0.295,4.273-1.747,8.43-4.533,11.684c-1.359,1.588-7.06,7.536-9.852,9.018l-3.802,2.035
					l-23.979,14.53c0,0-4.455,1.485-3.713,8.354c0,0,1.299,13.923,2.97,18.008c0,0,1.671,4.455,8.168,4.827
					c6.498,0.371,29.517-1.114,29.517-1.114l-17.636,126.98c0,0-1.114,50.124-40.099,84.097l18.936-201.052
					c0,0,1.671-16.151-23.948-17.822c0,0-25.96,1.191-37.314,14.48c-11.727,13.725-12.756,27.539-12.537,33.588
					c0.126,3.497,0.197,6.988,0.115,10.486c-0.625,26.858-2.821,119.176-3.771,132.952c0,0-5.207,45.594-46.795,68.249
					c-6.111,3.329-13.014,5.078-19.965,4.741c-11.866-0.576-28.072-6.742-34.799-34.027c-3.613-14.652-4.302-38.203,2.425-69.595
					c0,0,20.049-85.767,22.277-100.248c0,0,3.275-15.04-11.846-25.143c-8.016-5.356-18.054-6.72-27.364-4.218
					c-7.317,1.967-15.489,5.116-19.782,9.946c0,0-4.104,3.571-6.016,17.755c-0.829,6.15-1.922,12.253-3.13,18.339
					c-3.542,17.843-9.994,54.963-13.131,102.024c-4.455,66.832-1.442,111.334,42.424,133.446
					c55.381,27.917,107.947-35.426,120.2-54.362c0,0,1.555,12.093-0.098,28.388c-3.146,30.151-12.939,31.311-20.55,35.024
					c0,0-107.724,35.165-115.8,88.909c-8.075,53.744,45.39,56.807,45.39,56.807s61.685,2.715,95.657-41.469
					c0,0,30.631-30.361,29.93-73.259c0,0-1.114-2.785,7.797-9.468c0,0,12.531-12.81,32.302-20.607c0,0,6.405-3.899,3.62,3.342
					c0,0-0.835,37.593-17.543,80.476c0,0-6.126,20.05,11.696,15.037c0,0,43.441-9.468,55.693-81.869
					c0,0,14.48-65.718,18.379-106.374c0,0,0-3.104,7.21-4.123c13.85-1.957,27.4-5.589,40.069-11.517
					c25.562-11.96,61.742-32.571,77.314-58.985c2.723-6.702,7.062-6.344,10.204-4.883
					C1026.154,1006.179,1027.782,1007.563,1029.073,1009.217z M927.271,1024.182c-34.443,12.028-30.173-11.782-30.173-11.782
					c7.797-33.973,24.659-163.552,24.659-163.552c1.114-11.324,9.097-11.139,9.097-11.139c7.843-5.906,124.567-57.55,124.567-57.55
					c6.683-4.455,6.126,5.569,6.126,5.569c0.557,8.354-23.948,134.777-23.948,134.777s-4.9,40.784-48.266,74.841
					C958.576,1011.825,944.571,1018.141,927.271,1024.182z"/>
			</g>
		</g>
	</g>
</g>
</svg>
