<svg width="148" height="67" viewBox="0 0 148 67" fill="none" xmlns="http://www.w3.org/2000/svg">
<path d="M86.5499 23.009L89.1132 16.4991C89.1132 16.4991 89.3268 15.9239 88.8692 15.3185C88.8692 15.3185 83.1629 10.2314 72.635 13.108C62.1071 15.9845 65.8908 27.8848 65.8908 27.8848C65.8908 27.8848 66.8851 31.4211 72.4513 33.5167C72.4513 33.5167 78.4932 35.364 78.5542 37.483C78.6078 39.3451 75.5046 39.2444 74.7506 39.1919C74.6548 39.1851 74.5595 39.1814 74.4636 39.1789C73.9854 39.166 72.1543 38.9905 69.5219 37.1803C69.5219 37.1803 68.4236 36.363 67.6602 37.362L64.2433 43.5592C63.856 44.2617 64.0783 45.1458 64.7582 45.577C64.7694 45.5838 64.7806 45.5912 64.7918 45.598C64.7918 45.598 73.8852 51.1391 82.7046 47.6874C91.5234 44.2357 88.8991 35.0001 88.8991 35.0001C88.8991 35.0001 87.0984 29.4287 81.6362 27.8236C76.174 26.2185 76.357 23.9783 76.357 23.9783C76.357 23.9783 76.1559 21.6788 79.2864 21.6165C82.0365 21.5621 83.7351 22.6605 84.3427 23.1709C84.6441 23.4235 85.0133 23.5904 85.4062 23.6287C85.8389 23.6713 86.327 23.5724 86.5487 23.0096L86.5499 23.009Z" fill="white"/>
<path d="M93.1715 45.3857C93.1715 45.3857 92.5881 44.8099 92.2258 45.9306L89.6014 51.5224C89.6014 51.5224 89.2646 52.0908 89.7235 52.4306C89.7235 52.4306 92.2644 55.2947 97.9931 55.2867C102.059 55.139 103.749 54.4916 104.239 54.2543C104.358 54.1969 104.476 54.1413 104.598 54.09C105.685 53.6341 110.917 50.9799 111.054 42.0544C111.054 42.0544 111.054 27.8287 112.091 23.7104C112.091 23.7104 112.671 21.6815 110.718 21.5604H104.95C104.95 21.5604 103.572 21.3485 103.76 24.0434C103.76 24.0434 104.218 32.9702 102.723 35.2412C102.723 35.2412 102.235 36.5738 100.251 36.5127C98.5335 36.4602 97.8916 33.3532 97.7503 32.5216C97.7291 32.3968 97.7185 32.2714 97.7179 32.1454L97.688 22.6954C97.688 22.6954 97.8592 21.4634 96.6507 21.5598H89.9987C89.9987 21.5598 89.0529 21.5901 89.1139 22.3772C89.1139 22.3772 90.2739 35.6644 90.3959 36.724C90.5179 37.7835 91.7077 42.9614 96.2852 44.1426C100.863 45.3233 103.518 41.5083 103.518 41.5083C103.518 41.5083 104.067 46.4742 99.795 47.3522C99.795 47.3522 96.7242 48.3036 93.1734 45.3838L93.1715 45.3857Z" fill="white"/>
<path d="M114.908 23.6041H113.565C113.565 23.6041 112.589 23.6041 112.548 24.7748V29.9428C112.548 29.9428 112.4 31.3026 113.443 31.2754H114.908V46.3747C114.908 46.3747 114.746 48.1107 116.129 48.0298H121.906C121.906 48.0298 123.737 48.1911 123.656 46.3339L123.289 31.2346L128.136 31.1481C128.136 31.1481 129.235 31.242 129.112 29.7352L129.067 24.7748C129.067 24.7748 129.141 23.4941 127.927 23.6041H123.533L123.497 20.6188C123.492 20.1925 123.631 19.7718 123.913 19.4499C124.273 19.0384 124.865 18.7617 125.689 19.647L126.991 20.8987C126.991 20.8987 127.398 21.3429 127.927 20.9796C127.927 20.9796 130.694 18.6783 131.141 16.9021C131.141 16.9021 131.282 16.3306 131.141 15.5694C131.141 15.5694 130.163 12.1356 123.542 11.9787C122.849 11.962 122.157 12.0319 121.484 12.195C119.652 12.6379 116.335 13.9341 115.436 17.5884L114.907 23.6041H114.908Z" fill="white"/>
<path d="M133.787 16.1355V21.5858H131.638C131.495 21.5858 131.352 21.5784 131.21 21.5685C130.915 21.5487 130.253 21.6068 130.37 22.5545L130.361 28.2872C130.361 28.2872 130.191 29.1194 131.179 29.0947L133.34 29.1212C133.34 29.1212 133.07 36.3854 133.056 39.3491C133.056 39.3491 132.852 45.5259 138.101 47.5851C138.101 47.5851 142.292 49.7246 147.581 45.6069C147.581 45.6069 148.11 44.8395 147.907 44.1532C147.907 44.1532 146.756 40.2708 146.523 39.5103C146.523 39.5103 146.239 38.5416 145.14 39.026C145.14 39.026 143.186 39.9545 142.088 39.0661C142.088 39.0661 141.03 38.2988 141.03 35.6749V29.2559H145.872C145.872 29.2559 147.011 29.2559 147.133 27.9641L147.296 22.5397C147.296 22.5397 147.445 21.5605 146.32 21.5605H141.723L141.763 16.377C141.763 16.377 141.913 15.0852 140.664 15.0852H135.375C135.375 15.0852 133.749 14.99 133.788 16.1348L133.787 16.1355Z" fill="white"/>
<path d="M66.6124 62.6997H64.3274V58.9978C64.3274 58.8662 64.3623 58.768 64.4326 58.7025C64.5024 58.6364 64.6001 58.582 64.7252 58.5381C64.9457 58.472 65.2146 58.4232 65.5309 58.3905C65.8472 58.3577 66.1635 58.3411 66.4798 58.3411C67.4218 58.3411 68.126 58.5344 68.5936 58.9212C69.0606 59.3086 69.2947 59.8411 69.2947 60.5201C69.2947 60.9507 69.1901 61.3307 68.9802 61.6587C68.7704 61.9874 68.4672 62.2432 68.0693 62.4254C67.6721 62.6083 67.1865 62.6991 66.6124 62.6991V62.6997ZM64.3274 62.3383H65.4755V65.1092C65.4238 65.124 65.3504 65.1419 65.2551 65.1635C65.1592 65.1858 65.0565 65.1963 64.9457 65.1963C64.7321 65.1963 64.5758 65.1543 64.4768 65.0703C64.3772 64.9862 64.328 64.8534 64.328 64.6705V62.3377L64.3274 62.3383ZM65.4643 61.7909H66.5682C67.0539 61.7909 67.438 61.6853 67.7219 61.4734C68.0052 61.2615 68.1465 60.9439 68.1465 60.5207C68.1465 60.0975 68.0015 59.8016 67.7107 59.5897C67.42 59.3778 66.9991 59.2721 66.4468 59.2721C66.2706 59.2721 66.0975 59.2795 65.9282 59.2937C65.7588 59.3086 65.6044 59.3302 65.4643 59.3592V61.7909ZM66.5352 62.3822L67.4511 62.043C67.6497 62.2913 67.852 62.5465 68.0581 62.8097C68.2642 63.0723 68.4647 63.328 68.6596 63.5764C68.8545 63.8247 69.0276 64.0472 69.1782 64.2442C69.3289 64.4413 69.4484 64.5982 69.5369 64.715C69.5001 64.8682 69.4192 64.9906 69.294 65.082C69.1689 65.1734 69.04 65.2192 68.908 65.2192C68.7387 65.2192 68.6023 65.179 68.4996 65.0987C68.3962 65.0184 68.2972 64.9053 68.2013 64.7589L66.5346 62.3822H66.5352Z" fill="white"/>
<path d="M72.0099 62.6341H70.8842V59.0854C70.8842 58.9032 70.9396 58.7549 71.0498 58.6418C71.16 58.5288 71.3107 58.4719 71.5024 58.4719C71.6052 58.4719 71.7067 58.483 71.8063 58.5047C71.9053 58.5263 71.9738 58.5485 72.0105 58.5702V62.6335L72.0099 62.6341ZM70.8842 60.9253H72.0099V65.0436C71.9731 65.0584 71.9046 65.0782 71.8056 65.1041C71.706 65.1294 71.6052 65.1424 71.5018 65.1424C71.31 65.1424 71.16 65.0862 71.0492 64.9725C70.939 64.8595 70.8835 64.7118 70.8835 64.5289V60.9259L70.8842 60.9253ZM71.5024 59.403V58.4719H75.156C75.1852 58.5158 75.2145 58.5776 75.2444 58.6585C75.2736 58.7388 75.2886 58.8228 75.2886 58.9106C75.2886 59.0638 75.2518 59.1843 75.1784 59.272C75.1049 59.3597 75.0016 59.4036 74.8689 59.4036H71.5024V59.403ZM71.5024 62.185V61.265H74.8247C74.854 61.3089 74.8814 61.3688 74.9075 61.4461C74.9331 61.5227 74.9461 61.6085 74.9461 61.7031C74.9461 61.8563 74.9094 61.9749 74.8359 62.0589C74.7625 62.143 74.6591 62.185 74.5271 62.185H71.503H71.5024ZM71.5024 65.1418V64.2108H75.2108C75.24 64.2546 75.2674 64.3146 75.2936 64.3912C75.3191 64.4678 75.3322 64.5574 75.3322 64.6593C75.3322 64.8125 75.2973 64.9311 75.2269 65.0152C75.1572 65.0992 75.052 65.1412 74.9125 65.1412H71.5018L71.5024 65.1418Z" fill="white"/>
<path d="M81.7116 59.2609C81.7116 59.3776 81.6767 59.4821 81.607 59.5729C81.5366 59.6643 81.4544 59.7354 81.3586 59.7866C81.1743 59.655 80.9576 59.5346 80.7073 59.4252C80.457 59.3159 80.1407 59.2609 79.7584 59.2609C79.3238 59.2609 78.9397 59.3579 78.6047 59.5512C78.2697 59.7446 78.007 60.0313 77.8152 60.4106C77.6241 60.7906 77.5282 61.2576 77.5282 61.8124C77.5282 62.652 77.738 63.2841 78.1571 63.7073C78.5767 64.1311 79.1246 64.3424 79.8014 64.3424C80.1694 64.3424 80.4875 64.2911 80.7559 64.1892C81.0242 64.0872 81.2508 63.9704 81.4345 63.8389C81.5229 63.8827 81.6001 63.9519 81.6661 64.0471C81.7321 64.1422 81.7651 64.2516 81.7651 64.3757C81.7651 64.4709 81.739 64.5605 81.6879 64.6439C81.6362 64.7279 81.5478 64.8063 81.4233 64.8792C81.2614 64.9818 81.0404 65.0745 80.7608 65.1585C80.4813 65.2425 80.1245 65.2845 79.6899 65.2845C79.0642 65.2845 78.4995 65.1566 77.9958 64.9015C77.4915 64.6457 77.0924 64.2608 76.7985 63.7462C76.504 63.2315 76.3571 62.5872 76.3571 61.8131C76.3571 61.0389 76.5059 60.4038 76.8041 59.8855C77.1023 59.3671 77.5014 58.9767 78.002 58.7135C78.5026 58.4509 79.0468 58.3193 79.6358 58.3193C80.0548 58.3193 80.419 58.3651 80.7285 58.4565C81.0373 58.5479 81.2782 58.6665 81.4513 58.8123C81.6238 58.9588 81.7103 59.1083 81.7103 59.2615L81.7116 59.2609Z" fill="white"/>
<path d="M84.3166 62.1084H83.1797V58.4942C83.2307 58.4794 83.3067 58.4615 83.4063 58.4392C83.5053 58.4176 83.6068 58.4065 83.7095 58.4065C83.9231 58.4065 84.0775 58.4448 84.1734 58.5214C84.2686 58.598 84.3166 58.7352 84.3166 58.9323V62.1084ZM83.1797 60.9475H84.3166V65.1091C84.2724 65.1239 84.2027 65.1419 84.1068 65.1635C84.0109 65.1857 83.9082 65.1962 83.798 65.1962C83.5844 65.1962 83.4281 65.1542 83.3285 65.0702C83.2295 64.9862 83.1797 64.8533 83.1797 64.6705V60.9469V60.9475Z" fill="white"/>
<path d="M86.1702 62.8313V58.9978C86.1702 58.8662 86.205 58.768 86.2754 58.7025C86.3451 58.6364 86.4429 58.582 86.568 58.5381C86.7884 58.472 87.0555 58.4232 87.3681 58.3905C87.6806 58.3577 87.9807 58.3411 88.2678 58.3411C89.2166 58.3411 89.9196 58.5419 90.376 58.9434C90.8323 59.345 91.0602 59.885 91.0602 60.5639C91.0602 61.0242 90.9587 61.4239 90.7564 61.7631C90.554 62.1023 90.2502 62.3655 89.8461 62.5514C89.4414 62.7374 88.934 62.8307 88.3232 62.8307H86.1708L86.1702 62.8313ZM86.7884 65.1969C86.5749 65.1969 86.4186 65.1549 86.3196 65.0709C86.22 64.9869 86.1708 64.854 86.1708 64.6712V62.3056H87.3189V65.1092C87.2672 65.124 87.1938 65.1419 87.0985 65.1635C87.0026 65.1858 86.8999 65.1963 86.789 65.1963L86.7884 65.1969ZM87.3071 61.9114H88.2566C88.7789 61.9114 89.1855 61.8002 89.4763 61.5772C89.767 61.3547 89.9121 61.0205 89.9121 60.5751C89.9121 60.1296 89.772 59.8016 89.4931 59.5897C89.2135 59.3778 88.8126 59.2721 88.2902 59.2721C88.1059 59.2721 87.9316 59.2795 87.7659 59.2937C87.6003 59.3086 87.4478 59.3302 87.3077 59.3592V61.9114H87.3071Z" fill="white"/>
<path d="M93.5874 62.6341H92.4617V59.0854C92.4617 58.9032 92.5171 58.7549 92.6273 58.6418C92.7375 58.5288 92.8882 58.4719 93.0799 58.4719C93.1827 58.4719 93.2842 58.483 93.3838 58.5047C93.4828 58.5263 93.5513 58.5485 93.588 58.5702V62.6335L93.5874 62.6341ZM92.4617 60.9253H93.5874V65.0436C93.5506 65.0584 93.4822 65.0782 93.3832 65.1041C93.2835 65.1294 93.1827 65.1424 93.0793 65.1424C92.8875 65.1424 92.7375 65.0862 92.6267 64.9725C92.5165 64.8595 92.4611 64.7118 92.4611 64.5289V60.9259L92.4617 60.9253ZM93.0799 59.403V58.4719H96.7335C96.7627 58.5158 96.792 58.5776 96.8219 58.6585C96.8511 58.7388 96.8661 58.8228 96.8661 58.9106C96.8661 59.0638 96.8294 59.1843 96.7559 59.272C96.6824 59.3597 96.5791 59.4036 96.4464 59.4036H93.0799V59.403ZM93.0799 62.185V61.265H96.4022C96.4315 61.3089 96.4589 61.3688 96.4851 61.4461C96.5106 61.5227 96.5237 61.6085 96.5237 61.7031C96.5237 61.8563 96.4869 61.9749 96.4134 62.0589C96.34 62.143 96.2366 62.185 96.1046 62.185H93.0806H93.0799ZM93.0799 65.1418V64.2108H96.7883C96.8175 64.2546 96.8449 64.3146 96.8711 64.3912C96.8966 64.4678 96.9097 64.5574 96.9097 64.6593C96.9097 64.8125 96.8748 64.9311 96.8045 65.0152C96.7341 65.0992 96.6295 65.1412 96.49 65.1412H93.0793L93.0799 65.1418Z" fill="white"/>
<path d="M104.592 63.4226C104.526 63.4665 104.443 63.5066 104.343 63.5431C104.244 63.5795 104.131 63.598 104.006 63.598C103.852 63.598 103.719 63.5764 103.609 63.5326C103.499 63.4887 103.421 63.4158 103.377 63.3132C103.031 62.5397 102.732 61.8459 102.478 61.2325C102.224 60.619 102.023 60.108 101.876 59.699H101.832C101.81 60.2174 101.786 60.6993 101.761 61.1447C101.734 61.5902 101.711 62.0208 101.689 62.4372C101.667 62.8536 101.645 63.2805 101.623 63.7185C101.601 64.1566 101.575 64.6236 101.546 65.1203C101.487 65.1426 101.411 65.1605 101.32 65.1753C101.228 65.1901 101.134 65.1969 101.038 65.1969C100.84 65.1969 100.694 65.1586 100.602 65.082C100.51 65.0054 100.464 64.8905 100.464 64.7373C100.464 64.6279 100.472 64.4142 100.487 64.0966C100.502 63.7791 100.522 63.3973 100.547 62.9518C100.573 62.5064 100.604 62.0338 100.641 61.5333C100.678 61.0335 100.715 60.5387 100.751 60.0493C100.788 59.56 100.825 59.1146 100.861 58.713C100.92 58.6475 101.014 58.5851 101.143 58.5271C101.272 58.469 101.432 58.4393 101.623 58.4393C101.843 58.4393 102.026 58.4795 102.169 58.5598C102.313 58.6401 102.421 58.7643 102.495 58.9324C102.664 59.2759 102.833 59.6515 103.003 60.0605C103.172 60.4695 103.339 60.8785 103.504 61.2868C103.67 61.6958 103.826 62.0795 103.974 62.4366H104.018C104.312 61.7063 104.603 60.9983 104.89 60.3119C105.177 59.6255 105.42 59.0454 105.618 58.5703C105.699 58.5339 105.798 58.503 105.917 58.477C106.034 58.4517 106.152 58.4387 106.27 58.4387C106.483 58.4387 106.654 58.4733 106.783 58.5431C106.911 58.6123 106.994 58.7167 107.031 58.8551C107.06 58.9867 107.092 59.2017 107.125 59.5014C107.158 59.801 107.193 60.1494 107.23 60.5473C107.266 60.9452 107.303 61.3653 107.34 61.807C107.377 62.2488 107.41 62.6794 107.439 63.0995C107.468 63.5196 107.495 63.9008 107.522 64.2443C107.547 64.5878 107.564 64.8578 107.571 65.0548C107.49 65.1061 107.406 65.1426 107.317 65.1642C107.229 65.1864 107.123 65.1969 106.997 65.1969C106.85 65.1969 106.722 65.1661 106.611 65.1037C106.501 65.0419 106.438 64.9226 106.423 64.7478C106.379 64.0762 106.341 63.4226 106.308 62.7875C106.275 62.1524 106.245 61.5704 106.219 61.0409C106.193 60.5115 106.169 60.0716 106.148 59.7213H106.103C105.963 60.1012 105.77 60.5831 105.524 61.167C105.277 61.7514 104.966 62.5033 104.591 63.4232L104.592 63.4226Z" fill="white"/>
<path d="M111.711 59.3815H111.666C111.563 59.6663 111.445 59.9987 111.313 60.378C111.181 60.758 111.043 61.1503 110.899 61.5556C110.755 61.9609 110.622 62.3458 110.496 62.7109L110.397 63.1273C110.353 63.2663 110.301 63.4269 110.242 63.6092C110.183 63.7921 110.123 63.9799 110.06 64.1732C109.997 64.3666 109.937 64.5495 109.878 64.7206C109.819 64.8924 109.772 65.0326 109.734 65.1426C109.675 65.1716 109.611 65.1933 109.541 65.2081C109.471 65.2229 109.385 65.2303 109.282 65.2303C109.106 65.2303 108.96 65.1902 108.846 65.1098C108.732 65.0295 108.675 64.9128 108.675 64.7595C108.675 64.6792 108.688 64.6008 108.713 64.5242C108.739 64.4476 108.767 64.3617 108.796 64.2665C108.877 64.0256 108.98 63.7247 109.106 63.3633C109.231 63.0019 109.37 62.6096 109.525 62.1857C109.679 61.7625 109.837 61.3313 109.999 60.8933C110.161 60.4553 110.317 60.0376 110.468 59.6391C110.619 59.2413 110.757 58.8891 110.882 58.5827C110.955 58.5462 111.067 58.5079 111.219 58.4678C111.369 58.4276 111.522 58.4072 111.677 58.4072C111.876 58.4072 112.06 58.4363 112.229 58.495C112.399 58.5536 112.509 58.6519 112.56 58.7903C112.722 59.1993 112.899 59.6682 113.09 60.1976C113.281 60.7271 113.474 61.2763 113.67 61.846C113.865 62.4156 114.051 62.9704 114.227 63.5103C114.403 64.0509 114.562 64.5396 114.702 64.9783C114.642 65.0512 114.56 65.1098 114.453 65.1531C114.347 65.197 114.227 65.2192 114.095 65.2192C113.896 65.2192 113.752 65.1828 113.664 65.1098C113.575 65.0369 113.506 64.9128 113.454 64.7373L112.924 63.1273L112.803 62.6343C112.67 62.2253 112.536 61.8169 112.4 61.4073C112.263 60.9983 112.135 60.619 112.013 60.2687C111.892 59.9184 111.79 59.6225 111.71 59.3815H111.711ZM109.867 63.4448L110.275 62.536H113.201L113.388 63.4448H109.867Z" fill="white"/>
<path d="M121.401 63.6197V63.2694V64.9888C121.328 65.0475 121.228 65.0963 121.103 65.1364C120.978 65.1766 120.834 65.1964 120.673 65.1964C120.474 65.1964 120.299 65.1618 120.148 65.0926C119.998 65.0234 119.863 64.8825 119.745 64.6706L117.891 61.4617C117.789 61.2794 117.678 61.0805 117.56 60.8649C117.442 60.6499 117.332 60.4429 117.229 60.2458C117.126 60.0488 117.041 59.877 116.975 59.7312L115.904 59.9833V58.6581C115.977 58.5778 116.081 58.5154 116.213 58.4715C116.346 58.4276 116.485 58.406 116.632 58.406C116.831 58.406 117.008 58.4425 117.162 58.5154C117.317 58.5883 117.453 58.7273 117.571 58.9318L119.436 62.1407C119.546 62.3235 119.658 62.5225 119.773 62.7375C119.887 62.9531 119.992 63.1594 120.087 63.3565C120.183 63.5536 120.264 63.7253 120.33 63.8712L121.401 63.6191V63.6197ZM115.905 59.5891L116.898 59.5341C116.928 59.7899 116.954 60.071 116.975 60.3774C116.997 60.6839 117.012 60.9928 117.02 61.3029C117.027 61.6137 117.031 61.9108 117.031 62.1957V65.1092C116.987 65.1241 116.915 65.142 116.815 65.1636C116.716 65.1859 116.615 65.1964 116.512 65.1964C116.306 65.1964 116.153 65.1562 116.053 65.0759C115.954 64.9956 115.905 64.864 115.905 64.6817V59.5891ZM121.401 64.0139L120.397 64.0577C120.33 63.4739 120.293 62.8857 120.287 62.2945C120.279 61.7033 120.275 61.1336 120.275 60.5863V58.4832C120.326 58.4684 120.4 58.4523 120.496 58.4338C120.591 58.4159 120.691 58.4066 120.794 58.4066C121.008 58.4066 121.162 58.4449 121.258 58.5215C121.353 58.5981 121.401 58.7279 121.401 58.9101V64.0139Z" fill="white"/>
<path d="M125.662 59.3815H125.617C125.514 59.6663 125.396 59.9987 125.264 60.378C125.132 60.758 124.994 61.1503 124.85 61.5556C124.707 61.9609 124.573 62.3458 124.448 62.7109L124.348 63.1273C124.304 63.2663 124.252 63.4269 124.193 63.6092C124.134 63.7921 124.074 63.9799 124.011 64.1732C123.948 64.3666 123.888 64.5495 123.829 64.7206C123.77 64.8924 123.723 65.0326 123.685 65.1426C123.626 65.1716 123.562 65.1933 123.492 65.2081C123.422 65.2229 123.336 65.2303 123.233 65.2303C123.057 65.2303 122.911 65.1902 122.797 65.1098C122.683 65.0295 122.626 64.9128 122.626 64.7595C122.626 64.6792 122.639 64.6008 122.664 64.5242C122.69 64.4476 122.718 64.3617 122.747 64.2665C122.828 64.0256 122.931 63.7247 123.057 63.3633C123.182 63.0019 123.321 62.6096 123.476 62.1857C123.63 61.7625 123.788 61.3313 123.95 60.8933C124.112 60.4553 124.268 60.0376 124.419 59.6391C124.57 59.2413 124.708 58.8891 124.833 58.5827C124.906 58.5462 125.018 58.5079 125.17 58.4678C125.32 58.4276 125.473 58.4072 125.628 58.4072C125.827 58.4072 126.011 58.4363 126.18 58.495C126.35 58.5536 126.46 58.6519 126.511 58.7903C126.673 59.1993 126.85 59.6682 127.041 60.1976C127.232 60.7271 127.426 61.2763 127.621 61.846C127.816 62.4156 128.002 62.9704 128.178 63.5103C128.354 64.0509 128.513 64.5396 128.653 64.9783C128.594 65.0512 128.511 65.1098 128.404 65.1531C128.298 65.197 128.178 65.2192 128.046 65.2192C127.847 65.2192 127.703 65.1828 127.615 65.1098C127.526 65.0369 127.457 64.9128 127.405 64.7373L126.875 63.1273L126.754 62.6343C126.621 62.2253 126.487 61.8169 126.351 61.4073C126.215 60.9983 126.086 60.619 125.964 60.2687C125.843 59.9184 125.741 59.6225 125.661 59.3815H125.662ZM123.818 63.4448L124.226 62.536H127.152L127.339 63.4448H123.818Z" fill="white"/>
<path d="M135.252 61.944V64.2985C135.252 64.4517 135.214 64.5759 135.137 64.671C135.059 64.7662 134.94 64.8539 134.778 64.9342C134.594 65.0368 134.331 65.1202 133.989 65.1863C133.647 65.2518 133.302 65.2845 132.957 65.2845C132.273 65.2845 131.66 65.1622 131.119 64.9176C130.578 64.6729 130.157 64.2936 129.855 63.7789C129.553 63.2643 129.402 62.6088 129.402 61.8131C129.402 61.0173 129.559 60.3933 129.872 59.8744C130.184 59.356 130.602 58.9674 131.125 58.7079C131.647 58.4485 132.225 58.3193 132.857 58.3193C133.284 58.3193 133.659 58.3651 133.983 58.4565C134.307 58.5479 134.557 58.6647 134.733 58.8068C134.91 58.9495 134.998 59.1009 134.998 59.2615C134.998 59.3783 134.965 59.4827 134.899 59.5735C134.833 59.6649 134.755 59.736 134.667 59.7873C134.469 59.6557 134.233 59.5352 133.961 59.4258C133.688 59.3165 133.346 59.2615 132.934 59.2615C132.485 59.2615 132.082 59.3585 131.725 59.5519C131.369 59.7452 131.087 60.0319 130.881 60.4112C130.675 60.7912 130.572 61.2583 130.572 61.8131C130.572 62.3975 130.677 62.8757 130.887 63.2476C131.096 63.6201 131.384 63.8957 131.748 64.0742C132.112 64.2534 132.522 64.3424 132.978 64.3424C133.221 64.3424 133.445 64.3226 133.652 64.2818C133.858 64.2417 134.02 64.1922 134.137 64.1342V62.3487H132.581C132.559 62.3048 132.535 62.243 132.509 62.1627C132.483 62.0824 132.471 61.9984 132.471 61.9107C132.471 61.75 132.507 61.6296 132.581 61.5492C132.654 61.4689 132.753 61.4288 132.879 61.4288H134.733C134.88 61.4288 135.003 61.4763 135.103 61.5709C135.202 61.666 135.252 61.7902 135.252 61.9434L135.252 61.944Z" fill="white"/>
<path d="M138.012 62.6341H136.886V59.0854C136.886 58.9032 136.942 58.7549 137.052 58.6418C137.162 58.5288 137.313 58.4719 137.505 58.4719C137.607 58.4719 137.709 58.483 137.808 58.5047C137.907 58.5263 137.976 58.5485 138.013 58.5702V62.6335L138.012 62.6341ZM136.886 60.9253H138.012V65.0436C137.975 65.0584 137.907 65.0782 137.808 65.1041C137.708 65.1294 137.607 65.1424 137.504 65.1424C137.312 65.1424 137.162 65.0862 137.051 64.9725C136.941 64.8595 136.886 64.7118 136.886 64.5289V60.9259L136.886 60.9253ZM137.505 59.403V58.4719H141.158C141.187 58.5158 141.217 58.5776 141.246 58.6585C141.276 58.7388 141.291 58.8228 141.291 58.9106C141.291 59.0638 141.254 59.1843 141.18 59.272C141.107 59.3597 141.004 59.4036 140.871 59.4036H137.505V59.403ZM137.505 62.185V61.265H140.827C140.856 61.3089 140.883 61.3688 140.91 61.4461C140.935 61.5227 140.948 61.6085 140.948 61.7031C140.948 61.8563 140.911 61.9749 140.838 62.0589C140.765 62.143 140.661 62.185 140.529 62.185H137.505H137.505ZM137.505 65.1418V64.2108H141.213C141.242 64.2546 141.269 64.3146 141.296 64.3912C141.321 64.4678 141.334 64.5574 141.334 64.6593C141.334 64.8125 141.299 64.9311 141.229 65.0152C141.159 65.0992 141.054 65.1412 140.915 65.1412H137.504L137.505 65.1418Z" fill="white"/>
<path d="M145.076 62.6997H142.791V58.9978C142.791 58.8662 142.825 58.768 142.896 58.7025C142.965 58.6364 143.063 58.582 143.188 58.5381C143.409 58.472 143.678 58.4232 143.994 58.3905C144.31 58.3577 144.627 58.3411 144.943 58.3411C145.885 58.3411 146.589 58.5344 147.057 58.9212C147.524 59.3086 147.758 59.8411 147.758 60.5201C147.758 60.9507 147.653 61.3307 147.443 61.6587C147.234 61.9874 146.93 62.2432 146.532 62.4254C146.135 62.6083 145.65 62.6991 145.076 62.6991V62.6997ZM142.791 62.3383H143.939V65.1092C143.887 65.124 143.814 65.1419 143.718 65.1635C143.622 65.1858 143.52 65.1963 143.409 65.1963C143.195 65.1963 143.039 65.1543 142.94 65.0703C142.84 64.9862 142.791 64.8534 142.791 64.6705V62.3377L142.791 62.3383ZM143.927 61.7909H145.031C145.517 61.7909 145.901 61.6853 146.185 61.4734C146.468 61.2615 146.61 60.9439 146.61 60.5207C146.61 60.0975 146.465 59.8016 146.174 59.5897C145.883 59.3778 145.462 59.2721 144.91 59.2721C144.734 59.2721 144.561 59.2795 144.391 59.2937C144.222 59.3086 144.068 59.3302 143.927 59.3592V61.7909ZM144.998 62.3822L145.914 62.043C146.113 62.2913 146.315 62.5465 146.521 62.8097C146.727 63.0723 146.928 63.328 147.123 63.5764C147.318 63.8247 147.491 64.0472 147.641 64.2442C147.792 64.4413 147.912 64.5982 148 64.715C147.963 64.8682 147.882 64.9906 147.757 65.082C147.632 65.1734 147.503 65.2192 147.371 65.2192C147.202 65.2192 147.065 65.179 146.963 65.0987C146.859 65.0184 146.76 64.9053 146.664 64.7589L144.998 62.3822H144.998Z" fill="white"/>
<path d="M22.9181 58.1409L22.4568 64.7378C22.4568 64.7428 22.4555 64.7477 22.4543 64.7527C22.4232 64.8577 22.0608 66.1891 23.4393 66.5808C23.4393 66.5808 26.0617 67.4914 28.1656 66.6283C28.1699 66.6265 28.1743 66.6246 28.178 66.6222C28.2689 66.5672 29.2738 65.9234 28.4588 64.8812C28.2173 64.5723 27.886 64.3449 27.5187 64.2022C27.0598 64.0243 26.2622 63.7876 24.9883 63.6196C24.9491 63.6147 24.9192 63.5807 24.9211 63.5411L25.1558 58.5153C25.1565 58.4986 25.1521 58.4831 25.1428 58.4695C25.0469 58.3274 24.451 57.5669 22.9711 58.0735C22.9418 58.0834 22.9206 58.1106 22.9181 58.1415V58.1409Z" fill="#D14D28"/>
<path d="M35.5032 57.6628L35.9359 64.2616C35.9359 64.2665 35.9359 64.2715 35.9359 64.2764C35.9197 64.3845 35.7398 65.7524 37.1587 65.9575C37.1587 65.9575 39.8808 66.5117 41.8489 65.3774C41.8533 65.3749 41.857 65.3724 41.8607 65.3693C41.9492 65.2983 42.9796 64.4235 41.6839 63.4164C41.4984 63.2719 41.283 63.1687 41.0563 63.1044C40.6161 62.9803 39.7538 62.8141 38.2944 62.8172C38.2552 62.8172 38.2209 62.7875 38.2172 62.7486L37.7714 57.7363C37.7701 57.7196 37.7633 57.7048 37.7521 57.6924C37.6381 57.5645 36.9445 56.8899 35.5468 57.588C35.5194 57.6016 35.5013 57.6313 35.5038 57.6621L35.5032 57.6628Z" fill="#D14D28"/>
<path d="M54.0685 38.8418C54.0685 38.8418 54.8001 39.4633 55.9388 38.7472C55.9388 38.7472 59.7729 36.795 61.1869 34.2799C61.1869 34.2799 62.5772 34.1149 64.508 32.0403C64.7396 31.7913 64.9102 31.4855 64.9631 31.1506C65.0384 30.6762 64.8871 30.114 63.726 30.1504C63.726 30.1504 63.3935 30.2777 63.3449 29.9354C63.3449 29.9354 63.777 28.6633 62.8798 28.4125C62.8798 28.4125 62.1352 28.0746 61.2436 29.2614C61.2436 29.2614 60.9005 29.5653 60.8451 29.2293C60.8451 29.2293 60.9347 28.3489 59.8514 28.271C59.8514 28.271 59.1702 28.25 58.7898 29.2305C58.6192 29.6704 58.6298 30.1584 58.7936 30.6008C59.0513 31.2983 59.4162 32.4913 59.0395 32.8317C59.0395 32.8317 56.775 35.5556 54.4551 36.5936C54.4551 36.5936 52.8077 37.5246 54.0685 38.8418Z" fill="#D14D28"/>
<path d="M49.9455 23.6231C46.8137 19.3491 42.032 16.5646 36.7709 15.7442C31.0945 14.8588 21.1954 14.5098 12.2758 20.1794C-1.20395 28.7472 6.56075 45.5745 6.56075 45.5745C6.56075 45.5745 12.4619 59.5049 30.3865 57.1375C35.3513 56.482 40.3292 55.7702 44.4739 52.9808C48.5845 50.2149 52.677 45.632 53.5218 38.1775C54.2534 31.717 52.4017 26.976 49.9449 23.6231H49.9455Z" fill="#EB5D31"/>
<path d="M30.2937 15.239C32.7643 15.239 34.9783 15.4651 36.7708 15.7443C42.032 16.5648 46.8131 19.3493 49.9455 23.6233C52.4023 26.9761 54.254 31.7172 53.5224 38.1776C52.6781 45.6321 48.585 50.2151 44.4745 52.981C40.3297 55.7704 35.3513 56.4821 30.3871 57.1376C28.9825 57.323 27.6544 57.4082 26.3942 57.4082C11.5765 57.4082 6.56069 45.5741 6.56069 45.5741C6.56069 45.5741 -1.204 28.7468 12.2757 20.179C18.3793 16.2997 24.9404 15.2383 30.2943 15.2383M30.2943 13.0192C23.0614 13.0192 16.5936 14.7991 11.0697 18.3101C4.84538 22.2666 1.75407 28.4515 2.13013 36.1957C2.39599 41.6763 4.32735 46.0553 4.51601 46.4711C4.6891 46.8665 6.12486 49.9976 9.37244 53.0916C12.5024 56.0731 17.9964 59.6268 26.3942 59.6268C27.7814 59.6268 29.2241 59.5292 30.6822 59.3364C35.5405 58.6951 41.0476 57.9673 45.7297 54.8171C48.3142 53.078 50.4504 50.9781 52.0786 48.5754C54.0828 45.6179 55.3162 42.2033 55.7445 38.4248C56.4388 32.2973 55.0964 26.8779 51.7542 22.3172C50.0295 19.9634 47.8597 18.0006 45.3051 16.4839C42.7959 14.9937 40.0415 14.0071 37.1183 13.5511C34.8525 13.1977 32.5563 13.0186 30.2943 13.0186V13.0192Z" fill="#113D21"/>
<path opacity="0.46" d="M14.3208 26.1801C15.0623 24.4585 14.8962 22.7376 13.9498 22.3363C13.0034 21.9349 11.6352 23.0052 10.8937 24.7268C10.1522 26.4484 10.3183 28.1693 11.2647 28.5707C12.2111 28.972 13.5794 27.9017 14.3208 26.1801Z" fill="#F9EFCD"/>
<path opacity="0.46" d="M15.0698 26.7479C16.3612 24.5284 16.6855 22.3153 15.7942 21.8047C14.9029 21.2941 13.1335 22.6793 11.8422 24.8988C10.5508 27.1183 10.2264 29.3314 11.1177 29.842C12.009 30.3527 13.7785 28.9674 15.0698 26.7479Z" fill="#F9EFCD"/>
<path d="M21.9861 16.4783C21.9861 16.4783 -0.562726 21.2243 5.93493 42.3868C5.93493 42.3868 9.99753 55.9323 24.6571 56.6162" stroke="#D14D28" stroke-width="3" stroke-miterlimit="10" stroke-linecap="round"/>
<path d="M7.84205 43.1077C7.84205 43.1077 6.94797 42.7524 6.10183 43.7947C6.10183 43.7947 3.10453 46.8677 2.58216 49.7003C2.58216 49.7003 1.31948 50.3009 0.164523 52.8814C0.0256793 53.191 -0.0365833 53.5351 0.021943 53.8687C0.104751 54.342 0.430383 54.8257 1.51748 54.4204C1.51748 54.4204 1.79081 54.1937 1.94833 54.502C1.94833 54.502 1.95206 55.8438 2.88226 55.795C2.88226 55.795 3.69665 55.8772 4.15552 54.4686C4.15552 54.4686 4.38153 54.0713 4.54341 54.3716C4.54341 54.3716 4.74452 55.2341 5.7955 54.961C5.7955 54.961 6.44676 54.7633 6.4891 53.7136C6.50777 53.2429 6.33967 52.7838 6.04143 52.4175C5.57073 51.8392 4.83915 50.8266 5.08509 50.3836C5.08509 50.3836 6.34527 47.0814 8.20504 45.3578C8.20504 45.3578 9.46273 43.9498 7.84205 43.1058V43.1077Z" fill="#D14D28"/>
<path d="M28.3542 35.7594C30.0811 35.7594 31.481 33.9197 31.481 31.6503C31.481 29.3809 30.0811 27.5413 28.3542 27.5413C26.6273 27.5413 25.2274 29.3809 25.2274 31.6503C25.2274 33.9197 26.6273 35.7594 28.3542 35.7594Z" fill="#0C3D1F"/>
<path d="M46.3835 34.6672C47.7963 34.5178 48.7524 32.6335 48.5189 30.4583C48.2854 28.2831 46.9508 26.6408 45.5379 26.7902C44.1251 26.9395 43.169 28.8239 43.4025 30.999C43.636 33.1742 44.9706 34.8165 46.3835 34.6672Z" fill="#0C3D1F"/>
<path d="M34.3178 37.0093C34.0345 36.9549 33.6136 36.9574 33.3452 37.338C33.1989 37.5456 33.1622 37.8112 33.2188 38.0583C33.4093 38.898 34.2916 41.0937 38.3243 41.2067C38.3523 41.2073 38.3803 41.2067 38.4084 41.2061C38.8467 41.1832 42.4548 40.9176 43.695 38.3042C43.7343 38.2215 43.7598 38.1331 43.7729 38.0429C43.799 37.8662 43.8308 37.5505 43.7953 37.2323C43.7243 36.6022 43.0805 36.1802 42.4878 36.4181C42.3278 36.4823 42.1628 36.5861 42.0083 36.7498C42.0083 36.7498 39.7931 39.1327 38.1985 38.9072C38.1985 38.9072 36.8362 38.9857 34.7667 37.2292C34.6378 37.1199 34.484 37.0421 34.3178 37.0105V37.0093Z" fill="#0C3D1F"/>
<path d="M23.3247 11.7681C23.3247 11.7681 19.5149 8.27499 13.4269 11.1515C13.4269 11.1515 12.8778 11.322 13.648 11.7551C13.6859 11.7767 16.8395 14.088 21.5926 13.9471C21.6106 13.9471 21.6287 13.9378 21.6461 13.9415C21.9649 14.0089 22.4207 13.9675 22.3304 14.7805C22.3279 14.8003 22.3291 14.8201 22.3248 14.8398C22.2949 14.9924 22.26 15.8067 21.5851 16.5765C21.5851 16.5765 20.5976 17.5187 20.7321 19.7638C20.7427 19.9362 20.9071 20.056 21.0758 20.0152C21.7856 19.8416 23.5987 19.1188 25.6851 16.1249C25.6851 16.1249 26.1607 15.4169 26.9571 15.887C26.9907 15.9068 27.0193 15.9352 27.0424 15.9667C27.3182 16.351 29.4407 18.9483 36.1606 18.4299C36.1868 18.4281 36.7801 18.3712 36.5348 18.0265C36.363 17.7442 36.0479 17.2876 35.6134 16.9058C35.6134 16.9058 34.464 15.5806 32.6472 14.8565C32.6472 14.8565 31.0788 14.2245 31.4978 13.5159C31.4978 13.5159 31.5582 13.2755 32.3975 13.0618C32.4187 13.0562 32.4392 13.0488 32.4585 13.0383C32.8639 12.8227 37.4383 10.3385 37.9426 7.62938C37.9426 7.62938 38.1094 7.30564 37.4221 7.42921C37.4221 7.42921 32.956 7.84376 30.8553 10.268C30.8484 10.2761 30.8428 10.2829 30.8372 10.2909C30.7102 10.467 29.1169 12.6658 28.386 12.9716C28.3474 12.9876 28.305 12.9907 28.2633 12.987C28.0435 12.9673 27.3512 12.8746 27.3512 12.499C27.3512 12.499 27.5075 5.58998 26.0468 3.43815C26.0468 3.43815 25.2467 2.19759 24.3695 1.59646C24.3695 1.59646 24.253 1.42718 23.7792 1.50379C23.7792 1.50379 22.2115 1.89301 21.3983 2.60781C21.2987 2.69554 21.2788 2.8432 21.3504 2.95502C21.3927 3.02113 21.4618 3.09774 21.5739 3.183C21.5739 3.183 25.2978 5.1847 25.8756 11.9318C25.8756 11.9516 25.8737 11.9707 25.8694 11.9899C25.8339 12.1542 25.6141 12.8919 24.6042 12.5428C24.5924 12.5385 24.5818 12.5342 24.5706 12.5292C24.4504 12.4718 23.669 12.0906 23.3228 11.7687L23.3247 11.7681Z" fill="#46773A"/>
<path d="M24.0084 1.48274C24.2929 1.48274 24.3707 1.59519 24.3707 1.59519C25.248 2.19632 26.0481 3.43688 26.0481 3.43688C27.5087 5.58871 27.3524 12.4977 27.3524 12.4977C27.3524 12.8733 28.0448 12.966 28.2646 12.9858C28.2752 12.987 28.2858 12.987 28.2963 12.987C28.3275 12.987 28.3586 12.982 28.3879 12.9703C29.1188 12.6645 30.7121 10.4657 30.8391 10.2896C30.8453 10.281 30.8503 10.2742 30.8572 10.2668C32.9579 7.84248 37.4239 7.42793 37.4239 7.42793C37.5341 7.40816 37.6219 7.40013 37.6923 7.40013C38.0621 7.40013 37.9438 7.62872 37.9438 7.62872C37.4395 10.3378 32.8651 12.822 32.4598 13.0377C32.4405 13.0475 32.4199 13.0556 32.3988 13.0611C31.5595 13.2749 31.4991 13.5152 31.4991 13.5152C31.0801 14.2238 32.6485 14.8559 32.6485 14.8559C34.4653 15.5799 35.6146 16.9051 35.6146 16.9051C36.0486 17.287 36.3636 17.7435 36.5361 18.0259C36.782 18.37 36.188 18.4274 36.1619 18.4293C35.5555 18.4762 34.987 18.4972 34.454 18.4972C29.074 18.4972 27.2945 16.3158 27.0436 15.9661C27.0212 15.9346 26.992 15.9061 26.9583 15.8864C26.7597 15.769 26.5816 15.7251 26.4254 15.7251C25.9547 15.7251 25.6863 16.1242 25.6863 16.1242C23.5999 19.1181 21.7868 19.841 21.0771 20.0146C21.0546 20.0201 21.0322 20.0226 21.0098 20.0226C20.8672 20.0226 20.7421 19.9126 20.7334 19.7631C20.5989 17.518 21.5864 16.5758 21.5864 16.5758C22.2619 15.8061 22.2968 14.9918 22.326 14.8392C22.3298 14.8194 22.3292 14.7996 22.3316 14.7799C22.4219 13.9675 21.9668 14.0082 21.6474 13.9409C21.6443 13.9403 21.6412 13.9403 21.638 13.9403C21.6231 13.9403 21.6082 13.9464 21.5932 13.9471C21.4525 13.9514 21.313 13.9532 21.1754 13.9532C16.6565 13.9532 13.6859 11.7761 13.6486 11.7551C12.879 11.322 13.4276 11.1515 13.4276 11.1515C15.2033 10.3125 16.7847 10.0153 18.1352 10.0153C21.4139 10.0153 23.3253 11.7681 23.3253 11.7681C23.6715 12.0899 24.4529 12.4711 24.5731 12.5286C24.5843 12.5341 24.5949 12.5385 24.6067 12.5422C24.796 12.6077 24.9572 12.6348 25.0955 12.6348C25.6925 12.6348 25.8426 12.1227 25.8719 11.9892C25.8762 11.9701 25.8781 11.9509 25.8781 11.9312C25.3003 5.18405 21.5764 3.18234 21.5764 3.18234C21.4643 3.09708 21.3946 3.02047 21.3529 2.95437C21.2819 2.84255 21.3012 2.69489 21.4008 2.60716C22.2133 1.89173 23.7817 1.50313 23.7817 1.50313C23.8695 1.48892 23.9449 1.48274 24.0096 1.48274M24.0096 0C23.8596 0 23.7014 0.0135918 23.5401 0.0395398L23.4791 0.049425L23.4194 0.0642523C23.0981 0.14395 21.4438 0.587538 20.4096 1.49757C19.759 2.07028 19.6245 3.01615 20.0902 3.74702C20.2315 3.96881 20.4252 4.17393 20.6655 4.35742L20.777 4.44267L20.856 4.4816C20.9476 4.5372 21.6617 4.99376 22.4182 6.05763C23.2681 7.25186 23.8708 8.78588 24.1908 10.551C23.9448 10.3502 23.4106 9.95169 22.6261 9.56432C21.2589 8.88967 19.7067 8.5332 18.1364 8.5332C16.4043 8.5332 14.6255 8.95392 12.8479 9.78426C12.244 10.0234 11.8206 10.5559 11.7546 11.1743C11.7041 11.6426 11.8592 12.1085 12.191 12.4847C12.3591 12.6756 12.5752 12.8474 12.8498 13.0086C13.1941 13.2434 14.0539 13.7864 15.3209 14.2974C17.0138 14.98 18.7852 15.3588 20.5945 15.4255C20.5615 15.4768 20.5236 15.5287 20.48 15.5799C20.3237 15.7455 20.0155 16.1187 19.744 16.7278C19.3418 17.6311 19.1731 18.682 19.2428 19.8509C19.2982 20.7782 20.0753 21.5047 21.0111 21.5047C21.1536 21.5047 21.2968 21.4874 21.4357 21.4535C22.43 21.21 24.3576 20.3791 26.4907 17.5538C26.868 17.8986 27.4054 18.302 28.1407 18.6789C29.823 19.5413 31.9474 19.9788 34.4553 19.9788C35.0406 19.9788 35.6545 19.954 36.2796 19.9058C37.0379 19.8472 37.6568 19.4604 37.9357 18.8704C38.1848 18.3434 38.1319 17.733 37.7963 17.2252C37.5647 16.8502 37.1911 16.3256 36.678 15.858C36.4035 15.5577 35.4621 14.5989 34.0238 13.8532C34.5817 13.5152 35.3344 13.0259 36.0934 12.4303C37.97 10.9575 39.0795 9.47165 39.392 8.01115C39.5184 7.57559 39.4599 7.09988 39.2202 6.71189C39.0726 6.4728 38.6293 5.91677 37.6935 5.91677C37.5454 5.91677 37.3903 5.93036 37.221 5.95816C36.9433 5.98844 35.8307 6.12559 34.5039 6.51666C32.3944 7.1388 30.7868 8.0754 29.7253 9.2999C29.6891 9.34191 29.6561 9.3833 29.6244 9.42779C29.3704 9.78056 29.0945 10.1389 28.8305 10.4632C28.8137 9.92265 28.7857 9.3104 28.7396 8.6685C28.5286 5.72895 28.0566 3.75134 27.2983 2.6226C27.1657 2.41873 26.3363 1.18002 25.3146 0.441117C25.055 0.222412 24.6372 0 24.0096 0Z" fill="#113D21"/>
<path opacity="0.16" d="M21.4569 18.8543C22.4749 18.3533 23.7581 17.5162 24.7755 16.1205C24.9448 15.8882 25.0949 15.6572 25.2281 15.4292" stroke="#FDF8ED" stroke-width="2" stroke-miterlimit="10" stroke-linecap="round"/>
<path opacity="0.16" d="M29.8286 16.8699C30.6355 17.285 31.8067 17.7107 33.2848 17.7014C33.5307 17.7002 33.7679 17.6866 33.9952 17.6644" stroke="#FDF8ED" stroke-width="2" stroke-miterlimit="10" stroke-linecap="round"/>
<path opacity="0.16" d="M14.2769 11.3386C15.6348 12.1585 17.5587 13.0388 19.8406 13.1958C20.2204 13.2217 20.5834 13.226 20.9283 13.2137" stroke="#FDF8ED" stroke-width="2" stroke-miterlimit="10" stroke-linecap="round"/>
<path opacity="0.16" d="M31.9119 12.5126C32.9255 12.1833 35.7584 10.4083 36.6164 8.99292" stroke="#FDF8ED" stroke-width="2" stroke-miterlimit="10" stroke-linecap="round"/>
</svg>
