<svg width="101" height="27" viewBox="0 0 101 27" fill="current" xmlns="http://www.w3.org/2000/svg">
<path d="M92.3665 18.992C92.9425 21.2747 93.9132 22.416 95.2785 22.416C95.9398 22.416 96.5372 22.2133 97.0705 21.808C97.6038 21.4027 98.0838 20.9653 98.5105 20.496C98.9372 20.0053 99.3105 19.5573 99.6305 19.152C99.9505 18.7467 100.249 18.544 100.527 18.544C100.804 18.544 100.943 18.9067 100.943 19.632C100.943 21.1467 100.239 22.608 98.8305 24.016C97.4225 25.424 95.8438 26.1173 94.0945 26.096C92.3665 26.096 90.8198 24.5707 89.4545 21.52C89.0705 20.6667 88.7078 19.8027 88.3665 18.928L88.1425 23.312C88.1425 23.7173 88.1212 24.1227 88.0785 24.528C88.0358 24.912 87.8545 25.232 87.5345 25.488C86.7025 26.1493 85.8598 26.48 85.0065 26.48C84.0038 26.48 83.5025 25.4453 83.5025 23.376C83.5025 20.3893 83.8545 17.264 84.5585 14C85.2625 10.736 85.9452 8.28268 86.6065 6.64001C87.2892 4.97601 87.8118 3.86668 88.1745 3.31201C88.5585 2.75734 88.8572 2.41601 89.0705 2.28801C89.2838 2.16001 89.5185 2.09601 89.7745 2.09601C90.0518 2.09601 90.3398 2.23468 90.6385 2.51201C90.9372 2.76801 91.2572 3.17334 91.5985 3.72801C91.9398 4.26134 92.1105 4.79468 92.1105 5.32801C92.1318 5.84001 92.0465 6.35201 91.8545 6.86401C91.6838 7.35467 91.4492 7.84534 91.1505 8.33601C90.8518 8.80534 90.5212 9.29601 90.1585 9.80801C89.7958 10.2987 89.4332 10.832 89.0705 11.408L88.7505 14.096C89.4972 12.5387 90.5958 11.4933 92.0465 10.96C92.5585 10.768 93.1558 10.672 93.8385 10.672C95.2038 10.672 96.2492 11.0027 96.9745 11.664C97.6998 12.304 98.0625 13.2533 98.0625 14.512C98.0625 15.7707 97.4332 16.8373 96.1745 17.712C94.9158 18.5867 93.6465 19.0133 92.3665 18.992ZM93.5825 15.248C93.5825 14.48 93.1452 14.096 92.2705 14.096C91.3958 14.096 90.4465 14.9387 89.4225 16.624C89.1238 17.1147 88.8678 17.616 88.6545 18.128C90.8732 18 92.3878 17.4027 93.1985 16.336C93.4545 15.9947 93.5825 15.632 93.5825 15.248Z" fill="#FFA101"/>
<path d="M77.4747 10.512C78.9041 10.4907 79.9707 10.7573 80.6747 11.312C81.3787 11.8453 81.7307 12.624 81.7307 13.648C81.7307 14.6507 81.4214 15.5147 80.8027 16.24C80.2054 16.944 79.4694 17.4453 78.5947 17.744C79.2134 18.384 79.7681 19.0347 80.2587 19.696C80.7707 20.3573 81.0267 21.0507 81.0267 21.776C81.0267 23.2053 80.4614 24.3147 79.3307 25.104C78.2001 25.872 76.6214 26.256 74.5947 26.256C72.5894 26.256 71.0854 25.8613 70.0827 25.072C69.0801 24.2613 68.5787 23.3547 68.5787 22.352C68.5787 21.328 68.8241 20.4 69.3147 19.568C69.8267 18.736 70.3707 18.32 70.9467 18.32C71.2881 18.32 71.5334 18.448 71.6827 18.704C71.8321 18.9387 72.1094 19.6427 72.5147 20.816C72.6641 21.2427 72.9094 21.648 73.2507 22.032C74.0401 22.9067 75.2881 23.344 76.9947 23.344C76.7387 22.5333 76.3227 21.84 75.7467 21.264C75.1921 20.6667 74.6374 20.0907 74.0827 19.536C73.5281 18.9813 73.0374 18.3947 72.6107 17.776C72.1841 17.136 71.9707 16.3893 71.9707 15.536C71.9707 14 72.5467 12.752 73.6987 11.792C74.7867 10.9387 76.0454 10.512 77.4747 10.512ZM77.3467 16.432C78.2001 15.5147 78.6267 14.7787 78.6267 14.224C78.6267 13.968 78.5307 13.744 78.3387 13.552C78.1681 13.3387 77.9121 13.232 77.5707 13.232C77.2294 13.232 76.8987 13.2747 76.5787 13.36C76.2801 13.4453 76.0347 13.5093 75.8427 13.552C75.8427 14.3627 76.3441 15.3227 77.3467 16.432Z" fill="#FFA101"/>
<path fill-rule="evenodd" clip-rule="evenodd" d="M61.5062 20.112C61.5062 24.1013 62.5729 26.096 64.7062 26.096C66.4129 26.1173 68.0129 25.424 69.5062 24.016C71.0209 22.5867 71.7782 21.1253 71.7782 19.632C71.7782 18.9067 71.6289 18.544 71.3302 18.544C71.1809 18.544 70.9036 18.7467 70.4982 19.152C70.1142 19.5573 69.6876 20.0053 69.2182 20.496C68.7489 20.9653 68.2796 21.4027 67.8102 21.808C67.3409 22.2133 66.9462 22.416 66.6262 22.416C66.3276 22.416 66.0609 22.3307 65.8262 22.16C65.6129 21.9893 65.5062 21.68 65.5062 21.232C65.5062 20.784 65.7516 19.6213 66.2422 17.744C66.7542 15.5893 67.0102 14.0853 67.0102 13.232C67.0316 12.6133 66.8929 11.984 66.5942 11.344C66.2316 10.512 65.7409 10.096 65.1222 10.096C64.0769 10.096 63.1382 11.4613 62.3062 14.192C61.7729 15.9627 61.5062 17.936 61.5062 20.112Z" fill="#FFA101"/>
<path fill-rule="evenodd" clip-rule="evenodd" d="M52.1937 20.112C52.1937 24.1013 53.2604 26.096 55.3937 26.096C57.1004 26.1173 58.7004 25.424 60.1937 24.016C61.7084 22.5867 62.4657 21.1253 62.4657 19.632C62.4657 18.9067 62.3164 18.544 62.0177 18.544C61.8684 18.544 61.5911 18.7467 61.1857 19.152C60.8017 19.5573 60.3751 20.0053 59.9057 20.496C59.4364 20.9653 58.9671 21.4027 58.4977 21.808C58.0284 22.2133 57.6337 22.416 57.3137 22.416C57.0151 22.416 56.7484 22.3307 56.5137 22.16C56.3004 21.9893 56.1937 21.68 56.1937 21.232C56.1937 20.784 56.4391 19.6213 56.9297 17.744C57.4417 15.5893 57.6977 14.0853 57.6977 13.232C57.7191 12.6133 57.5804 11.984 57.2817 11.344C56.9191 10.512 56.4284 10.096 55.8097 10.096C54.7644 10.096 53.8257 11.4613 52.9937 14.192C52.4604 15.9627 52.1937 17.936 52.1937 20.112Z" fill="#FFA101"/>
<path d="M44.5223 15.248C44.5223 14.48 44.0636 14.096 43.1463 14.096C42.2503 14.096 41.3649 14.8 40.4903 16.208C39.6156 17.5947 39.0716 19.0133 38.8583 20.464C38.9009 20.9547 38.9436 21.4453 38.9863 21.936C39.0289 22.4267 39.0503 22.9067 39.0503 23.376C39.0503 24.5067 38.6769 25.2747 37.9303 25.68C37.5889 25.872 37.2583 26.0533 36.9383 26.224C36.6396 26.3947 36.2876 26.48 35.8823 26.48C35.4769 26.48 35.1143 26.2133 34.7943 25.68C34.4956 25.1253 34.3463 24.272 34.3463 23.12C34.3463 19.8987 34.5809 17.104 35.0503 14.736C35.7756 11.0667 37.2156 7.14134 39.3703 2.96001C39.6689 2.384 40.1063 2.10667 40.6823 2.128C41.2583 2.128 41.7276 2.52267 42.0903 3.312C42.4529 4.10134 42.6236 4.76267 42.6023 5.29601C42.6023 5.82934 42.5169 6.35201 42.3463 6.864C42.1969 7.35467 41.9943 7.84534 41.7383 8.336C41.5036 8.80534 41.2263 9.29601 40.9063 9.808C40.6076 10.2987 40.3089 10.832 40.0103 11.408L39.5303 13.712C40.3623 12.3253 41.4823 11.3973 42.8903 10.928C43.4023 10.7573 43.9676 10.672 44.5863 10.672C46.0369 10.672 47.1356 11.0027 47.8823 11.664C48.6289 12.304 49.0023 13.2213 49.0023 14.416C49.0023 15.5893 48.8423 16.784 48.5223 18C48.2236 19.216 47.9996 20.0907 47.8503 20.624C47.7223 21.136 47.6583 21.5627 47.6583 21.904C47.6583 22.2453 47.7756 22.416 48.0103 22.416C48.3303 22.416 48.7249 22.2133 49.1943 21.808C49.6636 21.4027 50.1329 20.9653 50.6023 20.496C51.0716 20.0053 51.4983 19.5573 51.8823 19.152C52.2876 18.7467 52.5649 18.544 52.7143 18.544C53.0129 18.544 53.1623 18.9067 53.1623 19.632C53.1623 21.1253 52.4263 22.5653 50.9543 23.952C48.4796 25.4027 46.9009 26.128 46.2183 26.128C46.1543 26.128 46.1116 26.1173 46.0903 26.096C44.3836 26.096 43.5303 24.7307 43.5303 22C43.5303 20.8267 43.6369 19.7493 43.8503 18.768C44.0849 17.7867 44.2556 17.072 44.3623 16.624C44.4689 16.176 44.5223 15.7173 44.5223 15.248Z" fill="#FFA101"/>
<path d="M2.112 6.09599C1.87733 6.28799 1.632 6.46933 1.376 6.63999C1.12 6.81066 0.821333 6.89599 0.48 6.89599C0.16 6.89599 0 6.60799 0 6.03199C0 4.85866 0.544 3.89866 1.632 3.15199C2.67733 2.38399 3.936 1.99999 5.408 1.99999C6.88 1.99999 7.95733 2.52266 8.64 3.56799C9.19467 4.39999 9.472 5.53066 9.472 6.95999C9.472 7.57866 9.35467 8.37866 9.12 9.35999C7.904 14.4373 7.28533 17.9573 7.264 19.92C7.28533 20.8587 7.68 21.4987 8.448 21.84C8.74667 21.968 9.09867 22.032 9.504 22.032C11.4027 22.032 13.1947 20.912 14.88 18.672C14.0267 15.6853 13.6 12.2933 13.6 8.49599C13.6 7.08799 13.9307 5.94666 14.592 5.07199C15.2747 4.17599 16.3733 3.72799 17.888 3.72799C19.0187 3.72799 19.872 4.04799 20.448 4.68799C21.0453 5.32799 21.344 6.17066 21.344 7.21599C21.344 9.37066 20.7787 12.0267 19.648 15.184C19.264 16.2507 18.816 17.3067 18.304 18.352C19.2213 20.8267 20.4373 22.064 21.952 22.064C23.6587 22.064 25.152 20.912 26.432 18.608C27.3707 16.9227 28.1387 14.6293 28.736 11.728C27.1787 11.5147 25.9413 10.8533 25.024 9.74399C24.128 8.63466 23.68 7.45066 23.68 6.19199C23.68 4.93333 24.0747 3.88799 24.864 3.05599C25.6533 2.22399 26.7307 1.80799 28.096 1.80799C29.4613 1.78666 30.4853 2.26666 31.168 3.24799C31.8507 4.20799 32.192 5.51999 32.192 7.18399V7.82399C32.192 8.05866 32.1813 8.31466 32.16 8.59199C32.5227 8.42133 32.832 8.25066 33.088 8.07999C33.344 7.88799 33.6 7.79199 33.856 7.79199C34.2827 7.79199 34.496 7.97333 34.496 8.33599C34.496 9.03999 34.2613 9.65866 33.792 10.192C33.344 10.7253 32.736 11.1307 31.968 11.408C31.6907 13.904 31.3173 15.8667 30.848 17.296C29.9733 20.048 28.8213 22.1387 27.392 23.568C25.6853 25.232 23.584 26.0747 21.088 26.096C19.0187 26.096 17.3333 24.72 16.032 21.968C13.856 24.72 11.3813 26.096 8.608 26.096C6.70933 26.096 5.19467 25.6267 4.064 24.688C2.95467 23.728 2.4 22.224 2.4 20.176C2.4 19.6853 2.66667 18.3947 3.2 16.304C3.75467 14.192 4.192 12.464 4.512 11.12C4.832 9.75466 4.992 8.67733 4.992 7.88799C4.992 6.15999 4.55467 5.29599 3.68 5.29599C3.38133 5.29599 3.104 5.38133 2.848 5.55199C2.61333 5.72266 2.368 5.90399 2.112 6.09599ZM17.632 6.41599C17.0773 6.41599 16.8 7.27999 16.8 9.00799C16.8 10.736 16.9493 12.4747 17.248 14.224C18.0587 12.112 18.464 10.064 18.464 8.07999C18.464 7.65333 18.3893 7.26933 18.24 6.92799C18.112 6.58666 17.9093 6.41599 17.632 6.41599ZM28.448 4.59199C28 4.59199 27.776 4.94399 27.776 5.64799C27.776 6.92799 28.2773 7.85599 29.28 8.43199C29.3653 7.62133 29.408 7.07733 29.408 6.79999C29.408 6.20266 29.3333 5.72266 29.184 5.35999C29.0133 4.84799 28.768 4.59199 28.448 4.59199Z" fill="#FFA101"/>
<path d="M56.512 7.104C55.936 6.25067 55.648 5.33333 55.648 4.352C55.648 3.37067 55.7973 2.56 56.096 1.92C56.416 1.25867 56.7147 0.778666 56.992 0.48C57.2693 0.16 57.5893 0 57.952 0C58.5493 0 59.0933 0.448 59.584 1.344C60.0747 2.21867 60.32 2.95467 60.32 3.552C60.32 4.66133 59.9253 5.536 59.136 6.176C58.368 6.79467 57.4933 7.104 56.512 7.104Z" fill="#B3DEE5"/>
<path d="M66.512 7.104C65.936 6.25067 65.648 5.33333 65.648 4.352C65.648 3.37067 65.7973 2.56 66.096 1.92C66.416 1.25867 66.7147 0.778666 66.992 0.48C67.2693 0.16 67.5893 0 67.952 0C68.5493 0 69.0933 0.448 69.584 1.344C70.0747 2.21867 70.32 2.95467 70.32 3.552C70.32 4.66133 69.9253 5.536 69.136 6.176C68.368 6.79467 67.4933 7.104 66.512 7.104Z" fill="#B3DEE5"/>
</svg>
